G04 #@! TF.GenerationSoftware,KiCad,Pcbnew,8.0.4*
G04 #@! TF.CreationDate,2024-10-09T19:51:01+11:00*
G04 #@! TF.ProjectId,nokia,6e6f6b69-612e-46b6-9963-61645f706362,rev?*
G04 #@! TF.SameCoordinates,Original*
G04 #@! TF.FileFunction,Legend,Bot*
G04 #@! TF.FilePolarity,Positive*
%FSLAX46Y46*%
G04 Gerber Fmt 4.6, Leading zero omitted, Abs format (unit mm)*
G04 Created by KiCad (PCBNEW 8.0.4) date 2024-10-09 19:51:01*
%MOMM*%
%LPD*%
G01*
G04 APERTURE LIST*
G04 Aperture macros list*
%AMRoundRect*
0 Rectangle with rounded corners*
0 $1 Rounding radius*
0 $2 $3 $4 $5 $6 $7 $8 $9 X,Y pos of 4 corners*
0 Add a 4 corners polygon primitive as box body*
4,1,4,$2,$3,$4,$5,$6,$7,$8,$9,$2,$3,0*
0 Add four circle primitives for the rounded corners*
1,1,$1+$1,$2,$3*
1,1,$1+$1,$4,$5*
1,1,$1+$1,$6,$7*
1,1,$1+$1,$8,$9*
0 Add four rect primitives between the rounded corners*
20,1,$1+$1,$2,$3,$4,$5,0*
20,1,$1+$1,$4,$5,$6,$7,0*
20,1,$1+$1,$6,$7,$8,$9,0*
20,1,$1+$1,$8,$9,$2,$3,0*%
%AMFreePoly0*
4,1,17,1.239561,1.918663,1.288452,1.862240,1.300426,1.807198,1.300426,-1.628440,1.279392,-1.700074,1.222969,-1.748965,1.167927,-1.760939,-1.241481,-1.760939,-1.313115,-1.739905,-1.362006,-1.683482,-1.373980,-1.628440,-1.373980,1.807198,-1.352946,1.878832,-1.296523,1.927723,-1.241481,1.939697,1.167927,1.939697,1.239561,1.918663,1.239561,1.918663,$1*%
%AMFreePoly1*
4,1,21,1.481047,1.611465,1.529938,1.555042,1.541912,1.500000,1.541912,-2.069488,1.520878,-2.141122,1.464455,-2.190013,1.409413,-2.201987,-1.000000,-2.201987,-1.071634,-2.180953,-1.120525,-2.124530,-1.132499,-2.069488,-1.132499,-0.453074,-1.143000,-0.381000,-1.143000,0.381000,-1.132499,0.453074,-1.132499,1.500000,-1.111465,1.571634,-1.055042,1.620525,-1.000000,1.632499,1.409413,1.632499,
1.481047,1.611465,1.481047,1.611465,$1*%
%AMFreePoly2*
4,1,19,0.500000,-0.750000,0.000000,-0.750000,0.000000,-0.744911,-0.071157,-0.744911,-0.207708,-0.704816,-0.327430,-0.627875,-0.420627,-0.520320,-0.479746,-0.390866,-0.500000,-0.250000,-0.500000,0.250000,-0.479746,0.390866,-0.420627,0.520320,-0.327430,0.627875,-0.207708,0.704816,-0.071157,0.744911,0.000000,0.744911,0.000000,0.750000,0.500000,0.750000,0.500000,-0.750000,0.500000,-0.750000,
$1*%
%AMFreePoly3*
4,1,19,0.000000,0.744911,0.071157,0.744911,0.207708,0.704816,0.327430,0.627875,0.420627,0.520320,0.479746,0.390866,0.500000,0.250000,0.500000,-0.250000,0.479746,-0.390866,0.420627,-0.520320,0.327430,-0.627875,0.207708,-0.704816,0.071157,-0.744911,0.000000,-0.744911,0.000000,-0.750000,-0.500000,-0.750000,-0.500000,0.750000,0.000000,0.750000,0.000000,0.744911,0.000000,0.744911,
$1*%
G04 Aperture macros list end*
%ADD10C,0.150000*%
%ADD11C,0.100000*%
%ADD12C,0.120000*%
%ADD13RoundRect,0.250000X0.475000X-0.250000X0.475000X0.250000X-0.475000X0.250000X-0.475000X-0.250000X0*%
%ADD14RoundRect,0.150000X0.650000X0.150000X-0.650000X0.150000X-0.650000X-0.150000X0.650000X-0.150000X0*%
%ADD15RoundRect,0.135000X-0.135000X-0.185000X0.135000X-0.185000X0.135000X0.185000X-0.135000X0.185000X0*%
%ADD16RoundRect,0.135000X0.135000X0.185000X-0.135000X0.185000X-0.135000X-0.185000X0.135000X-0.185000X0*%
%ADD17RoundRect,0.150000X0.150000X0.625000X-0.150000X0.625000X-0.150000X-0.625000X0.150000X-0.625000X0*%
%ADD18RoundRect,0.250000X0.350000X0.650000X-0.350000X0.650000X-0.350000X-0.650000X0.350000X-0.650000X0*%
%ADD19RoundRect,0.140000X-0.140000X-0.170000X0.140000X-0.170000X0.140000X0.170000X-0.140000X0.170000X0*%
%ADD20R,0.800000X0.700000*%
%ADD21RoundRect,0.140000X0.170000X-0.140000X0.170000X0.140000X-0.170000X0.140000X-0.170000X-0.140000X0*%
%ADD22RoundRect,0.150000X0.587500X0.150000X-0.587500X0.150000X-0.587500X-0.150000X0.587500X-0.150000X0*%
%ADD23RoundRect,0.250000X-0.475000X0.250000X-0.475000X-0.250000X0.475000X-0.250000X0.475000X0.250000X0*%
%ADD24FreePoly0,180.000000*%
%ADD25FreePoly1,180.000000*%
%ADD26RoundRect,0.055000X-0.055000X-0.335000X0.055000X-0.335000X0.055000X0.335000X-0.055000X0.335000X0*%
%ADD27RoundRect,0.055000X0.335000X-0.055000X0.335000X0.055000X-0.335000X0.055000X-0.335000X-0.055000X0*%
%ADD28C,0.600000*%
%ADD29R,1.133333X1.133333*%
%ADD30RoundRect,0.100000X0.900000X0.900000X-0.900000X0.900000X-0.900000X-0.900000X0.900000X-0.900000X0*%
%ADD31RoundRect,0.100000X1.150000X0.900000X-1.150000X0.900000X-1.150000X-0.900000X1.150000X-0.900000X0*%
%ADD32RoundRect,0.140000X0.140000X0.170000X-0.140000X0.170000X-0.140000X-0.170000X0.140000X-0.170000X0*%
%ADD33FreePoly2,180.000000*%
%ADD34FreePoly3,180.000000*%
%ADD35RoundRect,0.135000X-0.185000X0.135000X-0.185000X-0.135000X0.185000X-0.135000X0.185000X0.135000X0*%
%ADD36RoundRect,0.140000X-0.170000X0.140000X-0.170000X-0.140000X0.170000X-0.140000X0.170000X0.140000X0*%
%ADD37RoundRect,0.150000X0.421500X0.150000X-0.421500X0.150000X-0.421500X-0.150000X0.421500X-0.150000X0*%
%ADD38RoundRect,0.150000X0.446500X0.150000X-0.446500X0.150000X-0.446500X-0.150000X0.446500X-0.150000X0*%
%ADD39RoundRect,0.375000X0.625000X0.375000X-0.625000X0.375000X-0.625000X-0.375000X0.625000X-0.375000X0*%
%ADD40RoundRect,0.500000X0.500000X1.400000X-0.500000X1.400000X-0.500000X-1.400000X0.500000X-1.400000X0*%
%ADD41RoundRect,0.390500X0.390500X-1.281000X0.390500X1.281000X-0.390500X1.281000X-0.390500X-1.281000X0*%
%ADD42RoundRect,0.390500X0.390500X-1.181000X0.390500X1.181000X-0.390500X1.181000X-0.390500X-1.181000X0*%
%ADD43RoundRect,0.400000X0.400000X-1.171500X0.400000X1.171500X-0.400000X1.171500X-0.400000X-1.171500X0*%
%ADD44RoundRect,0.381000X0.381000X-1.190500X0.381000X1.190500X-0.381000X1.190500X-0.381000X-1.190500X0*%
%ADD45R,1.000000X3.150000*%
%ADD46RoundRect,0.500000X0.500000X1.700000X-0.500000X1.700000X-0.500000X-1.700000X0.500000X-1.700000X0*%
%ADD47R,0.400000X1.650000*%
%ADD48R,1.825000X0.700000*%
%ADD49R,2.000000X1.500000*%
%ADD50O,1.350000X1.700000*%
%ADD51R,1.350000X2.000000*%
%ADD52O,1.100000X1.500000*%
%ADD53R,1.430000X2.500000*%
%ADD54RoundRect,0.250000X0.250000X0.475000X-0.250000X0.475000X-0.250000X-0.475000X0.250000X-0.475000X0*%
%ADD55RoundRect,0.135000X0.185000X-0.135000X0.185000X0.135000X-0.185000X0.135000X-0.185000X-0.135000X0*%
%ADD56RoundRect,0.147500X0.147500X0.172500X-0.147500X0.172500X-0.147500X-0.172500X0.147500X-0.172500X0*%
%ADD57R,1.200000X1.400000*%
G04 APERTURE END LIST*
D10*
X35309580Y-83758333D02*
X35357200Y-83710714D01*
X35357200Y-83710714D02*
X35404819Y-83567857D01*
X35404819Y-83567857D02*
X35404819Y-83472619D01*
X35404819Y-83472619D02*
X35357200Y-83329762D01*
X35357200Y-83329762D02*
X35261961Y-83234524D01*
X35261961Y-83234524D02*
X35166723Y-83186905D01*
X35166723Y-83186905D02*
X34976247Y-83139286D01*
X34976247Y-83139286D02*
X34833390Y-83139286D01*
X34833390Y-83139286D02*
X34642914Y-83186905D01*
X34642914Y-83186905D02*
X34547676Y-83234524D01*
X34547676Y-83234524D02*
X34452438Y-83329762D01*
X34452438Y-83329762D02*
X34404819Y-83472619D01*
X34404819Y-83472619D02*
X34404819Y-83567857D01*
X34404819Y-83567857D02*
X34452438Y-83710714D01*
X34452438Y-83710714D02*
X34500057Y-83758333D01*
X34404819Y-84663095D02*
X34404819Y-84186905D01*
X34404819Y-84186905D02*
X34881009Y-84139286D01*
X34881009Y-84139286D02*
X34833390Y-84186905D01*
X34833390Y-84186905D02*
X34785771Y-84282143D01*
X34785771Y-84282143D02*
X34785771Y-84520238D01*
X34785771Y-84520238D02*
X34833390Y-84615476D01*
X34833390Y-84615476D02*
X34881009Y-84663095D01*
X34881009Y-84663095D02*
X34976247Y-84710714D01*
X34976247Y-84710714D02*
X35214342Y-84710714D01*
X35214342Y-84710714D02*
X35309580Y-84663095D01*
X35309580Y-84663095D02*
X35357200Y-84615476D01*
X35357200Y-84615476D02*
X35404819Y-84520238D01*
X35404819Y-84520238D02*
X35404819Y-84282143D01*
X35404819Y-84282143D02*
X35357200Y-84186905D01*
X35357200Y-84186905D02*
X35309580Y-84139286D01*
X57561904Y-63084819D02*
X57561904Y-63894342D01*
X57561904Y-63894342D02*
X57514285Y-63989580D01*
X57514285Y-63989580D02*
X57466666Y-64037200D01*
X57466666Y-64037200D02*
X57371428Y-64084819D01*
X57371428Y-64084819D02*
X57180952Y-64084819D01*
X57180952Y-64084819D02*
X57085714Y-64037200D01*
X57085714Y-64037200D02*
X57038095Y-63989580D01*
X57038095Y-63989580D02*
X56990476Y-63894342D01*
X56990476Y-63894342D02*
X56990476Y-63084819D01*
X55990476Y-64084819D02*
X56561904Y-64084819D01*
X56276190Y-64084819D02*
X56276190Y-63084819D01*
X56276190Y-63084819D02*
X56371428Y-63227676D01*
X56371428Y-63227676D02*
X56466666Y-63322914D01*
X56466666Y-63322914D02*
X56561904Y-63370533D01*
X50466666Y-77679819D02*
X50799999Y-77203628D01*
X51038094Y-77679819D02*
X51038094Y-76679819D01*
X51038094Y-76679819D02*
X50657142Y-76679819D01*
X50657142Y-76679819D02*
X50561904Y-76727438D01*
X50561904Y-76727438D02*
X50514285Y-76775057D01*
X50514285Y-76775057D02*
X50466666Y-76870295D01*
X50466666Y-76870295D02*
X50466666Y-77013152D01*
X50466666Y-77013152D02*
X50514285Y-77108390D01*
X50514285Y-77108390D02*
X50561904Y-77156009D01*
X50561904Y-77156009D02*
X50657142Y-77203628D01*
X50657142Y-77203628D02*
X51038094Y-77203628D01*
X49561904Y-76679819D02*
X50038094Y-76679819D01*
X50038094Y-76679819D02*
X50085713Y-77156009D01*
X50085713Y-77156009D02*
X50038094Y-77108390D01*
X50038094Y-77108390D02*
X49942856Y-77060771D01*
X49942856Y-77060771D02*
X49704761Y-77060771D01*
X49704761Y-77060771D02*
X49609523Y-77108390D01*
X49609523Y-77108390D02*
X49561904Y-77156009D01*
X49561904Y-77156009D02*
X49514285Y-77251247D01*
X49514285Y-77251247D02*
X49514285Y-77489342D01*
X49514285Y-77489342D02*
X49561904Y-77584580D01*
X49561904Y-77584580D02*
X49609523Y-77632200D01*
X49609523Y-77632200D02*
X49704761Y-77679819D01*
X49704761Y-77679819D02*
X49942856Y-77679819D01*
X49942856Y-77679819D02*
X50038094Y-77632200D01*
X50038094Y-77632200D02*
X50085713Y-77584580D01*
X31241666Y-23329819D02*
X31574999Y-22853628D01*
X31813094Y-23329819D02*
X31813094Y-22329819D01*
X31813094Y-22329819D02*
X31432142Y-22329819D01*
X31432142Y-22329819D02*
X31336904Y-22377438D01*
X31336904Y-22377438D02*
X31289285Y-22425057D01*
X31289285Y-22425057D02*
X31241666Y-22520295D01*
X31241666Y-22520295D02*
X31241666Y-22663152D01*
X31241666Y-22663152D02*
X31289285Y-22758390D01*
X31289285Y-22758390D02*
X31336904Y-22806009D01*
X31336904Y-22806009D02*
X31432142Y-22853628D01*
X31432142Y-22853628D02*
X31813094Y-22853628D01*
X30384523Y-22329819D02*
X30574999Y-22329819D01*
X30574999Y-22329819D02*
X30670237Y-22377438D01*
X30670237Y-22377438D02*
X30717856Y-22425057D01*
X30717856Y-22425057D02*
X30813094Y-22567914D01*
X30813094Y-22567914D02*
X30860713Y-22758390D01*
X30860713Y-22758390D02*
X30860713Y-23139342D01*
X30860713Y-23139342D02*
X30813094Y-23234580D01*
X30813094Y-23234580D02*
X30765475Y-23282200D01*
X30765475Y-23282200D02*
X30670237Y-23329819D01*
X30670237Y-23329819D02*
X30479761Y-23329819D01*
X30479761Y-23329819D02*
X30384523Y-23282200D01*
X30384523Y-23282200D02*
X30336904Y-23234580D01*
X30336904Y-23234580D02*
X30289285Y-23139342D01*
X30289285Y-23139342D02*
X30289285Y-22901247D01*
X30289285Y-22901247D02*
X30336904Y-22806009D01*
X30336904Y-22806009D02*
X30384523Y-22758390D01*
X30384523Y-22758390D02*
X30479761Y-22710771D01*
X30479761Y-22710771D02*
X30670237Y-22710771D01*
X30670237Y-22710771D02*
X30765475Y-22758390D01*
X30765475Y-22758390D02*
X30813094Y-22806009D01*
X30813094Y-22806009D02*
X30860713Y-22901247D01*
X40583333Y-122204819D02*
X40583333Y-122919104D01*
X40583333Y-122919104D02*
X40630952Y-123061961D01*
X40630952Y-123061961D02*
X40726190Y-123157200D01*
X40726190Y-123157200D02*
X40869047Y-123204819D01*
X40869047Y-123204819D02*
X40964285Y-123204819D01*
X40202380Y-122204819D02*
X39583333Y-122204819D01*
X39583333Y-122204819D02*
X39916666Y-122585771D01*
X39916666Y-122585771D02*
X39773809Y-122585771D01*
X39773809Y-122585771D02*
X39678571Y-122633390D01*
X39678571Y-122633390D02*
X39630952Y-122681009D01*
X39630952Y-122681009D02*
X39583333Y-122776247D01*
X39583333Y-122776247D02*
X39583333Y-123014342D01*
X39583333Y-123014342D02*
X39630952Y-123109580D01*
X39630952Y-123109580D02*
X39678571Y-123157200D01*
X39678571Y-123157200D02*
X39773809Y-123204819D01*
X39773809Y-123204819D02*
X40059523Y-123204819D01*
X40059523Y-123204819D02*
X40154761Y-123157200D01*
X40154761Y-123157200D02*
X40202380Y-123109580D01*
X50217857Y-61409580D02*
X50265476Y-61457200D01*
X50265476Y-61457200D02*
X50408333Y-61504819D01*
X50408333Y-61504819D02*
X50503571Y-61504819D01*
X50503571Y-61504819D02*
X50646428Y-61457200D01*
X50646428Y-61457200D02*
X50741666Y-61361961D01*
X50741666Y-61361961D02*
X50789285Y-61266723D01*
X50789285Y-61266723D02*
X50836904Y-61076247D01*
X50836904Y-61076247D02*
X50836904Y-60933390D01*
X50836904Y-60933390D02*
X50789285Y-60742914D01*
X50789285Y-60742914D02*
X50741666Y-60647676D01*
X50741666Y-60647676D02*
X50646428Y-60552438D01*
X50646428Y-60552438D02*
X50503571Y-60504819D01*
X50503571Y-60504819D02*
X50408333Y-60504819D01*
X50408333Y-60504819D02*
X50265476Y-60552438D01*
X50265476Y-60552438D02*
X50217857Y-60600057D01*
X49265476Y-61504819D02*
X49836904Y-61504819D01*
X49551190Y-61504819D02*
X49551190Y-60504819D01*
X49551190Y-60504819D02*
X49646428Y-60647676D01*
X49646428Y-60647676D02*
X49741666Y-60742914D01*
X49741666Y-60742914D02*
X49836904Y-60790533D01*
X48884523Y-60600057D02*
X48836904Y-60552438D01*
X48836904Y-60552438D02*
X48741666Y-60504819D01*
X48741666Y-60504819D02*
X48503571Y-60504819D01*
X48503571Y-60504819D02*
X48408333Y-60552438D01*
X48408333Y-60552438D02*
X48360714Y-60600057D01*
X48360714Y-60600057D02*
X48313095Y-60695295D01*
X48313095Y-60695295D02*
X48313095Y-60790533D01*
X48313095Y-60790533D02*
X48360714Y-60933390D01*
X48360714Y-60933390D02*
X48932142Y-61504819D01*
X48932142Y-61504819D02*
X48313095Y-61504819D01*
X49692857Y-73879819D02*
X50026190Y-73403628D01*
X50264285Y-73879819D02*
X50264285Y-72879819D01*
X50264285Y-72879819D02*
X49883333Y-72879819D01*
X49883333Y-72879819D02*
X49788095Y-72927438D01*
X49788095Y-72927438D02*
X49740476Y-72975057D01*
X49740476Y-72975057D02*
X49692857Y-73070295D01*
X49692857Y-73070295D02*
X49692857Y-73213152D01*
X49692857Y-73213152D02*
X49740476Y-73308390D01*
X49740476Y-73308390D02*
X49788095Y-73356009D01*
X49788095Y-73356009D02*
X49883333Y-73403628D01*
X49883333Y-73403628D02*
X50264285Y-73403628D01*
X48740476Y-73879819D02*
X49311904Y-73879819D01*
X49026190Y-73879819D02*
X49026190Y-72879819D01*
X49026190Y-72879819D02*
X49121428Y-73022676D01*
X49121428Y-73022676D02*
X49216666Y-73117914D01*
X49216666Y-73117914D02*
X49311904Y-73165533D01*
X47883333Y-72879819D02*
X48073809Y-72879819D01*
X48073809Y-72879819D02*
X48169047Y-72927438D01*
X48169047Y-72927438D02*
X48216666Y-72975057D01*
X48216666Y-72975057D02*
X48311904Y-73117914D01*
X48311904Y-73117914D02*
X48359523Y-73308390D01*
X48359523Y-73308390D02*
X48359523Y-73689342D01*
X48359523Y-73689342D02*
X48311904Y-73784580D01*
X48311904Y-73784580D02*
X48264285Y-73832200D01*
X48264285Y-73832200D02*
X48169047Y-73879819D01*
X48169047Y-73879819D02*
X47978571Y-73879819D01*
X47978571Y-73879819D02*
X47883333Y-73832200D01*
X47883333Y-73832200D02*
X47835714Y-73784580D01*
X47835714Y-73784580D02*
X47788095Y-73689342D01*
X47788095Y-73689342D02*
X47788095Y-73451247D01*
X47788095Y-73451247D02*
X47835714Y-73356009D01*
X47835714Y-73356009D02*
X47883333Y-73308390D01*
X47883333Y-73308390D02*
X47978571Y-73260771D01*
X47978571Y-73260771D02*
X48169047Y-73260771D01*
X48169047Y-73260771D02*
X48264285Y-73308390D01*
X48264285Y-73308390D02*
X48311904Y-73356009D01*
X48311904Y-73356009D02*
X48359523Y-73451247D01*
X37617857Y-115654819D02*
X37951190Y-115178628D01*
X38189285Y-115654819D02*
X38189285Y-114654819D01*
X38189285Y-114654819D02*
X37808333Y-114654819D01*
X37808333Y-114654819D02*
X37713095Y-114702438D01*
X37713095Y-114702438D02*
X37665476Y-114750057D01*
X37665476Y-114750057D02*
X37617857Y-114845295D01*
X37617857Y-114845295D02*
X37617857Y-114988152D01*
X37617857Y-114988152D02*
X37665476Y-115083390D01*
X37665476Y-115083390D02*
X37713095Y-115131009D01*
X37713095Y-115131009D02*
X37808333Y-115178628D01*
X37808333Y-115178628D02*
X38189285Y-115178628D01*
X37284523Y-114654819D02*
X36665476Y-114654819D01*
X36665476Y-114654819D02*
X36998809Y-115035771D01*
X36998809Y-115035771D02*
X36855952Y-115035771D01*
X36855952Y-115035771D02*
X36760714Y-115083390D01*
X36760714Y-115083390D02*
X36713095Y-115131009D01*
X36713095Y-115131009D02*
X36665476Y-115226247D01*
X36665476Y-115226247D02*
X36665476Y-115464342D01*
X36665476Y-115464342D02*
X36713095Y-115559580D01*
X36713095Y-115559580D02*
X36760714Y-115607200D01*
X36760714Y-115607200D02*
X36855952Y-115654819D01*
X36855952Y-115654819D02*
X37141666Y-115654819D01*
X37141666Y-115654819D02*
X37236904Y-115607200D01*
X37236904Y-115607200D02*
X37284523Y-115559580D01*
X36046428Y-114654819D02*
X35951190Y-114654819D01*
X35951190Y-114654819D02*
X35855952Y-114702438D01*
X35855952Y-114702438D02*
X35808333Y-114750057D01*
X35808333Y-114750057D02*
X35760714Y-114845295D01*
X35760714Y-114845295D02*
X35713095Y-115035771D01*
X35713095Y-115035771D02*
X35713095Y-115273866D01*
X35713095Y-115273866D02*
X35760714Y-115464342D01*
X35760714Y-115464342D02*
X35808333Y-115559580D01*
X35808333Y-115559580D02*
X35855952Y-115607200D01*
X35855952Y-115607200D02*
X35951190Y-115654819D01*
X35951190Y-115654819D02*
X36046428Y-115654819D01*
X36046428Y-115654819D02*
X36141666Y-115607200D01*
X36141666Y-115607200D02*
X36189285Y-115559580D01*
X36189285Y-115559580D02*
X36236904Y-115464342D01*
X36236904Y-115464342D02*
X36284523Y-115273866D01*
X36284523Y-115273866D02*
X36284523Y-115035771D01*
X36284523Y-115035771D02*
X36236904Y-114845295D01*
X36236904Y-114845295D02*
X36189285Y-114750057D01*
X36189285Y-114750057D02*
X36141666Y-114702438D01*
X36141666Y-114702438D02*
X36046428Y-114654819D01*
X54717857Y-112104819D02*
X55051190Y-111628628D01*
X55289285Y-112104819D02*
X55289285Y-111104819D01*
X55289285Y-111104819D02*
X54908333Y-111104819D01*
X54908333Y-111104819D02*
X54813095Y-111152438D01*
X54813095Y-111152438D02*
X54765476Y-111200057D01*
X54765476Y-111200057D02*
X54717857Y-111295295D01*
X54717857Y-111295295D02*
X54717857Y-111438152D01*
X54717857Y-111438152D02*
X54765476Y-111533390D01*
X54765476Y-111533390D02*
X54813095Y-111581009D01*
X54813095Y-111581009D02*
X54908333Y-111628628D01*
X54908333Y-111628628D02*
X55289285Y-111628628D01*
X54336904Y-111200057D02*
X54289285Y-111152438D01*
X54289285Y-111152438D02*
X54194047Y-111104819D01*
X54194047Y-111104819D02*
X53955952Y-111104819D01*
X53955952Y-111104819D02*
X53860714Y-111152438D01*
X53860714Y-111152438D02*
X53813095Y-111200057D01*
X53813095Y-111200057D02*
X53765476Y-111295295D01*
X53765476Y-111295295D02*
X53765476Y-111390533D01*
X53765476Y-111390533D02*
X53813095Y-111533390D01*
X53813095Y-111533390D02*
X54384523Y-112104819D01*
X54384523Y-112104819D02*
X53765476Y-112104819D01*
X52860714Y-111104819D02*
X53336904Y-111104819D01*
X53336904Y-111104819D02*
X53384523Y-111581009D01*
X53384523Y-111581009D02*
X53336904Y-111533390D01*
X53336904Y-111533390D02*
X53241666Y-111485771D01*
X53241666Y-111485771D02*
X53003571Y-111485771D01*
X53003571Y-111485771D02*
X52908333Y-111533390D01*
X52908333Y-111533390D02*
X52860714Y-111581009D01*
X52860714Y-111581009D02*
X52813095Y-111676247D01*
X52813095Y-111676247D02*
X52813095Y-111914342D01*
X52813095Y-111914342D02*
X52860714Y-112009580D01*
X52860714Y-112009580D02*
X52908333Y-112057200D01*
X52908333Y-112057200D02*
X53003571Y-112104819D01*
X53003571Y-112104819D02*
X53241666Y-112104819D01*
X53241666Y-112104819D02*
X53336904Y-112057200D01*
X53336904Y-112057200D02*
X53384523Y-112009580D01*
X61017857Y-59379819D02*
X61351190Y-58903628D01*
X61589285Y-59379819D02*
X61589285Y-58379819D01*
X61589285Y-58379819D02*
X61208333Y-58379819D01*
X61208333Y-58379819D02*
X61113095Y-58427438D01*
X61113095Y-58427438D02*
X61065476Y-58475057D01*
X61065476Y-58475057D02*
X61017857Y-58570295D01*
X61017857Y-58570295D02*
X61017857Y-58713152D01*
X61017857Y-58713152D02*
X61065476Y-58808390D01*
X61065476Y-58808390D02*
X61113095Y-58856009D01*
X61113095Y-58856009D02*
X61208333Y-58903628D01*
X61208333Y-58903628D02*
X61589285Y-58903628D01*
X60065476Y-59379819D02*
X60636904Y-59379819D01*
X60351190Y-59379819D02*
X60351190Y-58379819D01*
X60351190Y-58379819D02*
X60446428Y-58522676D01*
X60446428Y-58522676D02*
X60541666Y-58617914D01*
X60541666Y-58617914D02*
X60636904Y-58665533D01*
X59446428Y-58379819D02*
X59351190Y-58379819D01*
X59351190Y-58379819D02*
X59255952Y-58427438D01*
X59255952Y-58427438D02*
X59208333Y-58475057D01*
X59208333Y-58475057D02*
X59160714Y-58570295D01*
X59160714Y-58570295D02*
X59113095Y-58760771D01*
X59113095Y-58760771D02*
X59113095Y-58998866D01*
X59113095Y-58998866D02*
X59160714Y-59189342D01*
X59160714Y-59189342D02*
X59208333Y-59284580D01*
X59208333Y-59284580D02*
X59255952Y-59332200D01*
X59255952Y-59332200D02*
X59351190Y-59379819D01*
X59351190Y-59379819D02*
X59446428Y-59379819D01*
X59446428Y-59379819D02*
X59541666Y-59332200D01*
X59541666Y-59332200D02*
X59589285Y-59284580D01*
X59589285Y-59284580D02*
X59636904Y-59189342D01*
X59636904Y-59189342D02*
X59684523Y-58998866D01*
X59684523Y-58998866D02*
X59684523Y-58760771D01*
X59684523Y-58760771D02*
X59636904Y-58570295D01*
X59636904Y-58570295D02*
X59589285Y-58475057D01*
X59589285Y-58475057D02*
X59541666Y-58427438D01*
X59541666Y-58427438D02*
X59446428Y-58379819D01*
X33867857Y-112129819D02*
X34201190Y-111653628D01*
X34439285Y-112129819D02*
X34439285Y-111129819D01*
X34439285Y-111129819D02*
X34058333Y-111129819D01*
X34058333Y-111129819D02*
X33963095Y-111177438D01*
X33963095Y-111177438D02*
X33915476Y-111225057D01*
X33915476Y-111225057D02*
X33867857Y-111320295D01*
X33867857Y-111320295D02*
X33867857Y-111463152D01*
X33867857Y-111463152D02*
X33915476Y-111558390D01*
X33915476Y-111558390D02*
X33963095Y-111606009D01*
X33963095Y-111606009D02*
X34058333Y-111653628D01*
X34058333Y-111653628D02*
X34439285Y-111653628D01*
X33534523Y-111129819D02*
X32915476Y-111129819D01*
X32915476Y-111129819D02*
X33248809Y-111510771D01*
X33248809Y-111510771D02*
X33105952Y-111510771D01*
X33105952Y-111510771D02*
X33010714Y-111558390D01*
X33010714Y-111558390D02*
X32963095Y-111606009D01*
X32963095Y-111606009D02*
X32915476Y-111701247D01*
X32915476Y-111701247D02*
X32915476Y-111939342D01*
X32915476Y-111939342D02*
X32963095Y-112034580D01*
X32963095Y-112034580D02*
X33010714Y-112082200D01*
X33010714Y-112082200D02*
X33105952Y-112129819D01*
X33105952Y-112129819D02*
X33391666Y-112129819D01*
X33391666Y-112129819D02*
X33486904Y-112082200D01*
X33486904Y-112082200D02*
X33534523Y-112034580D01*
X32534523Y-111225057D02*
X32486904Y-111177438D01*
X32486904Y-111177438D02*
X32391666Y-111129819D01*
X32391666Y-111129819D02*
X32153571Y-111129819D01*
X32153571Y-111129819D02*
X32058333Y-111177438D01*
X32058333Y-111177438D02*
X32010714Y-111225057D01*
X32010714Y-111225057D02*
X31963095Y-111320295D01*
X31963095Y-111320295D02*
X31963095Y-111415533D01*
X31963095Y-111415533D02*
X32010714Y-111558390D01*
X32010714Y-111558390D02*
X32582142Y-112129819D01*
X32582142Y-112129819D02*
X31963095Y-112129819D01*
D11*
X52288094Y-115557419D02*
X52288094Y-114557419D01*
X52288094Y-114557419D02*
X52049999Y-114557419D01*
X52049999Y-114557419D02*
X51907142Y-114605038D01*
X51907142Y-114605038D02*
X51811904Y-114700276D01*
X51811904Y-114700276D02*
X51764285Y-114795514D01*
X51764285Y-114795514D02*
X51716666Y-114985990D01*
X51716666Y-114985990D02*
X51716666Y-115128847D01*
X51716666Y-115128847D02*
X51764285Y-115319323D01*
X51764285Y-115319323D02*
X51811904Y-115414561D01*
X51811904Y-115414561D02*
X51907142Y-115509800D01*
X51907142Y-115509800D02*
X52049999Y-115557419D01*
X52049999Y-115557419D02*
X52288094Y-115557419D01*
X51383332Y-114557419D02*
X50764285Y-114557419D01*
X50764285Y-114557419D02*
X51097618Y-114938371D01*
X51097618Y-114938371D02*
X50954761Y-114938371D01*
X50954761Y-114938371D02*
X50859523Y-114985990D01*
X50859523Y-114985990D02*
X50811904Y-115033609D01*
X50811904Y-115033609D02*
X50764285Y-115128847D01*
X50764285Y-115128847D02*
X50764285Y-115366942D01*
X50764285Y-115366942D02*
X50811904Y-115462180D01*
X50811904Y-115462180D02*
X50859523Y-115509800D01*
X50859523Y-115509800D02*
X50954761Y-115557419D01*
X50954761Y-115557419D02*
X51240475Y-115557419D01*
X51240475Y-115557419D02*
X51335713Y-115509800D01*
X51335713Y-115509800D02*
X51383332Y-115462180D01*
D10*
X38759580Y-49607142D02*
X38807200Y-49559523D01*
X38807200Y-49559523D02*
X38854819Y-49416666D01*
X38854819Y-49416666D02*
X38854819Y-49321428D01*
X38854819Y-49321428D02*
X38807200Y-49178571D01*
X38807200Y-49178571D02*
X38711961Y-49083333D01*
X38711961Y-49083333D02*
X38616723Y-49035714D01*
X38616723Y-49035714D02*
X38426247Y-48988095D01*
X38426247Y-48988095D02*
X38283390Y-48988095D01*
X38283390Y-48988095D02*
X38092914Y-49035714D01*
X38092914Y-49035714D02*
X37997676Y-49083333D01*
X37997676Y-49083333D02*
X37902438Y-49178571D01*
X37902438Y-49178571D02*
X37854819Y-49321428D01*
X37854819Y-49321428D02*
X37854819Y-49416666D01*
X37854819Y-49416666D02*
X37902438Y-49559523D01*
X37902438Y-49559523D02*
X37950057Y-49607142D01*
X38854819Y-50559523D02*
X38854819Y-49988095D01*
X38854819Y-50273809D02*
X37854819Y-50273809D01*
X37854819Y-50273809D02*
X37997676Y-50178571D01*
X37997676Y-50178571D02*
X38092914Y-50083333D01*
X38092914Y-50083333D02*
X38140533Y-49988095D01*
X38283390Y-51130952D02*
X38235771Y-51035714D01*
X38235771Y-51035714D02*
X38188152Y-50988095D01*
X38188152Y-50988095D02*
X38092914Y-50940476D01*
X38092914Y-50940476D02*
X38045295Y-50940476D01*
X38045295Y-50940476D02*
X37950057Y-50988095D01*
X37950057Y-50988095D02*
X37902438Y-51035714D01*
X37902438Y-51035714D02*
X37854819Y-51130952D01*
X37854819Y-51130952D02*
X37854819Y-51321428D01*
X37854819Y-51321428D02*
X37902438Y-51416666D01*
X37902438Y-51416666D02*
X37950057Y-51464285D01*
X37950057Y-51464285D02*
X38045295Y-51511904D01*
X38045295Y-51511904D02*
X38092914Y-51511904D01*
X38092914Y-51511904D02*
X38188152Y-51464285D01*
X38188152Y-51464285D02*
X38235771Y-51416666D01*
X38235771Y-51416666D02*
X38283390Y-51321428D01*
X38283390Y-51321428D02*
X38283390Y-51130952D01*
X38283390Y-51130952D02*
X38331009Y-51035714D01*
X38331009Y-51035714D02*
X38378628Y-50988095D01*
X38378628Y-50988095D02*
X38473866Y-50940476D01*
X38473866Y-50940476D02*
X38664342Y-50940476D01*
X38664342Y-50940476D02*
X38759580Y-50988095D01*
X38759580Y-50988095D02*
X38807200Y-51035714D01*
X38807200Y-51035714D02*
X38854819Y-51130952D01*
X38854819Y-51130952D02*
X38854819Y-51321428D01*
X38854819Y-51321428D02*
X38807200Y-51416666D01*
X38807200Y-51416666D02*
X38759580Y-51464285D01*
X38759580Y-51464285D02*
X38664342Y-51511904D01*
X38664342Y-51511904D02*
X38473866Y-51511904D01*
X38473866Y-51511904D02*
X38378628Y-51464285D01*
X38378628Y-51464285D02*
X38331009Y-51416666D01*
X38331009Y-51416666D02*
X38283390Y-51321428D01*
X61220238Y-102200057D02*
X61315476Y-102152438D01*
X61315476Y-102152438D02*
X61410714Y-102057200D01*
X61410714Y-102057200D02*
X61553571Y-101914342D01*
X61553571Y-101914342D02*
X61648809Y-101866723D01*
X61648809Y-101866723D02*
X61744047Y-101866723D01*
X61696428Y-102104819D02*
X61791666Y-102057200D01*
X61791666Y-102057200D02*
X61886904Y-101961961D01*
X61886904Y-101961961D02*
X61934523Y-101771485D01*
X61934523Y-101771485D02*
X61934523Y-101438152D01*
X61934523Y-101438152D02*
X61886904Y-101247676D01*
X61886904Y-101247676D02*
X61791666Y-101152438D01*
X61791666Y-101152438D02*
X61696428Y-101104819D01*
X61696428Y-101104819D02*
X61505952Y-101104819D01*
X61505952Y-101104819D02*
X61410714Y-101152438D01*
X61410714Y-101152438D02*
X61315476Y-101247676D01*
X61315476Y-101247676D02*
X61267857Y-101438152D01*
X61267857Y-101438152D02*
X61267857Y-101771485D01*
X61267857Y-101771485D02*
X61315476Y-101961961D01*
X61315476Y-101961961D02*
X61410714Y-102057200D01*
X61410714Y-102057200D02*
X61505952Y-102104819D01*
X61505952Y-102104819D02*
X61696428Y-102104819D01*
X60315476Y-102104819D02*
X60886904Y-102104819D01*
X60601190Y-102104819D02*
X60601190Y-101104819D01*
X60601190Y-101104819D02*
X60696428Y-101247676D01*
X60696428Y-101247676D02*
X60791666Y-101342914D01*
X60791666Y-101342914D02*
X60886904Y-101390533D01*
X43684580Y-49207142D02*
X43732200Y-49159523D01*
X43732200Y-49159523D02*
X43779819Y-49016666D01*
X43779819Y-49016666D02*
X43779819Y-48921428D01*
X43779819Y-48921428D02*
X43732200Y-48778571D01*
X43732200Y-48778571D02*
X43636961Y-48683333D01*
X43636961Y-48683333D02*
X43541723Y-48635714D01*
X43541723Y-48635714D02*
X43351247Y-48588095D01*
X43351247Y-48588095D02*
X43208390Y-48588095D01*
X43208390Y-48588095D02*
X43017914Y-48635714D01*
X43017914Y-48635714D02*
X42922676Y-48683333D01*
X42922676Y-48683333D02*
X42827438Y-48778571D01*
X42827438Y-48778571D02*
X42779819Y-48921428D01*
X42779819Y-48921428D02*
X42779819Y-49016666D01*
X42779819Y-49016666D02*
X42827438Y-49159523D01*
X42827438Y-49159523D02*
X42875057Y-49207142D01*
X43779819Y-50159523D02*
X43779819Y-49588095D01*
X43779819Y-49873809D02*
X42779819Y-49873809D01*
X42779819Y-49873809D02*
X42922676Y-49778571D01*
X42922676Y-49778571D02*
X43017914Y-49683333D01*
X43017914Y-49683333D02*
X43065533Y-49588095D01*
X43779819Y-51111904D02*
X43779819Y-50540476D01*
X43779819Y-50826190D02*
X42779819Y-50826190D01*
X42779819Y-50826190D02*
X42922676Y-50730952D01*
X42922676Y-50730952D02*
X43017914Y-50635714D01*
X43017914Y-50635714D02*
X43065533Y-50540476D01*
X54566666Y-100904819D02*
X54899999Y-100428628D01*
X55138094Y-100904819D02*
X55138094Y-99904819D01*
X55138094Y-99904819D02*
X54757142Y-99904819D01*
X54757142Y-99904819D02*
X54661904Y-99952438D01*
X54661904Y-99952438D02*
X54614285Y-100000057D01*
X54614285Y-100000057D02*
X54566666Y-100095295D01*
X54566666Y-100095295D02*
X54566666Y-100238152D01*
X54566666Y-100238152D02*
X54614285Y-100333390D01*
X54614285Y-100333390D02*
X54661904Y-100381009D01*
X54661904Y-100381009D02*
X54757142Y-100428628D01*
X54757142Y-100428628D02*
X55138094Y-100428628D01*
X53709523Y-100238152D02*
X53709523Y-100904819D01*
X53947618Y-99857200D02*
X54185713Y-100571485D01*
X54185713Y-100571485D02*
X53566666Y-100571485D01*
X53291666Y-59529819D02*
X53624999Y-59053628D01*
X53863094Y-59529819D02*
X53863094Y-58529819D01*
X53863094Y-58529819D02*
X53482142Y-58529819D01*
X53482142Y-58529819D02*
X53386904Y-58577438D01*
X53386904Y-58577438D02*
X53339285Y-58625057D01*
X53339285Y-58625057D02*
X53291666Y-58720295D01*
X53291666Y-58720295D02*
X53291666Y-58863152D01*
X53291666Y-58863152D02*
X53339285Y-58958390D01*
X53339285Y-58958390D02*
X53386904Y-59006009D01*
X53386904Y-59006009D02*
X53482142Y-59053628D01*
X53482142Y-59053628D02*
X53863094Y-59053628D01*
X52958332Y-58529819D02*
X52291666Y-58529819D01*
X52291666Y-58529819D02*
X52720237Y-59529819D01*
X41409580Y-51837142D02*
X41457200Y-51789523D01*
X41457200Y-51789523D02*
X41504819Y-51646666D01*
X41504819Y-51646666D02*
X41504819Y-51551428D01*
X41504819Y-51551428D02*
X41457200Y-51408571D01*
X41457200Y-51408571D02*
X41361961Y-51313333D01*
X41361961Y-51313333D02*
X41266723Y-51265714D01*
X41266723Y-51265714D02*
X41076247Y-51218095D01*
X41076247Y-51218095D02*
X40933390Y-51218095D01*
X40933390Y-51218095D02*
X40742914Y-51265714D01*
X40742914Y-51265714D02*
X40647676Y-51313333D01*
X40647676Y-51313333D02*
X40552438Y-51408571D01*
X40552438Y-51408571D02*
X40504819Y-51551428D01*
X40504819Y-51551428D02*
X40504819Y-51646666D01*
X40504819Y-51646666D02*
X40552438Y-51789523D01*
X40552438Y-51789523D02*
X40600057Y-51837142D01*
X41504819Y-52789523D02*
X41504819Y-52218095D01*
X41504819Y-52503809D02*
X40504819Y-52503809D01*
X40504819Y-52503809D02*
X40647676Y-52408571D01*
X40647676Y-52408571D02*
X40742914Y-52313333D01*
X40742914Y-52313333D02*
X40790533Y-52218095D01*
X40504819Y-53646666D02*
X40504819Y-53456190D01*
X40504819Y-53456190D02*
X40552438Y-53360952D01*
X40552438Y-53360952D02*
X40600057Y-53313333D01*
X40600057Y-53313333D02*
X40742914Y-53218095D01*
X40742914Y-53218095D02*
X40933390Y-53170476D01*
X40933390Y-53170476D02*
X41314342Y-53170476D01*
X41314342Y-53170476D02*
X41409580Y-53218095D01*
X41409580Y-53218095D02*
X41457200Y-53265714D01*
X41457200Y-53265714D02*
X41504819Y-53360952D01*
X41504819Y-53360952D02*
X41504819Y-53551428D01*
X41504819Y-53551428D02*
X41457200Y-53646666D01*
X41457200Y-53646666D02*
X41409580Y-53694285D01*
X41409580Y-53694285D02*
X41314342Y-53741904D01*
X41314342Y-53741904D02*
X41076247Y-53741904D01*
X41076247Y-53741904D02*
X40981009Y-53694285D01*
X40981009Y-53694285D02*
X40933390Y-53646666D01*
X40933390Y-53646666D02*
X40885771Y-53551428D01*
X40885771Y-53551428D02*
X40885771Y-53360952D01*
X40885771Y-53360952D02*
X40933390Y-53265714D01*
X40933390Y-53265714D02*
X40981009Y-53218095D01*
X40981009Y-53218095D02*
X41076247Y-53170476D01*
X44034580Y-90208333D02*
X44082200Y-90160714D01*
X44082200Y-90160714D02*
X44129819Y-90017857D01*
X44129819Y-90017857D02*
X44129819Y-89922619D01*
X44129819Y-89922619D02*
X44082200Y-89779762D01*
X44082200Y-89779762D02*
X43986961Y-89684524D01*
X43986961Y-89684524D02*
X43891723Y-89636905D01*
X43891723Y-89636905D02*
X43701247Y-89589286D01*
X43701247Y-89589286D02*
X43558390Y-89589286D01*
X43558390Y-89589286D02*
X43367914Y-89636905D01*
X43367914Y-89636905D02*
X43272676Y-89684524D01*
X43272676Y-89684524D02*
X43177438Y-89779762D01*
X43177438Y-89779762D02*
X43129819Y-89922619D01*
X43129819Y-89922619D02*
X43129819Y-90017857D01*
X43129819Y-90017857D02*
X43177438Y-90160714D01*
X43177438Y-90160714D02*
X43225057Y-90208333D01*
X44129819Y-91160714D02*
X44129819Y-90589286D01*
X44129819Y-90875000D02*
X43129819Y-90875000D01*
X43129819Y-90875000D02*
X43272676Y-90779762D01*
X43272676Y-90779762D02*
X43367914Y-90684524D01*
X43367914Y-90684524D02*
X43415533Y-90589286D01*
X54592857Y-97204819D02*
X54926190Y-96728628D01*
X55164285Y-97204819D02*
X55164285Y-96204819D01*
X55164285Y-96204819D02*
X54783333Y-96204819D01*
X54783333Y-96204819D02*
X54688095Y-96252438D01*
X54688095Y-96252438D02*
X54640476Y-96300057D01*
X54640476Y-96300057D02*
X54592857Y-96395295D01*
X54592857Y-96395295D02*
X54592857Y-96538152D01*
X54592857Y-96538152D02*
X54640476Y-96633390D01*
X54640476Y-96633390D02*
X54688095Y-96681009D01*
X54688095Y-96681009D02*
X54783333Y-96728628D01*
X54783333Y-96728628D02*
X55164285Y-96728628D01*
X53640476Y-97204819D02*
X54211904Y-97204819D01*
X53926190Y-97204819D02*
X53926190Y-96204819D01*
X53926190Y-96204819D02*
X54021428Y-96347676D01*
X54021428Y-96347676D02*
X54116666Y-96442914D01*
X54116666Y-96442914D02*
X54211904Y-96490533D01*
X52688095Y-97204819D02*
X53259523Y-97204819D01*
X52973809Y-97204819D02*
X52973809Y-96204819D01*
X52973809Y-96204819D02*
X53069047Y-96347676D01*
X53069047Y-96347676D02*
X53164285Y-96442914D01*
X53164285Y-96442914D02*
X53259523Y-96490533D01*
X28167857Y-44709580D02*
X28215476Y-44757200D01*
X28215476Y-44757200D02*
X28358333Y-44804819D01*
X28358333Y-44804819D02*
X28453571Y-44804819D01*
X28453571Y-44804819D02*
X28596428Y-44757200D01*
X28596428Y-44757200D02*
X28691666Y-44661961D01*
X28691666Y-44661961D02*
X28739285Y-44566723D01*
X28739285Y-44566723D02*
X28786904Y-44376247D01*
X28786904Y-44376247D02*
X28786904Y-44233390D01*
X28786904Y-44233390D02*
X28739285Y-44042914D01*
X28739285Y-44042914D02*
X28691666Y-43947676D01*
X28691666Y-43947676D02*
X28596428Y-43852438D01*
X28596428Y-43852438D02*
X28453571Y-43804819D01*
X28453571Y-43804819D02*
X28358333Y-43804819D01*
X28358333Y-43804819D02*
X28215476Y-43852438D01*
X28215476Y-43852438D02*
X28167857Y-43900057D01*
X27834523Y-43804819D02*
X27167857Y-43804819D01*
X27167857Y-43804819D02*
X27596428Y-44804819D01*
X26739285Y-44804819D02*
X26548809Y-44804819D01*
X26548809Y-44804819D02*
X26453571Y-44757200D01*
X26453571Y-44757200D02*
X26405952Y-44709580D01*
X26405952Y-44709580D02*
X26310714Y-44566723D01*
X26310714Y-44566723D02*
X26263095Y-44376247D01*
X26263095Y-44376247D02*
X26263095Y-43995295D01*
X26263095Y-43995295D02*
X26310714Y-43900057D01*
X26310714Y-43900057D02*
X26358333Y-43852438D01*
X26358333Y-43852438D02*
X26453571Y-43804819D01*
X26453571Y-43804819D02*
X26644047Y-43804819D01*
X26644047Y-43804819D02*
X26739285Y-43852438D01*
X26739285Y-43852438D02*
X26786904Y-43900057D01*
X26786904Y-43900057D02*
X26834523Y-43995295D01*
X26834523Y-43995295D02*
X26834523Y-44233390D01*
X26834523Y-44233390D02*
X26786904Y-44328628D01*
X26786904Y-44328628D02*
X26739285Y-44376247D01*
X26739285Y-44376247D02*
X26644047Y-44423866D01*
X26644047Y-44423866D02*
X26453571Y-44423866D01*
X26453571Y-44423866D02*
X26358333Y-44376247D01*
X26358333Y-44376247D02*
X26310714Y-44328628D01*
X26310714Y-44328628D02*
X26263095Y-44233390D01*
X47511904Y-65954819D02*
X47511904Y-66764342D01*
X47511904Y-66764342D02*
X47464285Y-66859580D01*
X47464285Y-66859580D02*
X47416666Y-66907200D01*
X47416666Y-66907200D02*
X47321428Y-66954819D01*
X47321428Y-66954819D02*
X47130952Y-66954819D01*
X47130952Y-66954819D02*
X47035714Y-66907200D01*
X47035714Y-66907200D02*
X46988095Y-66859580D01*
X46988095Y-66859580D02*
X46940476Y-66764342D01*
X46940476Y-66764342D02*
X46940476Y-65954819D01*
X45988095Y-65954819D02*
X46464285Y-65954819D01*
X46464285Y-65954819D02*
X46511904Y-66431009D01*
X46511904Y-66431009D02*
X46464285Y-66383390D01*
X46464285Y-66383390D02*
X46369047Y-66335771D01*
X46369047Y-66335771D02*
X46130952Y-66335771D01*
X46130952Y-66335771D02*
X46035714Y-66383390D01*
X46035714Y-66383390D02*
X45988095Y-66431009D01*
X45988095Y-66431009D02*
X45940476Y-66526247D01*
X45940476Y-66526247D02*
X45940476Y-66764342D01*
X45940476Y-66764342D02*
X45988095Y-66859580D01*
X45988095Y-66859580D02*
X46035714Y-66907200D01*
X46035714Y-66907200D02*
X46130952Y-66954819D01*
X46130952Y-66954819D02*
X46369047Y-66954819D01*
X46369047Y-66954819D02*
X46464285Y-66907200D01*
X46464285Y-66907200D02*
X46511904Y-66859580D01*
D11*
X34413094Y-115532419D02*
X34413094Y-114532419D01*
X34413094Y-114532419D02*
X34174999Y-114532419D01*
X34174999Y-114532419D02*
X34032142Y-114580038D01*
X34032142Y-114580038D02*
X33936904Y-114675276D01*
X33936904Y-114675276D02*
X33889285Y-114770514D01*
X33889285Y-114770514D02*
X33841666Y-114960990D01*
X33841666Y-114960990D02*
X33841666Y-115103847D01*
X33841666Y-115103847D02*
X33889285Y-115294323D01*
X33889285Y-115294323D02*
X33936904Y-115389561D01*
X33936904Y-115389561D02*
X34032142Y-115484800D01*
X34032142Y-115484800D02*
X34174999Y-115532419D01*
X34174999Y-115532419D02*
X34413094Y-115532419D01*
X32936904Y-114532419D02*
X33413094Y-114532419D01*
X33413094Y-114532419D02*
X33460713Y-115008609D01*
X33460713Y-115008609D02*
X33413094Y-114960990D01*
X33413094Y-114960990D02*
X33317856Y-114913371D01*
X33317856Y-114913371D02*
X33079761Y-114913371D01*
X33079761Y-114913371D02*
X32984523Y-114960990D01*
X32984523Y-114960990D02*
X32936904Y-115008609D01*
X32936904Y-115008609D02*
X32889285Y-115103847D01*
X32889285Y-115103847D02*
X32889285Y-115341942D01*
X32889285Y-115341942D02*
X32936904Y-115437180D01*
X32936904Y-115437180D02*
X32984523Y-115484800D01*
X32984523Y-115484800D02*
X33079761Y-115532419D01*
X33079761Y-115532419D02*
X33317856Y-115532419D01*
X33317856Y-115532419D02*
X33413094Y-115484800D01*
X33413094Y-115484800D02*
X33460713Y-115437180D01*
X47738094Y-77532419D02*
X47738094Y-76532419D01*
X47738094Y-76532419D02*
X47499999Y-76532419D01*
X47499999Y-76532419D02*
X47357142Y-76580038D01*
X47357142Y-76580038D02*
X47261904Y-76675276D01*
X47261904Y-76675276D02*
X47214285Y-76770514D01*
X47214285Y-76770514D02*
X47166666Y-76960990D01*
X47166666Y-76960990D02*
X47166666Y-77103847D01*
X47166666Y-77103847D02*
X47214285Y-77294323D01*
X47214285Y-77294323D02*
X47261904Y-77389561D01*
X47261904Y-77389561D02*
X47357142Y-77484800D01*
X47357142Y-77484800D02*
X47499999Y-77532419D01*
X47499999Y-77532419D02*
X47738094Y-77532419D01*
X46309523Y-76532419D02*
X46499999Y-76532419D01*
X46499999Y-76532419D02*
X46595237Y-76580038D01*
X46595237Y-76580038D02*
X46642856Y-76627657D01*
X46642856Y-76627657D02*
X46738094Y-76770514D01*
X46738094Y-76770514D02*
X46785713Y-76960990D01*
X46785713Y-76960990D02*
X46785713Y-77341942D01*
X46785713Y-77341942D02*
X46738094Y-77437180D01*
X46738094Y-77437180D02*
X46690475Y-77484800D01*
X46690475Y-77484800D02*
X46595237Y-77532419D01*
X46595237Y-77532419D02*
X46404761Y-77532419D01*
X46404761Y-77532419D02*
X46309523Y-77484800D01*
X46309523Y-77484800D02*
X46261904Y-77437180D01*
X46261904Y-77437180D02*
X46214285Y-77341942D01*
X46214285Y-77341942D02*
X46214285Y-77103847D01*
X46214285Y-77103847D02*
X46261904Y-77008609D01*
X46261904Y-77008609D02*
X46309523Y-76960990D01*
X46309523Y-76960990D02*
X46404761Y-76913371D01*
X46404761Y-76913371D02*
X46595237Y-76913371D01*
X46595237Y-76913371D02*
X46690475Y-76960990D01*
X46690475Y-76960990D02*
X46738094Y-77008609D01*
X46738094Y-77008609D02*
X46785713Y-77103847D01*
X52263094Y-100682419D02*
X52263094Y-99682419D01*
X52263094Y-99682419D02*
X52024999Y-99682419D01*
X52024999Y-99682419D02*
X51882142Y-99730038D01*
X51882142Y-99730038D02*
X51786904Y-99825276D01*
X51786904Y-99825276D02*
X51739285Y-99920514D01*
X51739285Y-99920514D02*
X51691666Y-100110990D01*
X51691666Y-100110990D02*
X51691666Y-100253847D01*
X51691666Y-100253847D02*
X51739285Y-100444323D01*
X51739285Y-100444323D02*
X51786904Y-100539561D01*
X51786904Y-100539561D02*
X51882142Y-100634800D01*
X51882142Y-100634800D02*
X52024999Y-100682419D01*
X52024999Y-100682419D02*
X52263094Y-100682419D01*
X51358332Y-99682419D02*
X50691666Y-99682419D01*
X50691666Y-99682419D02*
X51120237Y-100682419D01*
X34313094Y-100707419D02*
X34313094Y-99707419D01*
X34313094Y-99707419D02*
X34074999Y-99707419D01*
X34074999Y-99707419D02*
X33932142Y-99755038D01*
X33932142Y-99755038D02*
X33836904Y-99850276D01*
X33836904Y-99850276D02*
X33789285Y-99945514D01*
X33789285Y-99945514D02*
X33741666Y-100135990D01*
X33741666Y-100135990D02*
X33741666Y-100278847D01*
X33741666Y-100278847D02*
X33789285Y-100469323D01*
X33789285Y-100469323D02*
X33836904Y-100564561D01*
X33836904Y-100564561D02*
X33932142Y-100659800D01*
X33932142Y-100659800D02*
X34074999Y-100707419D01*
X34074999Y-100707419D02*
X34313094Y-100707419D01*
X33265475Y-100707419D02*
X33074999Y-100707419D01*
X33074999Y-100707419D02*
X32979761Y-100659800D01*
X32979761Y-100659800D02*
X32932142Y-100612180D01*
X32932142Y-100612180D02*
X32836904Y-100469323D01*
X32836904Y-100469323D02*
X32789285Y-100278847D01*
X32789285Y-100278847D02*
X32789285Y-99897895D01*
X32789285Y-99897895D02*
X32836904Y-99802657D01*
X32836904Y-99802657D02*
X32884523Y-99755038D01*
X32884523Y-99755038D02*
X32979761Y-99707419D01*
X32979761Y-99707419D02*
X33170237Y-99707419D01*
X33170237Y-99707419D02*
X33265475Y-99755038D01*
X33265475Y-99755038D02*
X33313094Y-99802657D01*
X33313094Y-99802657D02*
X33360713Y-99897895D01*
X33360713Y-99897895D02*
X33360713Y-100135990D01*
X33360713Y-100135990D02*
X33313094Y-100231228D01*
X33313094Y-100231228D02*
X33265475Y-100278847D01*
X33265475Y-100278847D02*
X33170237Y-100326466D01*
X33170237Y-100326466D02*
X32979761Y-100326466D01*
X32979761Y-100326466D02*
X32884523Y-100278847D01*
X32884523Y-100278847D02*
X32836904Y-100231228D01*
X32836904Y-100231228D02*
X32789285Y-100135990D01*
X39847625Y-44557419D02*
X39847625Y-45271704D01*
X39847625Y-45271704D02*
X39895244Y-45414561D01*
X39895244Y-45414561D02*
X39990482Y-45509800D01*
X39990482Y-45509800D02*
X40133339Y-45557419D01*
X40133339Y-45557419D02*
X40228577Y-45557419D01*
X39419053Y-44652657D02*
X39371434Y-44605038D01*
X39371434Y-44605038D02*
X39276196Y-44557419D01*
X39276196Y-44557419D02*
X39038101Y-44557419D01*
X39038101Y-44557419D02*
X38942863Y-44605038D01*
X38942863Y-44605038D02*
X38895244Y-44652657D01*
X38895244Y-44652657D02*
X38847625Y-44747895D01*
X38847625Y-44747895D02*
X38847625Y-44843133D01*
X38847625Y-44843133D02*
X38895244Y-44985990D01*
X38895244Y-44985990D02*
X39466672Y-45557419D01*
X39466672Y-45557419D02*
X38847625Y-45557419D01*
X38228577Y-44557419D02*
X38133339Y-44557419D01*
X38133339Y-44557419D02*
X38038101Y-44605038D01*
X38038101Y-44605038D02*
X37990482Y-44652657D01*
X37990482Y-44652657D02*
X37942863Y-44747895D01*
X37942863Y-44747895D02*
X37895244Y-44938371D01*
X37895244Y-44938371D02*
X37895244Y-45176466D01*
X37895244Y-45176466D02*
X37942863Y-45366942D01*
X37942863Y-45366942D02*
X37990482Y-45462180D01*
X37990482Y-45462180D02*
X38038101Y-45509800D01*
X38038101Y-45509800D02*
X38133339Y-45557419D01*
X38133339Y-45557419D02*
X38228577Y-45557419D01*
X38228577Y-45557419D02*
X38323815Y-45509800D01*
X38323815Y-45509800D02*
X38371434Y-45462180D01*
X38371434Y-45462180D02*
X38419053Y-45366942D01*
X38419053Y-45366942D02*
X38466672Y-45176466D01*
X38466672Y-45176466D02*
X38466672Y-44938371D01*
X38466672Y-44938371D02*
X38419053Y-44747895D01*
X38419053Y-44747895D02*
X38371434Y-44652657D01*
X38371434Y-44652657D02*
X38323815Y-44605038D01*
X38323815Y-44605038D02*
X38228577Y-44557419D01*
D10*
X42217857Y-74229819D02*
X42551190Y-73753628D01*
X42789285Y-74229819D02*
X42789285Y-73229819D01*
X42789285Y-73229819D02*
X42408333Y-73229819D01*
X42408333Y-73229819D02*
X42313095Y-73277438D01*
X42313095Y-73277438D02*
X42265476Y-73325057D01*
X42265476Y-73325057D02*
X42217857Y-73420295D01*
X42217857Y-73420295D02*
X42217857Y-73563152D01*
X42217857Y-73563152D02*
X42265476Y-73658390D01*
X42265476Y-73658390D02*
X42313095Y-73706009D01*
X42313095Y-73706009D02*
X42408333Y-73753628D01*
X42408333Y-73753628D02*
X42789285Y-73753628D01*
X41265476Y-74229819D02*
X41836904Y-74229819D01*
X41551190Y-74229819D02*
X41551190Y-73229819D01*
X41551190Y-73229819D02*
X41646428Y-73372676D01*
X41646428Y-73372676D02*
X41741666Y-73467914D01*
X41741666Y-73467914D02*
X41836904Y-73515533D01*
X40789285Y-74229819D02*
X40598809Y-74229819D01*
X40598809Y-74229819D02*
X40503571Y-74182200D01*
X40503571Y-74182200D02*
X40455952Y-74134580D01*
X40455952Y-74134580D02*
X40360714Y-73991723D01*
X40360714Y-73991723D02*
X40313095Y-73801247D01*
X40313095Y-73801247D02*
X40313095Y-73420295D01*
X40313095Y-73420295D02*
X40360714Y-73325057D01*
X40360714Y-73325057D02*
X40408333Y-73277438D01*
X40408333Y-73277438D02*
X40503571Y-73229819D01*
X40503571Y-73229819D02*
X40694047Y-73229819D01*
X40694047Y-73229819D02*
X40789285Y-73277438D01*
X40789285Y-73277438D02*
X40836904Y-73325057D01*
X40836904Y-73325057D02*
X40884523Y-73420295D01*
X40884523Y-73420295D02*
X40884523Y-73658390D01*
X40884523Y-73658390D02*
X40836904Y-73753628D01*
X40836904Y-73753628D02*
X40789285Y-73801247D01*
X40789285Y-73801247D02*
X40694047Y-73848866D01*
X40694047Y-73848866D02*
X40503571Y-73848866D01*
X40503571Y-73848866D02*
X40408333Y-73801247D01*
X40408333Y-73801247D02*
X40360714Y-73753628D01*
X40360714Y-73753628D02*
X40313095Y-73658390D01*
X35067857Y-74129819D02*
X35401190Y-73653628D01*
X35639285Y-74129819D02*
X35639285Y-73129819D01*
X35639285Y-73129819D02*
X35258333Y-73129819D01*
X35258333Y-73129819D02*
X35163095Y-73177438D01*
X35163095Y-73177438D02*
X35115476Y-73225057D01*
X35115476Y-73225057D02*
X35067857Y-73320295D01*
X35067857Y-73320295D02*
X35067857Y-73463152D01*
X35067857Y-73463152D02*
X35115476Y-73558390D01*
X35115476Y-73558390D02*
X35163095Y-73606009D01*
X35163095Y-73606009D02*
X35258333Y-73653628D01*
X35258333Y-73653628D02*
X35639285Y-73653628D01*
X34686904Y-73225057D02*
X34639285Y-73177438D01*
X34639285Y-73177438D02*
X34544047Y-73129819D01*
X34544047Y-73129819D02*
X34305952Y-73129819D01*
X34305952Y-73129819D02*
X34210714Y-73177438D01*
X34210714Y-73177438D02*
X34163095Y-73225057D01*
X34163095Y-73225057D02*
X34115476Y-73320295D01*
X34115476Y-73320295D02*
X34115476Y-73415533D01*
X34115476Y-73415533D02*
X34163095Y-73558390D01*
X34163095Y-73558390D02*
X34734523Y-74129819D01*
X34734523Y-74129819D02*
X34115476Y-74129819D01*
X33496428Y-73129819D02*
X33401190Y-73129819D01*
X33401190Y-73129819D02*
X33305952Y-73177438D01*
X33305952Y-73177438D02*
X33258333Y-73225057D01*
X33258333Y-73225057D02*
X33210714Y-73320295D01*
X33210714Y-73320295D02*
X33163095Y-73510771D01*
X33163095Y-73510771D02*
X33163095Y-73748866D01*
X33163095Y-73748866D02*
X33210714Y-73939342D01*
X33210714Y-73939342D02*
X33258333Y-74034580D01*
X33258333Y-74034580D02*
X33305952Y-74082200D01*
X33305952Y-74082200D02*
X33401190Y-74129819D01*
X33401190Y-74129819D02*
X33496428Y-74129819D01*
X33496428Y-74129819D02*
X33591666Y-74082200D01*
X33591666Y-74082200D02*
X33639285Y-74034580D01*
X33639285Y-74034580D02*
X33686904Y-73939342D01*
X33686904Y-73939342D02*
X33734523Y-73748866D01*
X33734523Y-73748866D02*
X33734523Y-73510771D01*
X33734523Y-73510771D02*
X33686904Y-73320295D01*
X33686904Y-73320295D02*
X33639285Y-73225057D01*
X33639285Y-73225057D02*
X33591666Y-73177438D01*
X33591666Y-73177438D02*
X33496428Y-73129819D01*
X50142857Y-65484580D02*
X50190476Y-65532200D01*
X50190476Y-65532200D02*
X50333333Y-65579819D01*
X50333333Y-65579819D02*
X50428571Y-65579819D01*
X50428571Y-65579819D02*
X50571428Y-65532200D01*
X50571428Y-65532200D02*
X50666666Y-65436961D01*
X50666666Y-65436961D02*
X50714285Y-65341723D01*
X50714285Y-65341723D02*
X50761904Y-65151247D01*
X50761904Y-65151247D02*
X50761904Y-65008390D01*
X50761904Y-65008390D02*
X50714285Y-64817914D01*
X50714285Y-64817914D02*
X50666666Y-64722676D01*
X50666666Y-64722676D02*
X50571428Y-64627438D01*
X50571428Y-64627438D02*
X50428571Y-64579819D01*
X50428571Y-64579819D02*
X50333333Y-64579819D01*
X50333333Y-64579819D02*
X50190476Y-64627438D01*
X50190476Y-64627438D02*
X50142857Y-64675057D01*
X49190476Y-65579819D02*
X49761904Y-65579819D01*
X49476190Y-65579819D02*
X49476190Y-64579819D01*
X49476190Y-64579819D02*
X49571428Y-64722676D01*
X49571428Y-64722676D02*
X49666666Y-64817914D01*
X49666666Y-64817914D02*
X49761904Y-64865533D01*
X48333333Y-64913152D02*
X48333333Y-65579819D01*
X48571428Y-64532200D02*
X48809523Y-65246485D01*
X48809523Y-65246485D02*
X48190476Y-65246485D01*
D11*
X38563094Y-77507419D02*
X38563094Y-76507419D01*
X38563094Y-76507419D02*
X38324999Y-76507419D01*
X38324999Y-76507419D02*
X38182142Y-76555038D01*
X38182142Y-76555038D02*
X38086904Y-76650276D01*
X38086904Y-76650276D02*
X38039285Y-76745514D01*
X38039285Y-76745514D02*
X37991666Y-76935990D01*
X37991666Y-76935990D02*
X37991666Y-77078847D01*
X37991666Y-77078847D02*
X38039285Y-77269323D01*
X38039285Y-77269323D02*
X38086904Y-77364561D01*
X38086904Y-77364561D02*
X38182142Y-77459800D01*
X38182142Y-77459800D02*
X38324999Y-77507419D01*
X38324999Y-77507419D02*
X38563094Y-77507419D01*
X37420237Y-76935990D02*
X37515475Y-76888371D01*
X37515475Y-76888371D02*
X37563094Y-76840752D01*
X37563094Y-76840752D02*
X37610713Y-76745514D01*
X37610713Y-76745514D02*
X37610713Y-76697895D01*
X37610713Y-76697895D02*
X37563094Y-76602657D01*
X37563094Y-76602657D02*
X37515475Y-76555038D01*
X37515475Y-76555038D02*
X37420237Y-76507419D01*
X37420237Y-76507419D02*
X37229761Y-76507419D01*
X37229761Y-76507419D02*
X37134523Y-76555038D01*
X37134523Y-76555038D02*
X37086904Y-76602657D01*
X37086904Y-76602657D02*
X37039285Y-76697895D01*
X37039285Y-76697895D02*
X37039285Y-76745514D01*
X37039285Y-76745514D02*
X37086904Y-76840752D01*
X37086904Y-76840752D02*
X37134523Y-76888371D01*
X37134523Y-76888371D02*
X37229761Y-76935990D01*
X37229761Y-76935990D02*
X37420237Y-76935990D01*
X37420237Y-76935990D02*
X37515475Y-76983609D01*
X37515475Y-76983609D02*
X37563094Y-77031228D01*
X37563094Y-77031228D02*
X37610713Y-77126466D01*
X37610713Y-77126466D02*
X37610713Y-77316942D01*
X37610713Y-77316942D02*
X37563094Y-77412180D01*
X37563094Y-77412180D02*
X37515475Y-77459800D01*
X37515475Y-77459800D02*
X37420237Y-77507419D01*
X37420237Y-77507419D02*
X37229761Y-77507419D01*
X37229761Y-77507419D02*
X37134523Y-77459800D01*
X37134523Y-77459800D02*
X37086904Y-77412180D01*
X37086904Y-77412180D02*
X37039285Y-77316942D01*
X37039285Y-77316942D02*
X37039285Y-77126466D01*
X37039285Y-77126466D02*
X37086904Y-77031228D01*
X37086904Y-77031228D02*
X37134523Y-76983609D01*
X37134523Y-76983609D02*
X37229761Y-76935990D01*
D10*
X49246666Y-54199580D02*
X49294285Y-54247200D01*
X49294285Y-54247200D02*
X49437142Y-54294819D01*
X49437142Y-54294819D02*
X49532380Y-54294819D01*
X49532380Y-54294819D02*
X49675237Y-54247200D01*
X49675237Y-54247200D02*
X49770475Y-54151961D01*
X49770475Y-54151961D02*
X49818094Y-54056723D01*
X49818094Y-54056723D02*
X49865713Y-53866247D01*
X49865713Y-53866247D02*
X49865713Y-53723390D01*
X49865713Y-53723390D02*
X49818094Y-53532914D01*
X49818094Y-53532914D02*
X49770475Y-53437676D01*
X49770475Y-53437676D02*
X49675237Y-53342438D01*
X49675237Y-53342438D02*
X49532380Y-53294819D01*
X49532380Y-53294819D02*
X49437142Y-53294819D01*
X49437142Y-53294819D02*
X49294285Y-53342438D01*
X49294285Y-53342438D02*
X49246666Y-53390057D01*
X48770475Y-54294819D02*
X48579999Y-54294819D01*
X48579999Y-54294819D02*
X48484761Y-54247200D01*
X48484761Y-54247200D02*
X48437142Y-54199580D01*
X48437142Y-54199580D02*
X48341904Y-54056723D01*
X48341904Y-54056723D02*
X48294285Y-53866247D01*
X48294285Y-53866247D02*
X48294285Y-53485295D01*
X48294285Y-53485295D02*
X48341904Y-53390057D01*
X48341904Y-53390057D02*
X48389523Y-53342438D01*
X48389523Y-53342438D02*
X48484761Y-53294819D01*
X48484761Y-53294819D02*
X48675237Y-53294819D01*
X48675237Y-53294819D02*
X48770475Y-53342438D01*
X48770475Y-53342438D02*
X48818094Y-53390057D01*
X48818094Y-53390057D02*
X48865713Y-53485295D01*
X48865713Y-53485295D02*
X48865713Y-53723390D01*
X48865713Y-53723390D02*
X48818094Y-53818628D01*
X48818094Y-53818628D02*
X48770475Y-53866247D01*
X48770475Y-53866247D02*
X48675237Y-53913866D01*
X48675237Y-53913866D02*
X48484761Y-53913866D01*
X48484761Y-53913866D02*
X48389523Y-53866247D01*
X48389523Y-53866247D02*
X48341904Y-53818628D01*
X48341904Y-53818628D02*
X48294285Y-53723390D01*
X55284580Y-58658333D02*
X55332200Y-58610714D01*
X55332200Y-58610714D02*
X55379819Y-58467857D01*
X55379819Y-58467857D02*
X55379819Y-58372619D01*
X55379819Y-58372619D02*
X55332200Y-58229762D01*
X55332200Y-58229762D02*
X55236961Y-58134524D01*
X55236961Y-58134524D02*
X55141723Y-58086905D01*
X55141723Y-58086905D02*
X54951247Y-58039286D01*
X54951247Y-58039286D02*
X54808390Y-58039286D01*
X54808390Y-58039286D02*
X54617914Y-58086905D01*
X54617914Y-58086905D02*
X54522676Y-58134524D01*
X54522676Y-58134524D02*
X54427438Y-58229762D01*
X54427438Y-58229762D02*
X54379819Y-58372619D01*
X54379819Y-58372619D02*
X54379819Y-58467857D01*
X54379819Y-58467857D02*
X54427438Y-58610714D01*
X54427438Y-58610714D02*
X54475057Y-58658333D01*
X54475057Y-59039286D02*
X54427438Y-59086905D01*
X54427438Y-59086905D02*
X54379819Y-59182143D01*
X54379819Y-59182143D02*
X54379819Y-59420238D01*
X54379819Y-59420238D02*
X54427438Y-59515476D01*
X54427438Y-59515476D02*
X54475057Y-59563095D01*
X54475057Y-59563095D02*
X54570295Y-59610714D01*
X54570295Y-59610714D02*
X54665533Y-59610714D01*
X54665533Y-59610714D02*
X54808390Y-59563095D01*
X54808390Y-59563095D02*
X55379819Y-58991667D01*
X55379819Y-58991667D02*
X55379819Y-59610714D01*
X41567857Y-77704819D02*
X41901190Y-77228628D01*
X42139285Y-77704819D02*
X42139285Y-76704819D01*
X42139285Y-76704819D02*
X41758333Y-76704819D01*
X41758333Y-76704819D02*
X41663095Y-76752438D01*
X41663095Y-76752438D02*
X41615476Y-76800057D01*
X41615476Y-76800057D02*
X41567857Y-76895295D01*
X41567857Y-76895295D02*
X41567857Y-77038152D01*
X41567857Y-77038152D02*
X41615476Y-77133390D01*
X41615476Y-77133390D02*
X41663095Y-77181009D01*
X41663095Y-77181009D02*
X41758333Y-77228628D01*
X41758333Y-77228628D02*
X42139285Y-77228628D01*
X40615476Y-77704819D02*
X41186904Y-77704819D01*
X40901190Y-77704819D02*
X40901190Y-76704819D01*
X40901190Y-76704819D02*
X40996428Y-76847676D01*
X40996428Y-76847676D02*
X41091666Y-76942914D01*
X41091666Y-76942914D02*
X41186904Y-76990533D01*
X40044047Y-77133390D02*
X40139285Y-77085771D01*
X40139285Y-77085771D02*
X40186904Y-77038152D01*
X40186904Y-77038152D02*
X40234523Y-76942914D01*
X40234523Y-76942914D02*
X40234523Y-76895295D01*
X40234523Y-76895295D02*
X40186904Y-76800057D01*
X40186904Y-76800057D02*
X40139285Y-76752438D01*
X40139285Y-76752438D02*
X40044047Y-76704819D01*
X40044047Y-76704819D02*
X39853571Y-76704819D01*
X39853571Y-76704819D02*
X39758333Y-76752438D01*
X39758333Y-76752438D02*
X39710714Y-76800057D01*
X39710714Y-76800057D02*
X39663095Y-76895295D01*
X39663095Y-76895295D02*
X39663095Y-76942914D01*
X39663095Y-76942914D02*
X39710714Y-77038152D01*
X39710714Y-77038152D02*
X39758333Y-77085771D01*
X39758333Y-77085771D02*
X39853571Y-77133390D01*
X39853571Y-77133390D02*
X40044047Y-77133390D01*
X40044047Y-77133390D02*
X40139285Y-77181009D01*
X40139285Y-77181009D02*
X40186904Y-77228628D01*
X40186904Y-77228628D02*
X40234523Y-77323866D01*
X40234523Y-77323866D02*
X40234523Y-77514342D01*
X40234523Y-77514342D02*
X40186904Y-77609580D01*
X40186904Y-77609580D02*
X40139285Y-77657200D01*
X40139285Y-77657200D02*
X40044047Y-77704819D01*
X40044047Y-77704819D02*
X39853571Y-77704819D01*
X39853571Y-77704819D02*
X39758333Y-77657200D01*
X39758333Y-77657200D02*
X39710714Y-77609580D01*
X39710714Y-77609580D02*
X39663095Y-77514342D01*
X39663095Y-77514342D02*
X39663095Y-77323866D01*
X39663095Y-77323866D02*
X39710714Y-77228628D01*
X39710714Y-77228628D02*
X39758333Y-77181009D01*
X39758333Y-77181009D02*
X39853571Y-77133390D01*
X51209580Y-56433333D02*
X51257200Y-56385714D01*
X51257200Y-56385714D02*
X51304819Y-56242857D01*
X51304819Y-56242857D02*
X51304819Y-56147619D01*
X51304819Y-56147619D02*
X51257200Y-56004762D01*
X51257200Y-56004762D02*
X51161961Y-55909524D01*
X51161961Y-55909524D02*
X51066723Y-55861905D01*
X51066723Y-55861905D02*
X50876247Y-55814286D01*
X50876247Y-55814286D02*
X50733390Y-55814286D01*
X50733390Y-55814286D02*
X50542914Y-55861905D01*
X50542914Y-55861905D02*
X50447676Y-55909524D01*
X50447676Y-55909524D02*
X50352438Y-56004762D01*
X50352438Y-56004762D02*
X50304819Y-56147619D01*
X50304819Y-56147619D02*
X50304819Y-56242857D01*
X50304819Y-56242857D02*
X50352438Y-56385714D01*
X50352438Y-56385714D02*
X50400057Y-56433333D01*
X50304819Y-57290476D02*
X50304819Y-57100000D01*
X50304819Y-57100000D02*
X50352438Y-57004762D01*
X50352438Y-57004762D02*
X50400057Y-56957143D01*
X50400057Y-56957143D02*
X50542914Y-56861905D01*
X50542914Y-56861905D02*
X50733390Y-56814286D01*
X50733390Y-56814286D02*
X51114342Y-56814286D01*
X51114342Y-56814286D02*
X51209580Y-56861905D01*
X51209580Y-56861905D02*
X51257200Y-56909524D01*
X51257200Y-56909524D02*
X51304819Y-57004762D01*
X51304819Y-57004762D02*
X51304819Y-57195238D01*
X51304819Y-57195238D02*
X51257200Y-57290476D01*
X51257200Y-57290476D02*
X51209580Y-57338095D01*
X51209580Y-57338095D02*
X51114342Y-57385714D01*
X51114342Y-57385714D02*
X50876247Y-57385714D01*
X50876247Y-57385714D02*
X50781009Y-57338095D01*
X50781009Y-57338095D02*
X50733390Y-57290476D01*
X50733390Y-57290476D02*
X50685771Y-57195238D01*
X50685771Y-57195238D02*
X50685771Y-57004762D01*
X50685771Y-57004762D02*
X50733390Y-56909524D01*
X50733390Y-56909524D02*
X50781009Y-56861905D01*
X50781009Y-56861905D02*
X50876247Y-56814286D01*
X37467857Y-100779819D02*
X37801190Y-100303628D01*
X38039285Y-100779819D02*
X38039285Y-99779819D01*
X38039285Y-99779819D02*
X37658333Y-99779819D01*
X37658333Y-99779819D02*
X37563095Y-99827438D01*
X37563095Y-99827438D02*
X37515476Y-99875057D01*
X37515476Y-99875057D02*
X37467857Y-99970295D01*
X37467857Y-99970295D02*
X37467857Y-100113152D01*
X37467857Y-100113152D02*
X37515476Y-100208390D01*
X37515476Y-100208390D02*
X37563095Y-100256009D01*
X37563095Y-100256009D02*
X37658333Y-100303628D01*
X37658333Y-100303628D02*
X38039285Y-100303628D01*
X36515476Y-100779819D02*
X37086904Y-100779819D01*
X36801190Y-100779819D02*
X36801190Y-99779819D01*
X36801190Y-99779819D02*
X36896428Y-99922676D01*
X36896428Y-99922676D02*
X36991666Y-100017914D01*
X36991666Y-100017914D02*
X37086904Y-100065533D01*
X36182142Y-99779819D02*
X35563095Y-99779819D01*
X35563095Y-99779819D02*
X35896428Y-100160771D01*
X35896428Y-100160771D02*
X35753571Y-100160771D01*
X35753571Y-100160771D02*
X35658333Y-100208390D01*
X35658333Y-100208390D02*
X35610714Y-100256009D01*
X35610714Y-100256009D02*
X35563095Y-100351247D01*
X35563095Y-100351247D02*
X35563095Y-100589342D01*
X35563095Y-100589342D02*
X35610714Y-100684580D01*
X35610714Y-100684580D02*
X35658333Y-100732200D01*
X35658333Y-100732200D02*
X35753571Y-100779819D01*
X35753571Y-100779819D02*
X36039285Y-100779819D01*
X36039285Y-100779819D02*
X36134523Y-100732200D01*
X36134523Y-100732200D02*
X36182142Y-100684580D01*
X32809523Y-44579819D02*
X32809523Y-45294104D01*
X32809523Y-45294104D02*
X32857142Y-45436961D01*
X32857142Y-45436961D02*
X32952380Y-45532200D01*
X32952380Y-45532200D02*
X33095237Y-45579819D01*
X33095237Y-45579819D02*
X33190475Y-45579819D01*
X32333332Y-45579819D02*
X32333332Y-44579819D01*
X32333332Y-44579819D02*
X31952380Y-44579819D01*
X31952380Y-44579819D02*
X31857142Y-44627438D01*
X31857142Y-44627438D02*
X31809523Y-44675057D01*
X31809523Y-44675057D02*
X31761904Y-44770295D01*
X31761904Y-44770295D02*
X31761904Y-44913152D01*
X31761904Y-44913152D02*
X31809523Y-45008390D01*
X31809523Y-45008390D02*
X31857142Y-45056009D01*
X31857142Y-45056009D02*
X31952380Y-45103628D01*
X31952380Y-45103628D02*
X32333332Y-45103628D01*
X30809523Y-45579819D02*
X31380951Y-45579819D01*
X31095237Y-45579819D02*
X31095237Y-44579819D01*
X31095237Y-44579819D02*
X31190475Y-44722676D01*
X31190475Y-44722676D02*
X31285713Y-44817914D01*
X31285713Y-44817914D02*
X31380951Y-44865533D01*
X30476189Y-44579819D02*
X29809523Y-44579819D01*
X29809523Y-44579819D02*
X30238094Y-45579819D01*
X36267857Y-64934580D02*
X36315476Y-64982200D01*
X36315476Y-64982200D02*
X36458333Y-65029819D01*
X36458333Y-65029819D02*
X36553571Y-65029819D01*
X36553571Y-65029819D02*
X36696428Y-64982200D01*
X36696428Y-64982200D02*
X36791666Y-64886961D01*
X36791666Y-64886961D02*
X36839285Y-64791723D01*
X36839285Y-64791723D02*
X36886904Y-64601247D01*
X36886904Y-64601247D02*
X36886904Y-64458390D01*
X36886904Y-64458390D02*
X36839285Y-64267914D01*
X36839285Y-64267914D02*
X36791666Y-64172676D01*
X36791666Y-64172676D02*
X36696428Y-64077438D01*
X36696428Y-64077438D02*
X36553571Y-64029819D01*
X36553571Y-64029819D02*
X36458333Y-64029819D01*
X36458333Y-64029819D02*
X36315476Y-64077438D01*
X36315476Y-64077438D02*
X36267857Y-64125057D01*
X35886904Y-64125057D02*
X35839285Y-64077438D01*
X35839285Y-64077438D02*
X35744047Y-64029819D01*
X35744047Y-64029819D02*
X35505952Y-64029819D01*
X35505952Y-64029819D02*
X35410714Y-64077438D01*
X35410714Y-64077438D02*
X35363095Y-64125057D01*
X35363095Y-64125057D02*
X35315476Y-64220295D01*
X35315476Y-64220295D02*
X35315476Y-64315533D01*
X35315476Y-64315533D02*
X35363095Y-64458390D01*
X35363095Y-64458390D02*
X35934523Y-65029819D01*
X35934523Y-65029819D02*
X35315476Y-65029819D01*
X34363095Y-65029819D02*
X34934523Y-65029819D01*
X34648809Y-65029819D02*
X34648809Y-64029819D01*
X34648809Y-64029819D02*
X34744047Y-64172676D01*
X34744047Y-64172676D02*
X34839285Y-64267914D01*
X34839285Y-64267914D02*
X34934523Y-64315533D01*
X52029819Y-65383333D02*
X51553628Y-65050000D01*
X52029819Y-64811905D02*
X51029819Y-64811905D01*
X51029819Y-64811905D02*
X51029819Y-65192857D01*
X51029819Y-65192857D02*
X51077438Y-65288095D01*
X51077438Y-65288095D02*
X51125057Y-65335714D01*
X51125057Y-65335714D02*
X51220295Y-65383333D01*
X51220295Y-65383333D02*
X51363152Y-65383333D01*
X51363152Y-65383333D02*
X51458390Y-65335714D01*
X51458390Y-65335714D02*
X51506009Y-65288095D01*
X51506009Y-65288095D02*
X51553628Y-65192857D01*
X51553628Y-65192857D02*
X51553628Y-64811905D01*
X52029819Y-65859524D02*
X52029819Y-66050000D01*
X52029819Y-66050000D02*
X51982200Y-66145238D01*
X51982200Y-66145238D02*
X51934580Y-66192857D01*
X51934580Y-66192857D02*
X51791723Y-66288095D01*
X51791723Y-66288095D02*
X51601247Y-66335714D01*
X51601247Y-66335714D02*
X51220295Y-66335714D01*
X51220295Y-66335714D02*
X51125057Y-66288095D01*
X51125057Y-66288095D02*
X51077438Y-66240476D01*
X51077438Y-66240476D02*
X51029819Y-66145238D01*
X51029819Y-66145238D02*
X51029819Y-65954762D01*
X51029819Y-65954762D02*
X51077438Y-65859524D01*
X51077438Y-65859524D02*
X51125057Y-65811905D01*
X51125057Y-65811905D02*
X51220295Y-65764286D01*
X51220295Y-65764286D02*
X51458390Y-65764286D01*
X51458390Y-65764286D02*
X51553628Y-65811905D01*
X51553628Y-65811905D02*
X51601247Y-65859524D01*
X51601247Y-65859524D02*
X51648866Y-65954762D01*
X51648866Y-65954762D02*
X51648866Y-66145238D01*
X51648866Y-66145238D02*
X51601247Y-66240476D01*
X51601247Y-66240476D02*
X51553628Y-66288095D01*
X51553628Y-66288095D02*
X51458390Y-66335714D01*
X40734580Y-69357142D02*
X40782200Y-69309523D01*
X40782200Y-69309523D02*
X40829819Y-69166666D01*
X40829819Y-69166666D02*
X40829819Y-69071428D01*
X40829819Y-69071428D02*
X40782200Y-68928571D01*
X40782200Y-68928571D02*
X40686961Y-68833333D01*
X40686961Y-68833333D02*
X40591723Y-68785714D01*
X40591723Y-68785714D02*
X40401247Y-68738095D01*
X40401247Y-68738095D02*
X40258390Y-68738095D01*
X40258390Y-68738095D02*
X40067914Y-68785714D01*
X40067914Y-68785714D02*
X39972676Y-68833333D01*
X39972676Y-68833333D02*
X39877438Y-68928571D01*
X39877438Y-68928571D02*
X39829819Y-69071428D01*
X39829819Y-69071428D02*
X39829819Y-69166666D01*
X39829819Y-69166666D02*
X39877438Y-69309523D01*
X39877438Y-69309523D02*
X39925057Y-69357142D01*
X40829819Y-70309523D02*
X40829819Y-69738095D01*
X40829819Y-70023809D02*
X39829819Y-70023809D01*
X39829819Y-70023809D02*
X39972676Y-69928571D01*
X39972676Y-69928571D02*
X40067914Y-69833333D01*
X40067914Y-69833333D02*
X40115533Y-69738095D01*
X39829819Y-70642857D02*
X39829819Y-71309523D01*
X39829819Y-71309523D02*
X40829819Y-70880952D01*
X57954819Y-72257142D02*
X57478628Y-71923809D01*
X57954819Y-71685714D02*
X56954819Y-71685714D01*
X56954819Y-71685714D02*
X56954819Y-72066666D01*
X56954819Y-72066666D02*
X57002438Y-72161904D01*
X57002438Y-72161904D02*
X57050057Y-72209523D01*
X57050057Y-72209523D02*
X57145295Y-72257142D01*
X57145295Y-72257142D02*
X57288152Y-72257142D01*
X57288152Y-72257142D02*
X57383390Y-72209523D01*
X57383390Y-72209523D02*
X57431009Y-72161904D01*
X57431009Y-72161904D02*
X57478628Y-72066666D01*
X57478628Y-72066666D02*
X57478628Y-71685714D01*
X57050057Y-72638095D02*
X57002438Y-72685714D01*
X57002438Y-72685714D02*
X56954819Y-72780952D01*
X56954819Y-72780952D02*
X56954819Y-73019047D01*
X56954819Y-73019047D02*
X57002438Y-73114285D01*
X57002438Y-73114285D02*
X57050057Y-73161904D01*
X57050057Y-73161904D02*
X57145295Y-73209523D01*
X57145295Y-73209523D02*
X57240533Y-73209523D01*
X57240533Y-73209523D02*
X57383390Y-73161904D01*
X57383390Y-73161904D02*
X57954819Y-72590476D01*
X57954819Y-72590476D02*
X57954819Y-73209523D01*
X57383390Y-73780952D02*
X57335771Y-73685714D01*
X57335771Y-73685714D02*
X57288152Y-73638095D01*
X57288152Y-73638095D02*
X57192914Y-73590476D01*
X57192914Y-73590476D02*
X57145295Y-73590476D01*
X57145295Y-73590476D02*
X57050057Y-73638095D01*
X57050057Y-73638095D02*
X57002438Y-73685714D01*
X57002438Y-73685714D02*
X56954819Y-73780952D01*
X56954819Y-73780952D02*
X56954819Y-73971428D01*
X56954819Y-73971428D02*
X57002438Y-74066666D01*
X57002438Y-74066666D02*
X57050057Y-74114285D01*
X57050057Y-74114285D02*
X57145295Y-74161904D01*
X57145295Y-74161904D02*
X57192914Y-74161904D01*
X57192914Y-74161904D02*
X57288152Y-74114285D01*
X57288152Y-74114285D02*
X57335771Y-74066666D01*
X57335771Y-74066666D02*
X57383390Y-73971428D01*
X57383390Y-73971428D02*
X57383390Y-73780952D01*
X57383390Y-73780952D02*
X57431009Y-73685714D01*
X57431009Y-73685714D02*
X57478628Y-73638095D01*
X57478628Y-73638095D02*
X57573866Y-73590476D01*
X57573866Y-73590476D02*
X57764342Y-73590476D01*
X57764342Y-73590476D02*
X57859580Y-73638095D01*
X57859580Y-73638095D02*
X57907200Y-73685714D01*
X57907200Y-73685714D02*
X57954819Y-73780952D01*
X57954819Y-73780952D02*
X57954819Y-73971428D01*
X57954819Y-73971428D02*
X57907200Y-74066666D01*
X57907200Y-74066666D02*
X57859580Y-74114285D01*
X57859580Y-74114285D02*
X57764342Y-74161904D01*
X57764342Y-74161904D02*
X57573866Y-74161904D01*
X57573866Y-74161904D02*
X57478628Y-74114285D01*
X57478628Y-74114285D02*
X57431009Y-74066666D01*
X57431009Y-74066666D02*
X57383390Y-73971428D01*
D11*
X37883332Y-26159800D02*
X37740475Y-26207419D01*
X37740475Y-26207419D02*
X37502380Y-26207419D01*
X37502380Y-26207419D02*
X37407142Y-26159800D01*
X37407142Y-26159800D02*
X37359523Y-26112180D01*
X37359523Y-26112180D02*
X37311904Y-26016942D01*
X37311904Y-26016942D02*
X37311904Y-25921704D01*
X37311904Y-25921704D02*
X37359523Y-25826466D01*
X37359523Y-25826466D02*
X37407142Y-25778847D01*
X37407142Y-25778847D02*
X37502380Y-25731228D01*
X37502380Y-25731228D02*
X37692856Y-25683609D01*
X37692856Y-25683609D02*
X37788094Y-25635990D01*
X37788094Y-25635990D02*
X37835713Y-25588371D01*
X37835713Y-25588371D02*
X37883332Y-25493133D01*
X37883332Y-25493133D02*
X37883332Y-25397895D01*
X37883332Y-25397895D02*
X37835713Y-25302657D01*
X37835713Y-25302657D02*
X37788094Y-25255038D01*
X37788094Y-25255038D02*
X37692856Y-25207419D01*
X37692856Y-25207419D02*
X37454761Y-25207419D01*
X37454761Y-25207419D02*
X37311904Y-25255038D01*
X36978570Y-25207419D02*
X36740475Y-26207419D01*
X36740475Y-26207419D02*
X36549999Y-25493133D01*
X36549999Y-25493133D02*
X36359523Y-26207419D01*
X36359523Y-26207419D02*
X36121428Y-25207419D01*
X35216666Y-26207419D02*
X35788094Y-26207419D01*
X35502380Y-26207419D02*
X35502380Y-25207419D01*
X35502380Y-25207419D02*
X35597618Y-25350276D01*
X35597618Y-25350276D02*
X35692856Y-25445514D01*
X35692856Y-25445514D02*
X35788094Y-25493133D01*
D10*
X25966666Y-62584580D02*
X26014285Y-62632200D01*
X26014285Y-62632200D02*
X26157142Y-62679819D01*
X26157142Y-62679819D02*
X26252380Y-62679819D01*
X26252380Y-62679819D02*
X26395237Y-62632200D01*
X26395237Y-62632200D02*
X26490475Y-62536961D01*
X26490475Y-62536961D02*
X26538094Y-62441723D01*
X26538094Y-62441723D02*
X26585713Y-62251247D01*
X26585713Y-62251247D02*
X26585713Y-62108390D01*
X26585713Y-62108390D02*
X26538094Y-61917914D01*
X26538094Y-61917914D02*
X26490475Y-61822676D01*
X26490475Y-61822676D02*
X26395237Y-61727438D01*
X26395237Y-61727438D02*
X26252380Y-61679819D01*
X26252380Y-61679819D02*
X26157142Y-61679819D01*
X26157142Y-61679819D02*
X26014285Y-61727438D01*
X26014285Y-61727438D02*
X25966666Y-61775057D01*
X25109523Y-62013152D02*
X25109523Y-62679819D01*
X25347618Y-61632200D02*
X25585713Y-62346485D01*
X25585713Y-62346485D02*
X24966666Y-62346485D01*
X33717857Y-95679819D02*
X34051190Y-95203628D01*
X34289285Y-95679819D02*
X34289285Y-94679819D01*
X34289285Y-94679819D02*
X33908333Y-94679819D01*
X33908333Y-94679819D02*
X33813095Y-94727438D01*
X33813095Y-94727438D02*
X33765476Y-94775057D01*
X33765476Y-94775057D02*
X33717857Y-94870295D01*
X33717857Y-94870295D02*
X33717857Y-95013152D01*
X33717857Y-95013152D02*
X33765476Y-95108390D01*
X33765476Y-95108390D02*
X33813095Y-95156009D01*
X33813095Y-95156009D02*
X33908333Y-95203628D01*
X33908333Y-95203628D02*
X34289285Y-95203628D01*
X32765476Y-95679819D02*
X33336904Y-95679819D01*
X33051190Y-95679819D02*
X33051190Y-94679819D01*
X33051190Y-94679819D02*
X33146428Y-94822676D01*
X33146428Y-94822676D02*
X33241666Y-94917914D01*
X33241666Y-94917914D02*
X33336904Y-94965533D01*
X31860714Y-94679819D02*
X32336904Y-94679819D01*
X32336904Y-94679819D02*
X32384523Y-95156009D01*
X32384523Y-95156009D02*
X32336904Y-95108390D01*
X32336904Y-95108390D02*
X32241666Y-95060771D01*
X32241666Y-95060771D02*
X32003571Y-95060771D01*
X32003571Y-95060771D02*
X31908333Y-95108390D01*
X31908333Y-95108390D02*
X31860714Y-95156009D01*
X31860714Y-95156009D02*
X31813095Y-95251247D01*
X31813095Y-95251247D02*
X31813095Y-95489342D01*
X31813095Y-95489342D02*
X31860714Y-95584580D01*
X31860714Y-95584580D02*
X31908333Y-95632200D01*
X31908333Y-95632200D02*
X32003571Y-95679819D01*
X32003571Y-95679819D02*
X32241666Y-95679819D01*
X32241666Y-95679819D02*
X32336904Y-95632200D01*
X32336904Y-95632200D02*
X32384523Y-95584580D01*
X27966666Y-64784580D02*
X28014285Y-64832200D01*
X28014285Y-64832200D02*
X28157142Y-64879819D01*
X28157142Y-64879819D02*
X28252380Y-64879819D01*
X28252380Y-64879819D02*
X28395237Y-64832200D01*
X28395237Y-64832200D02*
X28490475Y-64736961D01*
X28490475Y-64736961D02*
X28538094Y-64641723D01*
X28538094Y-64641723D02*
X28585713Y-64451247D01*
X28585713Y-64451247D02*
X28585713Y-64308390D01*
X28585713Y-64308390D02*
X28538094Y-64117914D01*
X28538094Y-64117914D02*
X28490475Y-64022676D01*
X28490475Y-64022676D02*
X28395237Y-63927438D01*
X28395237Y-63927438D02*
X28252380Y-63879819D01*
X28252380Y-63879819D02*
X28157142Y-63879819D01*
X28157142Y-63879819D02*
X28014285Y-63927438D01*
X28014285Y-63927438D02*
X27966666Y-63975057D01*
X27633332Y-63879819D02*
X27014285Y-63879819D01*
X27014285Y-63879819D02*
X27347618Y-64260771D01*
X27347618Y-64260771D02*
X27204761Y-64260771D01*
X27204761Y-64260771D02*
X27109523Y-64308390D01*
X27109523Y-64308390D02*
X27061904Y-64356009D01*
X27061904Y-64356009D02*
X27014285Y-64451247D01*
X27014285Y-64451247D02*
X27014285Y-64689342D01*
X27014285Y-64689342D02*
X27061904Y-64784580D01*
X27061904Y-64784580D02*
X27109523Y-64832200D01*
X27109523Y-64832200D02*
X27204761Y-64879819D01*
X27204761Y-64879819D02*
X27490475Y-64879819D01*
X27490475Y-64879819D02*
X27585713Y-64832200D01*
X27585713Y-64832200D02*
X27633332Y-64784580D01*
X33241666Y-60129819D02*
X33574999Y-59653628D01*
X33813094Y-60129819D02*
X33813094Y-59129819D01*
X33813094Y-59129819D02*
X33432142Y-59129819D01*
X33432142Y-59129819D02*
X33336904Y-59177438D01*
X33336904Y-59177438D02*
X33289285Y-59225057D01*
X33289285Y-59225057D02*
X33241666Y-59320295D01*
X33241666Y-59320295D02*
X33241666Y-59463152D01*
X33241666Y-59463152D02*
X33289285Y-59558390D01*
X33289285Y-59558390D02*
X33336904Y-59606009D01*
X33336904Y-59606009D02*
X33432142Y-59653628D01*
X33432142Y-59653628D02*
X33813094Y-59653628D01*
X32860713Y-59225057D02*
X32813094Y-59177438D01*
X32813094Y-59177438D02*
X32717856Y-59129819D01*
X32717856Y-59129819D02*
X32479761Y-59129819D01*
X32479761Y-59129819D02*
X32384523Y-59177438D01*
X32384523Y-59177438D02*
X32336904Y-59225057D01*
X32336904Y-59225057D02*
X32289285Y-59320295D01*
X32289285Y-59320295D02*
X32289285Y-59415533D01*
X32289285Y-59415533D02*
X32336904Y-59558390D01*
X32336904Y-59558390D02*
X32908332Y-60129819D01*
X32908332Y-60129819D02*
X32289285Y-60129819D01*
X27483333Y-32379819D02*
X27483333Y-33094104D01*
X27483333Y-33094104D02*
X27530952Y-33236961D01*
X27530952Y-33236961D02*
X27626190Y-33332200D01*
X27626190Y-33332200D02*
X27769047Y-33379819D01*
X27769047Y-33379819D02*
X27864285Y-33379819D01*
X27007142Y-33379819D02*
X27007142Y-32379819D01*
X27007142Y-32379819D02*
X26626190Y-32379819D01*
X26626190Y-32379819D02*
X26530952Y-32427438D01*
X26530952Y-32427438D02*
X26483333Y-32475057D01*
X26483333Y-32475057D02*
X26435714Y-32570295D01*
X26435714Y-32570295D02*
X26435714Y-32713152D01*
X26435714Y-32713152D02*
X26483333Y-32808390D01*
X26483333Y-32808390D02*
X26530952Y-32856009D01*
X26530952Y-32856009D02*
X26626190Y-32903628D01*
X26626190Y-32903628D02*
X27007142Y-32903628D01*
X26054761Y-32475057D02*
X26007142Y-32427438D01*
X26007142Y-32427438D02*
X25911904Y-32379819D01*
X25911904Y-32379819D02*
X25673809Y-32379819D01*
X25673809Y-32379819D02*
X25578571Y-32427438D01*
X25578571Y-32427438D02*
X25530952Y-32475057D01*
X25530952Y-32475057D02*
X25483333Y-32570295D01*
X25483333Y-32570295D02*
X25483333Y-32665533D01*
X25483333Y-32665533D02*
X25530952Y-32808390D01*
X25530952Y-32808390D02*
X26102380Y-33379819D01*
X26102380Y-33379819D02*
X25483333Y-33379819D01*
X42836904Y-79979819D02*
X42836904Y-80789342D01*
X42836904Y-80789342D02*
X42789285Y-80884580D01*
X42789285Y-80884580D02*
X42741666Y-80932200D01*
X42741666Y-80932200D02*
X42646428Y-80979819D01*
X42646428Y-80979819D02*
X42455952Y-80979819D01*
X42455952Y-80979819D02*
X42360714Y-80932200D01*
X42360714Y-80932200D02*
X42313095Y-80884580D01*
X42313095Y-80884580D02*
X42265476Y-80789342D01*
X42265476Y-80789342D02*
X42265476Y-79979819D01*
X41360714Y-80313152D02*
X41360714Y-80979819D01*
X41598809Y-79932200D02*
X41836904Y-80646485D01*
X41836904Y-80646485D02*
X41217857Y-80646485D01*
X33842857Y-62309580D02*
X33890476Y-62357200D01*
X33890476Y-62357200D02*
X34033333Y-62404819D01*
X34033333Y-62404819D02*
X34128571Y-62404819D01*
X34128571Y-62404819D02*
X34271428Y-62357200D01*
X34271428Y-62357200D02*
X34366666Y-62261961D01*
X34366666Y-62261961D02*
X34414285Y-62166723D01*
X34414285Y-62166723D02*
X34461904Y-61976247D01*
X34461904Y-61976247D02*
X34461904Y-61833390D01*
X34461904Y-61833390D02*
X34414285Y-61642914D01*
X34414285Y-61642914D02*
X34366666Y-61547676D01*
X34366666Y-61547676D02*
X34271428Y-61452438D01*
X34271428Y-61452438D02*
X34128571Y-61404819D01*
X34128571Y-61404819D02*
X34033333Y-61404819D01*
X34033333Y-61404819D02*
X33890476Y-61452438D01*
X33890476Y-61452438D02*
X33842857Y-61500057D01*
X32890476Y-62404819D02*
X33461904Y-62404819D01*
X33176190Y-62404819D02*
X33176190Y-61404819D01*
X33176190Y-61404819D02*
X33271428Y-61547676D01*
X33271428Y-61547676D02*
X33366666Y-61642914D01*
X33366666Y-61642914D02*
X33461904Y-61690533D01*
X32557142Y-61404819D02*
X31938095Y-61404819D01*
X31938095Y-61404819D02*
X32271428Y-61785771D01*
X32271428Y-61785771D02*
X32128571Y-61785771D01*
X32128571Y-61785771D02*
X32033333Y-61833390D01*
X32033333Y-61833390D02*
X31985714Y-61881009D01*
X31985714Y-61881009D02*
X31938095Y-61976247D01*
X31938095Y-61976247D02*
X31938095Y-62214342D01*
X31938095Y-62214342D02*
X31985714Y-62309580D01*
X31985714Y-62309580D02*
X32033333Y-62357200D01*
X32033333Y-62357200D02*
X32128571Y-62404819D01*
X32128571Y-62404819D02*
X32414285Y-62404819D01*
X32414285Y-62404819D02*
X32509523Y-62357200D01*
X32509523Y-62357200D02*
X32557142Y-62309580D01*
X37367857Y-96804819D02*
X37701190Y-96328628D01*
X37939285Y-96804819D02*
X37939285Y-95804819D01*
X37939285Y-95804819D02*
X37558333Y-95804819D01*
X37558333Y-95804819D02*
X37463095Y-95852438D01*
X37463095Y-95852438D02*
X37415476Y-95900057D01*
X37415476Y-95900057D02*
X37367857Y-95995295D01*
X37367857Y-95995295D02*
X37367857Y-96138152D01*
X37367857Y-96138152D02*
X37415476Y-96233390D01*
X37415476Y-96233390D02*
X37463095Y-96281009D01*
X37463095Y-96281009D02*
X37558333Y-96328628D01*
X37558333Y-96328628D02*
X37939285Y-96328628D01*
X36415476Y-96804819D02*
X36986904Y-96804819D01*
X36701190Y-96804819D02*
X36701190Y-95804819D01*
X36701190Y-95804819D02*
X36796428Y-95947676D01*
X36796428Y-95947676D02*
X36891666Y-96042914D01*
X36891666Y-96042914D02*
X36986904Y-96090533D01*
X35558333Y-96138152D02*
X35558333Y-96804819D01*
X35796428Y-95757200D02*
X36034523Y-96471485D01*
X36034523Y-96471485D02*
X35415476Y-96471485D01*
D11*
X44933333Y-120782419D02*
X44933333Y-121496704D01*
X44933333Y-121496704D02*
X44980952Y-121639561D01*
X44980952Y-121639561D02*
X45076190Y-121734800D01*
X45076190Y-121734800D02*
X45219047Y-121782419D01*
X45219047Y-121782419D02*
X45314285Y-121782419D01*
X44028571Y-121115752D02*
X44028571Y-121782419D01*
X44266666Y-120734800D02*
X44504761Y-121449085D01*
X44504761Y-121449085D02*
X43885714Y-121449085D01*
D10*
X47159580Y-49832142D02*
X47207200Y-49784523D01*
X47207200Y-49784523D02*
X47254819Y-49641666D01*
X47254819Y-49641666D02*
X47254819Y-49546428D01*
X47254819Y-49546428D02*
X47207200Y-49403571D01*
X47207200Y-49403571D02*
X47111961Y-49308333D01*
X47111961Y-49308333D02*
X47016723Y-49260714D01*
X47016723Y-49260714D02*
X46826247Y-49213095D01*
X46826247Y-49213095D02*
X46683390Y-49213095D01*
X46683390Y-49213095D02*
X46492914Y-49260714D01*
X46492914Y-49260714D02*
X46397676Y-49308333D01*
X46397676Y-49308333D02*
X46302438Y-49403571D01*
X46302438Y-49403571D02*
X46254819Y-49546428D01*
X46254819Y-49546428D02*
X46254819Y-49641666D01*
X46254819Y-49641666D02*
X46302438Y-49784523D01*
X46302438Y-49784523D02*
X46350057Y-49832142D01*
X46350057Y-50213095D02*
X46302438Y-50260714D01*
X46302438Y-50260714D02*
X46254819Y-50355952D01*
X46254819Y-50355952D02*
X46254819Y-50594047D01*
X46254819Y-50594047D02*
X46302438Y-50689285D01*
X46302438Y-50689285D02*
X46350057Y-50736904D01*
X46350057Y-50736904D02*
X46445295Y-50784523D01*
X46445295Y-50784523D02*
X46540533Y-50784523D01*
X46540533Y-50784523D02*
X46683390Y-50736904D01*
X46683390Y-50736904D02*
X47254819Y-50165476D01*
X47254819Y-50165476D02*
X47254819Y-50784523D01*
X46254819Y-51403571D02*
X46254819Y-51498809D01*
X46254819Y-51498809D02*
X46302438Y-51594047D01*
X46302438Y-51594047D02*
X46350057Y-51641666D01*
X46350057Y-51641666D02*
X46445295Y-51689285D01*
X46445295Y-51689285D02*
X46635771Y-51736904D01*
X46635771Y-51736904D02*
X46873866Y-51736904D01*
X46873866Y-51736904D02*
X47064342Y-51689285D01*
X47064342Y-51689285D02*
X47159580Y-51641666D01*
X47159580Y-51641666D02*
X47207200Y-51594047D01*
X47207200Y-51594047D02*
X47254819Y-51498809D01*
X47254819Y-51498809D02*
X47254819Y-51403571D01*
X47254819Y-51403571D02*
X47207200Y-51308333D01*
X47207200Y-51308333D02*
X47159580Y-51260714D01*
X47159580Y-51260714D02*
X47064342Y-51213095D01*
X47064342Y-51213095D02*
X46873866Y-51165476D01*
X46873866Y-51165476D02*
X46635771Y-51165476D01*
X46635771Y-51165476D02*
X46445295Y-51213095D01*
X46445295Y-51213095D02*
X46350057Y-51260714D01*
X46350057Y-51260714D02*
X46302438Y-51308333D01*
X46302438Y-51308333D02*
X46254819Y-51403571D01*
D11*
X57863094Y-77557419D02*
X57863094Y-76557419D01*
X57863094Y-76557419D02*
X57624999Y-76557419D01*
X57624999Y-76557419D02*
X57482142Y-76605038D01*
X57482142Y-76605038D02*
X57386904Y-76700276D01*
X57386904Y-76700276D02*
X57339285Y-76795514D01*
X57339285Y-76795514D02*
X57291666Y-76985990D01*
X57291666Y-76985990D02*
X57291666Y-77128847D01*
X57291666Y-77128847D02*
X57339285Y-77319323D01*
X57339285Y-77319323D02*
X57386904Y-77414561D01*
X57386904Y-77414561D02*
X57482142Y-77509800D01*
X57482142Y-77509800D02*
X57624999Y-77557419D01*
X57624999Y-77557419D02*
X57863094Y-77557419D01*
X56434523Y-76890752D02*
X56434523Y-77557419D01*
X56672618Y-76509800D02*
X56910713Y-77224085D01*
X56910713Y-77224085D02*
X56291666Y-77224085D01*
D10*
X52459580Y-56358333D02*
X52507200Y-56310714D01*
X52507200Y-56310714D02*
X52554819Y-56167857D01*
X52554819Y-56167857D02*
X52554819Y-56072619D01*
X52554819Y-56072619D02*
X52507200Y-55929762D01*
X52507200Y-55929762D02*
X52411961Y-55834524D01*
X52411961Y-55834524D02*
X52316723Y-55786905D01*
X52316723Y-55786905D02*
X52126247Y-55739286D01*
X52126247Y-55739286D02*
X51983390Y-55739286D01*
X51983390Y-55739286D02*
X51792914Y-55786905D01*
X51792914Y-55786905D02*
X51697676Y-55834524D01*
X51697676Y-55834524D02*
X51602438Y-55929762D01*
X51602438Y-55929762D02*
X51554819Y-56072619D01*
X51554819Y-56072619D02*
X51554819Y-56167857D01*
X51554819Y-56167857D02*
X51602438Y-56310714D01*
X51602438Y-56310714D02*
X51650057Y-56358333D01*
X51554819Y-56691667D02*
X51554819Y-57358333D01*
X51554819Y-57358333D02*
X52554819Y-56929762D01*
X53191666Y-58204819D02*
X53524999Y-57728628D01*
X53763094Y-58204819D02*
X53763094Y-57204819D01*
X53763094Y-57204819D02*
X53382142Y-57204819D01*
X53382142Y-57204819D02*
X53286904Y-57252438D01*
X53286904Y-57252438D02*
X53239285Y-57300057D01*
X53239285Y-57300057D02*
X53191666Y-57395295D01*
X53191666Y-57395295D02*
X53191666Y-57538152D01*
X53191666Y-57538152D02*
X53239285Y-57633390D01*
X53239285Y-57633390D02*
X53286904Y-57681009D01*
X53286904Y-57681009D02*
X53382142Y-57728628D01*
X53382142Y-57728628D02*
X53763094Y-57728628D01*
X52620237Y-57633390D02*
X52715475Y-57585771D01*
X52715475Y-57585771D02*
X52763094Y-57538152D01*
X52763094Y-57538152D02*
X52810713Y-57442914D01*
X52810713Y-57442914D02*
X52810713Y-57395295D01*
X52810713Y-57395295D02*
X52763094Y-57300057D01*
X52763094Y-57300057D02*
X52715475Y-57252438D01*
X52715475Y-57252438D02*
X52620237Y-57204819D01*
X52620237Y-57204819D02*
X52429761Y-57204819D01*
X52429761Y-57204819D02*
X52334523Y-57252438D01*
X52334523Y-57252438D02*
X52286904Y-57300057D01*
X52286904Y-57300057D02*
X52239285Y-57395295D01*
X52239285Y-57395295D02*
X52239285Y-57442914D01*
X52239285Y-57442914D02*
X52286904Y-57538152D01*
X52286904Y-57538152D02*
X52334523Y-57585771D01*
X52334523Y-57585771D02*
X52429761Y-57633390D01*
X52429761Y-57633390D02*
X52620237Y-57633390D01*
X52620237Y-57633390D02*
X52715475Y-57681009D01*
X52715475Y-57681009D02*
X52763094Y-57728628D01*
X52763094Y-57728628D02*
X52810713Y-57823866D01*
X52810713Y-57823866D02*
X52810713Y-58014342D01*
X52810713Y-58014342D02*
X52763094Y-58109580D01*
X52763094Y-58109580D02*
X52715475Y-58157200D01*
X52715475Y-58157200D02*
X52620237Y-58204819D01*
X52620237Y-58204819D02*
X52429761Y-58204819D01*
X52429761Y-58204819D02*
X52334523Y-58157200D01*
X52334523Y-58157200D02*
X52286904Y-58109580D01*
X52286904Y-58109580D02*
X52239285Y-58014342D01*
X52239285Y-58014342D02*
X52239285Y-57823866D01*
X52239285Y-57823866D02*
X52286904Y-57728628D01*
X52286904Y-57728628D02*
X52334523Y-57681009D01*
X52334523Y-57681009D02*
X52429761Y-57633390D01*
X59329819Y-79107142D02*
X58853628Y-78773809D01*
X59329819Y-78535714D02*
X58329819Y-78535714D01*
X58329819Y-78535714D02*
X58329819Y-78916666D01*
X58329819Y-78916666D02*
X58377438Y-79011904D01*
X58377438Y-79011904D02*
X58425057Y-79059523D01*
X58425057Y-79059523D02*
X58520295Y-79107142D01*
X58520295Y-79107142D02*
X58663152Y-79107142D01*
X58663152Y-79107142D02*
X58758390Y-79059523D01*
X58758390Y-79059523D02*
X58806009Y-79011904D01*
X58806009Y-79011904D02*
X58853628Y-78916666D01*
X58853628Y-78916666D02*
X58853628Y-78535714D01*
X58425057Y-79488095D02*
X58377438Y-79535714D01*
X58377438Y-79535714D02*
X58329819Y-79630952D01*
X58329819Y-79630952D02*
X58329819Y-79869047D01*
X58329819Y-79869047D02*
X58377438Y-79964285D01*
X58377438Y-79964285D02*
X58425057Y-80011904D01*
X58425057Y-80011904D02*
X58520295Y-80059523D01*
X58520295Y-80059523D02*
X58615533Y-80059523D01*
X58615533Y-80059523D02*
X58758390Y-80011904D01*
X58758390Y-80011904D02*
X59329819Y-79440476D01*
X59329819Y-79440476D02*
X59329819Y-80059523D01*
X58329819Y-80392857D02*
X58329819Y-81059523D01*
X58329819Y-81059523D02*
X59329819Y-80630952D01*
X35592857Y-58834580D02*
X35640476Y-58882200D01*
X35640476Y-58882200D02*
X35783333Y-58929819D01*
X35783333Y-58929819D02*
X35878571Y-58929819D01*
X35878571Y-58929819D02*
X36021428Y-58882200D01*
X36021428Y-58882200D02*
X36116666Y-58786961D01*
X36116666Y-58786961D02*
X36164285Y-58691723D01*
X36164285Y-58691723D02*
X36211904Y-58501247D01*
X36211904Y-58501247D02*
X36211904Y-58358390D01*
X36211904Y-58358390D02*
X36164285Y-58167914D01*
X36164285Y-58167914D02*
X36116666Y-58072676D01*
X36116666Y-58072676D02*
X36021428Y-57977438D01*
X36021428Y-57977438D02*
X35878571Y-57929819D01*
X35878571Y-57929819D02*
X35783333Y-57929819D01*
X35783333Y-57929819D02*
X35640476Y-57977438D01*
X35640476Y-57977438D02*
X35592857Y-58025057D01*
X34640476Y-58929819D02*
X35211904Y-58929819D01*
X34926190Y-58929819D02*
X34926190Y-57929819D01*
X34926190Y-57929819D02*
X35021428Y-58072676D01*
X35021428Y-58072676D02*
X35116666Y-58167914D01*
X35116666Y-58167914D02*
X35211904Y-58215533D01*
X34021428Y-57929819D02*
X33926190Y-57929819D01*
X33926190Y-57929819D02*
X33830952Y-57977438D01*
X33830952Y-57977438D02*
X33783333Y-58025057D01*
X33783333Y-58025057D02*
X33735714Y-58120295D01*
X33735714Y-58120295D02*
X33688095Y-58310771D01*
X33688095Y-58310771D02*
X33688095Y-58548866D01*
X33688095Y-58548866D02*
X33735714Y-58739342D01*
X33735714Y-58739342D02*
X33783333Y-58834580D01*
X33783333Y-58834580D02*
X33830952Y-58882200D01*
X33830952Y-58882200D02*
X33926190Y-58929819D01*
X33926190Y-58929819D02*
X34021428Y-58929819D01*
X34021428Y-58929819D02*
X34116666Y-58882200D01*
X34116666Y-58882200D02*
X34164285Y-58834580D01*
X34164285Y-58834580D02*
X34211904Y-58739342D01*
X34211904Y-58739342D02*
X34259523Y-58548866D01*
X34259523Y-58548866D02*
X34259523Y-58310771D01*
X34259523Y-58310771D02*
X34211904Y-58120295D01*
X34211904Y-58120295D02*
X34164285Y-58025057D01*
X34164285Y-58025057D02*
X34116666Y-57977438D01*
X34116666Y-57977438D02*
X34021428Y-57929819D01*
X51241666Y-54304819D02*
X51574999Y-53828628D01*
X51813094Y-54304819D02*
X51813094Y-53304819D01*
X51813094Y-53304819D02*
X51432142Y-53304819D01*
X51432142Y-53304819D02*
X51336904Y-53352438D01*
X51336904Y-53352438D02*
X51289285Y-53400057D01*
X51289285Y-53400057D02*
X51241666Y-53495295D01*
X51241666Y-53495295D02*
X51241666Y-53638152D01*
X51241666Y-53638152D02*
X51289285Y-53733390D01*
X51289285Y-53733390D02*
X51336904Y-53781009D01*
X51336904Y-53781009D02*
X51432142Y-53828628D01*
X51432142Y-53828628D02*
X51813094Y-53828628D01*
X50908332Y-53304819D02*
X50289285Y-53304819D01*
X50289285Y-53304819D02*
X50622618Y-53685771D01*
X50622618Y-53685771D02*
X50479761Y-53685771D01*
X50479761Y-53685771D02*
X50384523Y-53733390D01*
X50384523Y-53733390D02*
X50336904Y-53781009D01*
X50336904Y-53781009D02*
X50289285Y-53876247D01*
X50289285Y-53876247D02*
X50289285Y-54114342D01*
X50289285Y-54114342D02*
X50336904Y-54209580D01*
X50336904Y-54209580D02*
X50384523Y-54257200D01*
X50384523Y-54257200D02*
X50479761Y-54304819D01*
X50479761Y-54304819D02*
X50765475Y-54304819D01*
X50765475Y-54304819D02*
X50860713Y-54257200D01*
X50860713Y-54257200D02*
X50908332Y-54209580D01*
X48954819Y-110532142D02*
X48478628Y-110198809D01*
X48954819Y-109960714D02*
X47954819Y-109960714D01*
X47954819Y-109960714D02*
X47954819Y-110341666D01*
X47954819Y-110341666D02*
X48002438Y-110436904D01*
X48002438Y-110436904D02*
X48050057Y-110484523D01*
X48050057Y-110484523D02*
X48145295Y-110532142D01*
X48145295Y-110532142D02*
X48288152Y-110532142D01*
X48288152Y-110532142D02*
X48383390Y-110484523D01*
X48383390Y-110484523D02*
X48431009Y-110436904D01*
X48431009Y-110436904D02*
X48478628Y-110341666D01*
X48478628Y-110341666D02*
X48478628Y-109960714D01*
X48050057Y-110913095D02*
X48002438Y-110960714D01*
X48002438Y-110960714D02*
X47954819Y-111055952D01*
X47954819Y-111055952D02*
X47954819Y-111294047D01*
X47954819Y-111294047D02*
X48002438Y-111389285D01*
X48002438Y-111389285D02*
X48050057Y-111436904D01*
X48050057Y-111436904D02*
X48145295Y-111484523D01*
X48145295Y-111484523D02*
X48240533Y-111484523D01*
X48240533Y-111484523D02*
X48383390Y-111436904D01*
X48383390Y-111436904D02*
X48954819Y-110865476D01*
X48954819Y-110865476D02*
X48954819Y-111484523D01*
X47954819Y-112341666D02*
X47954819Y-112151190D01*
X47954819Y-112151190D02*
X48002438Y-112055952D01*
X48002438Y-112055952D02*
X48050057Y-112008333D01*
X48050057Y-112008333D02*
X48192914Y-111913095D01*
X48192914Y-111913095D02*
X48383390Y-111865476D01*
X48383390Y-111865476D02*
X48764342Y-111865476D01*
X48764342Y-111865476D02*
X48859580Y-111913095D01*
X48859580Y-111913095D02*
X48907200Y-111960714D01*
X48907200Y-111960714D02*
X48954819Y-112055952D01*
X48954819Y-112055952D02*
X48954819Y-112246428D01*
X48954819Y-112246428D02*
X48907200Y-112341666D01*
X48907200Y-112341666D02*
X48859580Y-112389285D01*
X48859580Y-112389285D02*
X48764342Y-112436904D01*
X48764342Y-112436904D02*
X48526247Y-112436904D01*
X48526247Y-112436904D02*
X48431009Y-112389285D01*
X48431009Y-112389285D02*
X48383390Y-112341666D01*
X48383390Y-112341666D02*
X48335771Y-112246428D01*
X48335771Y-112246428D02*
X48335771Y-112055952D01*
X48335771Y-112055952D02*
X48383390Y-111960714D01*
X48383390Y-111960714D02*
X48431009Y-111913095D01*
X48431009Y-111913095D02*
X48526247Y-111865476D01*
X31579819Y-32841666D02*
X32294104Y-32841666D01*
X32294104Y-32841666D02*
X32436961Y-32794047D01*
X32436961Y-32794047D02*
X32532200Y-32698809D01*
X32532200Y-32698809D02*
X32579819Y-32555952D01*
X32579819Y-32555952D02*
X32579819Y-32460714D01*
X31579819Y-33794047D02*
X31579819Y-33317857D01*
X31579819Y-33317857D02*
X32056009Y-33270238D01*
X32056009Y-33270238D02*
X32008390Y-33317857D01*
X32008390Y-33317857D02*
X31960771Y-33413095D01*
X31960771Y-33413095D02*
X31960771Y-33651190D01*
X31960771Y-33651190D02*
X32008390Y-33746428D01*
X32008390Y-33746428D02*
X32056009Y-33794047D01*
X32056009Y-33794047D02*
X32151247Y-33841666D01*
X32151247Y-33841666D02*
X32389342Y-33841666D01*
X32389342Y-33841666D02*
X32484580Y-33794047D01*
X32484580Y-33794047D02*
X32532200Y-33746428D01*
X32532200Y-33746428D02*
X32579819Y-33651190D01*
X32579819Y-33651190D02*
X32579819Y-33413095D01*
X32579819Y-33413095D02*
X32532200Y-33317857D01*
X32532200Y-33317857D02*
X32484580Y-33270238D01*
X54342857Y-74079819D02*
X54676190Y-73603628D01*
X54914285Y-74079819D02*
X54914285Y-73079819D01*
X54914285Y-73079819D02*
X54533333Y-73079819D01*
X54533333Y-73079819D02*
X54438095Y-73127438D01*
X54438095Y-73127438D02*
X54390476Y-73175057D01*
X54390476Y-73175057D02*
X54342857Y-73270295D01*
X54342857Y-73270295D02*
X54342857Y-73413152D01*
X54342857Y-73413152D02*
X54390476Y-73508390D01*
X54390476Y-73508390D02*
X54438095Y-73556009D01*
X54438095Y-73556009D02*
X54533333Y-73603628D01*
X54533333Y-73603628D02*
X54914285Y-73603628D01*
X53961904Y-73175057D02*
X53914285Y-73127438D01*
X53914285Y-73127438D02*
X53819047Y-73079819D01*
X53819047Y-73079819D02*
X53580952Y-73079819D01*
X53580952Y-73079819D02*
X53485714Y-73127438D01*
X53485714Y-73127438D02*
X53438095Y-73175057D01*
X53438095Y-73175057D02*
X53390476Y-73270295D01*
X53390476Y-73270295D02*
X53390476Y-73365533D01*
X53390476Y-73365533D02*
X53438095Y-73508390D01*
X53438095Y-73508390D02*
X54009523Y-74079819D01*
X54009523Y-74079819D02*
X53390476Y-74079819D01*
X52914285Y-74079819D02*
X52723809Y-74079819D01*
X52723809Y-74079819D02*
X52628571Y-74032200D01*
X52628571Y-74032200D02*
X52580952Y-73984580D01*
X52580952Y-73984580D02*
X52485714Y-73841723D01*
X52485714Y-73841723D02*
X52438095Y-73651247D01*
X52438095Y-73651247D02*
X52438095Y-73270295D01*
X52438095Y-73270295D02*
X52485714Y-73175057D01*
X52485714Y-73175057D02*
X52533333Y-73127438D01*
X52533333Y-73127438D02*
X52628571Y-73079819D01*
X52628571Y-73079819D02*
X52819047Y-73079819D01*
X52819047Y-73079819D02*
X52914285Y-73127438D01*
X52914285Y-73127438D02*
X52961904Y-73175057D01*
X52961904Y-73175057D02*
X53009523Y-73270295D01*
X53009523Y-73270295D02*
X53009523Y-73508390D01*
X53009523Y-73508390D02*
X52961904Y-73603628D01*
X52961904Y-73603628D02*
X52914285Y-73651247D01*
X52914285Y-73651247D02*
X52819047Y-73698866D01*
X52819047Y-73698866D02*
X52628571Y-73698866D01*
X52628571Y-73698866D02*
X52533333Y-73651247D01*
X52533333Y-73651247D02*
X52485714Y-73603628D01*
X52485714Y-73603628D02*
X52438095Y-73508390D01*
X28258333Y-27329819D02*
X28258333Y-28044104D01*
X28258333Y-28044104D02*
X28305952Y-28186961D01*
X28305952Y-28186961D02*
X28401190Y-28282200D01*
X28401190Y-28282200D02*
X28544047Y-28329819D01*
X28544047Y-28329819D02*
X28639285Y-28329819D01*
X27782142Y-28329819D02*
X27782142Y-27329819D01*
X27782142Y-27329819D02*
X27401190Y-27329819D01*
X27401190Y-27329819D02*
X27305952Y-27377438D01*
X27305952Y-27377438D02*
X27258333Y-27425057D01*
X27258333Y-27425057D02*
X27210714Y-27520295D01*
X27210714Y-27520295D02*
X27210714Y-27663152D01*
X27210714Y-27663152D02*
X27258333Y-27758390D01*
X27258333Y-27758390D02*
X27305952Y-27806009D01*
X27305952Y-27806009D02*
X27401190Y-27853628D01*
X27401190Y-27853628D02*
X27782142Y-27853628D01*
X26258333Y-28329819D02*
X26829761Y-28329819D01*
X26544047Y-28329819D02*
X26544047Y-27329819D01*
X26544047Y-27329819D02*
X26639285Y-27472676D01*
X26639285Y-27472676D02*
X26734523Y-27567914D01*
X26734523Y-27567914D02*
X26829761Y-27615533D01*
X57141666Y-59379819D02*
X57474999Y-58903628D01*
X57713094Y-59379819D02*
X57713094Y-58379819D01*
X57713094Y-58379819D02*
X57332142Y-58379819D01*
X57332142Y-58379819D02*
X57236904Y-58427438D01*
X57236904Y-58427438D02*
X57189285Y-58475057D01*
X57189285Y-58475057D02*
X57141666Y-58570295D01*
X57141666Y-58570295D02*
X57141666Y-58713152D01*
X57141666Y-58713152D02*
X57189285Y-58808390D01*
X57189285Y-58808390D02*
X57236904Y-58856009D01*
X57236904Y-58856009D02*
X57332142Y-58903628D01*
X57332142Y-58903628D02*
X57713094Y-58903628D01*
X56189285Y-59379819D02*
X56760713Y-59379819D01*
X56474999Y-59379819D02*
X56474999Y-58379819D01*
X56474999Y-58379819D02*
X56570237Y-58522676D01*
X56570237Y-58522676D02*
X56665475Y-58617914D01*
X56665475Y-58617914D02*
X56760713Y-58665533D01*
X50858333Y-119454819D02*
X50858333Y-120169104D01*
X50858333Y-120169104D02*
X50905952Y-120311961D01*
X50905952Y-120311961D02*
X51001190Y-120407200D01*
X51001190Y-120407200D02*
X51144047Y-120454819D01*
X51144047Y-120454819D02*
X51239285Y-120454819D01*
X50429761Y-119550057D02*
X50382142Y-119502438D01*
X50382142Y-119502438D02*
X50286904Y-119454819D01*
X50286904Y-119454819D02*
X50048809Y-119454819D01*
X50048809Y-119454819D02*
X49953571Y-119502438D01*
X49953571Y-119502438D02*
X49905952Y-119550057D01*
X49905952Y-119550057D02*
X49858333Y-119645295D01*
X49858333Y-119645295D02*
X49858333Y-119740533D01*
X49858333Y-119740533D02*
X49905952Y-119883390D01*
X49905952Y-119883390D02*
X50477380Y-120454819D01*
X50477380Y-120454819D02*
X49858333Y-120454819D01*
X36917857Y-103129580D02*
X36965476Y-103177200D01*
X36965476Y-103177200D02*
X37108333Y-103224819D01*
X37108333Y-103224819D02*
X37203571Y-103224819D01*
X37203571Y-103224819D02*
X37346428Y-103177200D01*
X37346428Y-103177200D02*
X37441666Y-103081961D01*
X37441666Y-103081961D02*
X37489285Y-102986723D01*
X37489285Y-102986723D02*
X37536904Y-102796247D01*
X37536904Y-102796247D02*
X37536904Y-102653390D01*
X37536904Y-102653390D02*
X37489285Y-102462914D01*
X37489285Y-102462914D02*
X37441666Y-102367676D01*
X37441666Y-102367676D02*
X37346428Y-102272438D01*
X37346428Y-102272438D02*
X37203571Y-102224819D01*
X37203571Y-102224819D02*
X37108333Y-102224819D01*
X37108333Y-102224819D02*
X36965476Y-102272438D01*
X36965476Y-102272438D02*
X36917857Y-102320057D01*
X35965476Y-103224819D02*
X36536904Y-103224819D01*
X36251190Y-103224819D02*
X36251190Y-102224819D01*
X36251190Y-102224819D02*
X36346428Y-102367676D01*
X36346428Y-102367676D02*
X36441666Y-102462914D01*
X36441666Y-102462914D02*
X36536904Y-102510533D01*
X35489285Y-103224819D02*
X35298809Y-103224819D01*
X35298809Y-103224819D02*
X35203571Y-103177200D01*
X35203571Y-103177200D02*
X35155952Y-103129580D01*
X35155952Y-103129580D02*
X35060714Y-102986723D01*
X35060714Y-102986723D02*
X35013095Y-102796247D01*
X35013095Y-102796247D02*
X35013095Y-102415295D01*
X35013095Y-102415295D02*
X35060714Y-102320057D01*
X35060714Y-102320057D02*
X35108333Y-102272438D01*
X35108333Y-102272438D02*
X35203571Y-102224819D01*
X35203571Y-102224819D02*
X35394047Y-102224819D01*
X35394047Y-102224819D02*
X35489285Y-102272438D01*
X35489285Y-102272438D02*
X35536904Y-102320057D01*
X35536904Y-102320057D02*
X35584523Y-102415295D01*
X35584523Y-102415295D02*
X35584523Y-102653390D01*
X35584523Y-102653390D02*
X35536904Y-102748628D01*
X35536904Y-102748628D02*
X35489285Y-102796247D01*
X35489285Y-102796247D02*
X35394047Y-102843866D01*
X35394047Y-102843866D02*
X35203571Y-102843866D01*
X35203571Y-102843866D02*
X35108333Y-102796247D01*
X35108333Y-102796247D02*
X35060714Y-102748628D01*
X35060714Y-102748628D02*
X35013095Y-102653390D01*
X55042857Y-115604819D02*
X55376190Y-115128628D01*
X55614285Y-115604819D02*
X55614285Y-114604819D01*
X55614285Y-114604819D02*
X55233333Y-114604819D01*
X55233333Y-114604819D02*
X55138095Y-114652438D01*
X55138095Y-114652438D02*
X55090476Y-114700057D01*
X55090476Y-114700057D02*
X55042857Y-114795295D01*
X55042857Y-114795295D02*
X55042857Y-114938152D01*
X55042857Y-114938152D02*
X55090476Y-115033390D01*
X55090476Y-115033390D02*
X55138095Y-115081009D01*
X55138095Y-115081009D02*
X55233333Y-115128628D01*
X55233333Y-115128628D02*
X55614285Y-115128628D01*
X54661904Y-114700057D02*
X54614285Y-114652438D01*
X54614285Y-114652438D02*
X54519047Y-114604819D01*
X54519047Y-114604819D02*
X54280952Y-114604819D01*
X54280952Y-114604819D02*
X54185714Y-114652438D01*
X54185714Y-114652438D02*
X54138095Y-114700057D01*
X54138095Y-114700057D02*
X54090476Y-114795295D01*
X54090476Y-114795295D02*
X54090476Y-114890533D01*
X54090476Y-114890533D02*
X54138095Y-115033390D01*
X54138095Y-115033390D02*
X54709523Y-115604819D01*
X54709523Y-115604819D02*
X54090476Y-115604819D01*
X53233333Y-114938152D02*
X53233333Y-115604819D01*
X53471428Y-114557200D02*
X53709523Y-115271485D01*
X53709523Y-115271485D02*
X53090476Y-115271485D01*
X24229819Y-74642142D02*
X23753628Y-74308809D01*
X24229819Y-74070714D02*
X23229819Y-74070714D01*
X23229819Y-74070714D02*
X23229819Y-74451666D01*
X23229819Y-74451666D02*
X23277438Y-74546904D01*
X23277438Y-74546904D02*
X23325057Y-74594523D01*
X23325057Y-74594523D02*
X23420295Y-74642142D01*
X23420295Y-74642142D02*
X23563152Y-74642142D01*
X23563152Y-74642142D02*
X23658390Y-74594523D01*
X23658390Y-74594523D02*
X23706009Y-74546904D01*
X23706009Y-74546904D02*
X23753628Y-74451666D01*
X23753628Y-74451666D02*
X23753628Y-74070714D01*
X23325057Y-75023095D02*
X23277438Y-75070714D01*
X23277438Y-75070714D02*
X23229819Y-75165952D01*
X23229819Y-75165952D02*
X23229819Y-75404047D01*
X23229819Y-75404047D02*
X23277438Y-75499285D01*
X23277438Y-75499285D02*
X23325057Y-75546904D01*
X23325057Y-75546904D02*
X23420295Y-75594523D01*
X23420295Y-75594523D02*
X23515533Y-75594523D01*
X23515533Y-75594523D02*
X23658390Y-75546904D01*
X23658390Y-75546904D02*
X24229819Y-74975476D01*
X24229819Y-74975476D02*
X24229819Y-75594523D01*
X23229819Y-75927857D02*
X23229819Y-76546904D01*
X23229819Y-76546904D02*
X23610771Y-76213571D01*
X23610771Y-76213571D02*
X23610771Y-76356428D01*
X23610771Y-76356428D02*
X23658390Y-76451666D01*
X23658390Y-76451666D02*
X23706009Y-76499285D01*
X23706009Y-76499285D02*
X23801247Y-76546904D01*
X23801247Y-76546904D02*
X24039342Y-76546904D01*
X24039342Y-76546904D02*
X24134580Y-76499285D01*
X24134580Y-76499285D02*
X24182200Y-76451666D01*
X24182200Y-76451666D02*
X24229819Y-76356428D01*
X24229819Y-76356428D02*
X24229819Y-76070714D01*
X24229819Y-76070714D02*
X24182200Y-75975476D01*
X24182200Y-75975476D02*
X24134580Y-75927857D01*
X46684580Y-70512142D02*
X46732200Y-70464523D01*
X46732200Y-70464523D02*
X46779819Y-70321666D01*
X46779819Y-70321666D02*
X46779819Y-70226428D01*
X46779819Y-70226428D02*
X46732200Y-70083571D01*
X46732200Y-70083571D02*
X46636961Y-69988333D01*
X46636961Y-69988333D02*
X46541723Y-69940714D01*
X46541723Y-69940714D02*
X46351247Y-69893095D01*
X46351247Y-69893095D02*
X46208390Y-69893095D01*
X46208390Y-69893095D02*
X46017914Y-69940714D01*
X46017914Y-69940714D02*
X45922676Y-69988333D01*
X45922676Y-69988333D02*
X45827438Y-70083571D01*
X45827438Y-70083571D02*
X45779819Y-70226428D01*
X45779819Y-70226428D02*
X45779819Y-70321666D01*
X45779819Y-70321666D02*
X45827438Y-70464523D01*
X45827438Y-70464523D02*
X45875057Y-70512142D01*
X46779819Y-71464523D02*
X46779819Y-70893095D01*
X46779819Y-71178809D02*
X45779819Y-71178809D01*
X45779819Y-71178809D02*
X45922676Y-71083571D01*
X45922676Y-71083571D02*
X46017914Y-70988333D01*
X46017914Y-70988333D02*
X46065533Y-70893095D01*
X45779819Y-72369285D02*
X45779819Y-71893095D01*
X45779819Y-71893095D02*
X46256009Y-71845476D01*
X46256009Y-71845476D02*
X46208390Y-71893095D01*
X46208390Y-71893095D02*
X46160771Y-71988333D01*
X46160771Y-71988333D02*
X46160771Y-72226428D01*
X46160771Y-72226428D02*
X46208390Y-72321666D01*
X46208390Y-72321666D02*
X46256009Y-72369285D01*
X46256009Y-72369285D02*
X46351247Y-72416904D01*
X46351247Y-72416904D02*
X46589342Y-72416904D01*
X46589342Y-72416904D02*
X46684580Y-72369285D01*
X46684580Y-72369285D02*
X46732200Y-72321666D01*
X46732200Y-72321666D02*
X46779819Y-72226428D01*
X46779819Y-72226428D02*
X46779819Y-71988333D01*
X46779819Y-71988333D02*
X46732200Y-71893095D01*
X46732200Y-71893095D02*
X46684580Y-71845476D01*
X57313094Y-98504819D02*
X57313094Y-97504819D01*
X57313094Y-97504819D02*
X57074999Y-97504819D01*
X57074999Y-97504819D02*
X56932142Y-97552438D01*
X56932142Y-97552438D02*
X56836904Y-97647676D01*
X56836904Y-97647676D02*
X56789285Y-97742914D01*
X56789285Y-97742914D02*
X56741666Y-97933390D01*
X56741666Y-97933390D02*
X56741666Y-98076247D01*
X56741666Y-98076247D02*
X56789285Y-98266723D01*
X56789285Y-98266723D02*
X56836904Y-98361961D01*
X56836904Y-98361961D02*
X56932142Y-98457200D01*
X56932142Y-98457200D02*
X57074999Y-98504819D01*
X57074999Y-98504819D02*
X57313094Y-98504819D01*
X55789285Y-98504819D02*
X56360713Y-98504819D01*
X56074999Y-98504819D02*
X56074999Y-97504819D01*
X56074999Y-97504819D02*
X56170237Y-97647676D01*
X56170237Y-97647676D02*
X56265475Y-97742914D01*
X56265475Y-97742914D02*
X56360713Y-97790533D01*
X45892857Y-73929819D02*
X46226190Y-73453628D01*
X46464285Y-73929819D02*
X46464285Y-72929819D01*
X46464285Y-72929819D02*
X46083333Y-72929819D01*
X46083333Y-72929819D02*
X45988095Y-72977438D01*
X45988095Y-72977438D02*
X45940476Y-73025057D01*
X45940476Y-73025057D02*
X45892857Y-73120295D01*
X45892857Y-73120295D02*
X45892857Y-73263152D01*
X45892857Y-73263152D02*
X45940476Y-73358390D01*
X45940476Y-73358390D02*
X45988095Y-73406009D01*
X45988095Y-73406009D02*
X46083333Y-73453628D01*
X46083333Y-73453628D02*
X46464285Y-73453628D01*
X44940476Y-73929819D02*
X45511904Y-73929819D01*
X45226190Y-73929819D02*
X45226190Y-72929819D01*
X45226190Y-72929819D02*
X45321428Y-73072676D01*
X45321428Y-73072676D02*
X45416666Y-73167914D01*
X45416666Y-73167914D02*
X45511904Y-73215533D01*
X44607142Y-72929819D02*
X43940476Y-72929819D01*
X43940476Y-72929819D02*
X44369047Y-73929819D01*
X31417857Y-77754819D02*
X31751190Y-77278628D01*
X31989285Y-77754819D02*
X31989285Y-76754819D01*
X31989285Y-76754819D02*
X31608333Y-76754819D01*
X31608333Y-76754819D02*
X31513095Y-76802438D01*
X31513095Y-76802438D02*
X31465476Y-76850057D01*
X31465476Y-76850057D02*
X31417857Y-76945295D01*
X31417857Y-76945295D02*
X31417857Y-77088152D01*
X31417857Y-77088152D02*
X31465476Y-77183390D01*
X31465476Y-77183390D02*
X31513095Y-77231009D01*
X31513095Y-77231009D02*
X31608333Y-77278628D01*
X31608333Y-77278628D02*
X31989285Y-77278628D01*
X31036904Y-76850057D02*
X30989285Y-76802438D01*
X30989285Y-76802438D02*
X30894047Y-76754819D01*
X30894047Y-76754819D02*
X30655952Y-76754819D01*
X30655952Y-76754819D02*
X30560714Y-76802438D01*
X30560714Y-76802438D02*
X30513095Y-76850057D01*
X30513095Y-76850057D02*
X30465476Y-76945295D01*
X30465476Y-76945295D02*
X30465476Y-77040533D01*
X30465476Y-77040533D02*
X30513095Y-77183390D01*
X30513095Y-77183390D02*
X31084523Y-77754819D01*
X31084523Y-77754819D02*
X30465476Y-77754819D01*
X29513095Y-77754819D02*
X30084523Y-77754819D01*
X29798809Y-77754819D02*
X29798809Y-76754819D01*
X29798809Y-76754819D02*
X29894047Y-76897676D01*
X29894047Y-76897676D02*
X29989285Y-76992914D01*
X29989285Y-76992914D02*
X30084523Y-77040533D01*
X30242857Y-73979819D02*
X30576190Y-73503628D01*
X30814285Y-73979819D02*
X30814285Y-72979819D01*
X30814285Y-72979819D02*
X30433333Y-72979819D01*
X30433333Y-72979819D02*
X30338095Y-73027438D01*
X30338095Y-73027438D02*
X30290476Y-73075057D01*
X30290476Y-73075057D02*
X30242857Y-73170295D01*
X30242857Y-73170295D02*
X30242857Y-73313152D01*
X30242857Y-73313152D02*
X30290476Y-73408390D01*
X30290476Y-73408390D02*
X30338095Y-73456009D01*
X30338095Y-73456009D02*
X30433333Y-73503628D01*
X30433333Y-73503628D02*
X30814285Y-73503628D01*
X29861904Y-73075057D02*
X29814285Y-73027438D01*
X29814285Y-73027438D02*
X29719047Y-72979819D01*
X29719047Y-72979819D02*
X29480952Y-72979819D01*
X29480952Y-72979819D02*
X29385714Y-73027438D01*
X29385714Y-73027438D02*
X29338095Y-73075057D01*
X29338095Y-73075057D02*
X29290476Y-73170295D01*
X29290476Y-73170295D02*
X29290476Y-73265533D01*
X29290476Y-73265533D02*
X29338095Y-73408390D01*
X29338095Y-73408390D02*
X29909523Y-73979819D01*
X29909523Y-73979819D02*
X29290476Y-73979819D01*
X28909523Y-73075057D02*
X28861904Y-73027438D01*
X28861904Y-73027438D02*
X28766666Y-72979819D01*
X28766666Y-72979819D02*
X28528571Y-72979819D01*
X28528571Y-72979819D02*
X28433333Y-73027438D01*
X28433333Y-73027438D02*
X28385714Y-73075057D01*
X28385714Y-73075057D02*
X28338095Y-73170295D01*
X28338095Y-73170295D02*
X28338095Y-73265533D01*
X28338095Y-73265533D02*
X28385714Y-73408390D01*
X28385714Y-73408390D02*
X28957142Y-73979819D01*
X28957142Y-73979819D02*
X28338095Y-73979819D01*
D11*
X28738094Y-77457419D02*
X28738094Y-76457419D01*
X28738094Y-76457419D02*
X28499999Y-76457419D01*
X28499999Y-76457419D02*
X28357142Y-76505038D01*
X28357142Y-76505038D02*
X28261904Y-76600276D01*
X28261904Y-76600276D02*
X28214285Y-76695514D01*
X28214285Y-76695514D02*
X28166666Y-76885990D01*
X28166666Y-76885990D02*
X28166666Y-77028847D01*
X28166666Y-77028847D02*
X28214285Y-77219323D01*
X28214285Y-77219323D02*
X28261904Y-77314561D01*
X28261904Y-77314561D02*
X28357142Y-77409800D01*
X28357142Y-77409800D02*
X28499999Y-77457419D01*
X28499999Y-77457419D02*
X28738094Y-77457419D01*
X27785713Y-76552657D02*
X27738094Y-76505038D01*
X27738094Y-76505038D02*
X27642856Y-76457419D01*
X27642856Y-76457419D02*
X27404761Y-76457419D01*
X27404761Y-76457419D02*
X27309523Y-76505038D01*
X27309523Y-76505038D02*
X27261904Y-76552657D01*
X27261904Y-76552657D02*
X27214285Y-76647895D01*
X27214285Y-76647895D02*
X27214285Y-76743133D01*
X27214285Y-76743133D02*
X27261904Y-76885990D01*
X27261904Y-76885990D02*
X27833332Y-77457419D01*
X27833332Y-77457419D02*
X27214285Y-77457419D01*
D10*
X30603628Y-64223809D02*
X31079819Y-64223809D01*
X30079819Y-63890476D02*
X30603628Y-64223809D01*
X30603628Y-64223809D02*
X30079819Y-64557142D01*
X31079819Y-65414285D02*
X31079819Y-64842857D01*
X31079819Y-65128571D02*
X30079819Y-65128571D01*
X30079819Y-65128571D02*
X30222676Y-65033333D01*
X30222676Y-65033333D02*
X30317914Y-64938095D01*
X30317914Y-64938095D02*
X30365533Y-64842857D01*
X36829819Y-110182142D02*
X36353628Y-109848809D01*
X36829819Y-109610714D02*
X35829819Y-109610714D01*
X35829819Y-109610714D02*
X35829819Y-109991666D01*
X35829819Y-109991666D02*
X35877438Y-110086904D01*
X35877438Y-110086904D02*
X35925057Y-110134523D01*
X35925057Y-110134523D02*
X36020295Y-110182142D01*
X36020295Y-110182142D02*
X36163152Y-110182142D01*
X36163152Y-110182142D02*
X36258390Y-110134523D01*
X36258390Y-110134523D02*
X36306009Y-110086904D01*
X36306009Y-110086904D02*
X36353628Y-109991666D01*
X36353628Y-109991666D02*
X36353628Y-109610714D01*
X35829819Y-110515476D02*
X35829819Y-111134523D01*
X35829819Y-111134523D02*
X36210771Y-110801190D01*
X36210771Y-110801190D02*
X36210771Y-110944047D01*
X36210771Y-110944047D02*
X36258390Y-111039285D01*
X36258390Y-111039285D02*
X36306009Y-111086904D01*
X36306009Y-111086904D02*
X36401247Y-111134523D01*
X36401247Y-111134523D02*
X36639342Y-111134523D01*
X36639342Y-111134523D02*
X36734580Y-111086904D01*
X36734580Y-111086904D02*
X36782200Y-111039285D01*
X36782200Y-111039285D02*
X36829819Y-110944047D01*
X36829819Y-110944047D02*
X36829819Y-110658333D01*
X36829819Y-110658333D02*
X36782200Y-110563095D01*
X36782200Y-110563095D02*
X36734580Y-110515476D01*
X36829819Y-112086904D02*
X36829819Y-111515476D01*
X36829819Y-111801190D02*
X35829819Y-111801190D01*
X35829819Y-111801190D02*
X35972676Y-111705952D01*
X35972676Y-111705952D02*
X36067914Y-111610714D01*
X36067914Y-111610714D02*
X36115533Y-111515476D01*
X44084580Y-66783333D02*
X44132200Y-66735714D01*
X44132200Y-66735714D02*
X44179819Y-66592857D01*
X44179819Y-66592857D02*
X44179819Y-66497619D01*
X44179819Y-66497619D02*
X44132200Y-66354762D01*
X44132200Y-66354762D02*
X44036961Y-66259524D01*
X44036961Y-66259524D02*
X43941723Y-66211905D01*
X43941723Y-66211905D02*
X43751247Y-66164286D01*
X43751247Y-66164286D02*
X43608390Y-66164286D01*
X43608390Y-66164286D02*
X43417914Y-66211905D01*
X43417914Y-66211905D02*
X43322676Y-66259524D01*
X43322676Y-66259524D02*
X43227438Y-66354762D01*
X43227438Y-66354762D02*
X43179819Y-66497619D01*
X43179819Y-66497619D02*
X43179819Y-66592857D01*
X43179819Y-66592857D02*
X43227438Y-66735714D01*
X43227438Y-66735714D02*
X43275057Y-66783333D01*
X43608390Y-67354762D02*
X43560771Y-67259524D01*
X43560771Y-67259524D02*
X43513152Y-67211905D01*
X43513152Y-67211905D02*
X43417914Y-67164286D01*
X43417914Y-67164286D02*
X43370295Y-67164286D01*
X43370295Y-67164286D02*
X43275057Y-67211905D01*
X43275057Y-67211905D02*
X43227438Y-67259524D01*
X43227438Y-67259524D02*
X43179819Y-67354762D01*
X43179819Y-67354762D02*
X43179819Y-67545238D01*
X43179819Y-67545238D02*
X43227438Y-67640476D01*
X43227438Y-67640476D02*
X43275057Y-67688095D01*
X43275057Y-67688095D02*
X43370295Y-67735714D01*
X43370295Y-67735714D02*
X43417914Y-67735714D01*
X43417914Y-67735714D02*
X43513152Y-67688095D01*
X43513152Y-67688095D02*
X43560771Y-67640476D01*
X43560771Y-67640476D02*
X43608390Y-67545238D01*
X43608390Y-67545238D02*
X43608390Y-67354762D01*
X43608390Y-67354762D02*
X43656009Y-67259524D01*
X43656009Y-67259524D02*
X43703628Y-67211905D01*
X43703628Y-67211905D02*
X43798866Y-67164286D01*
X43798866Y-67164286D02*
X43989342Y-67164286D01*
X43989342Y-67164286D02*
X44084580Y-67211905D01*
X44084580Y-67211905D02*
X44132200Y-67259524D01*
X44132200Y-67259524D02*
X44179819Y-67354762D01*
X44179819Y-67354762D02*
X44179819Y-67545238D01*
X44179819Y-67545238D02*
X44132200Y-67640476D01*
X44132200Y-67640476D02*
X44084580Y-67688095D01*
X44084580Y-67688095D02*
X43989342Y-67735714D01*
X43989342Y-67735714D02*
X43798866Y-67735714D01*
X43798866Y-67735714D02*
X43703628Y-67688095D01*
X43703628Y-67688095D02*
X43656009Y-67640476D01*
X43656009Y-67640476D02*
X43608390Y-67545238D01*
D12*
X35840000Y-83663748D02*
X35840000Y-84186252D01*
X37310000Y-83663748D02*
X37310000Y-84186252D01*
X54075000Y-60905000D02*
X56800000Y-60905000D01*
X54075000Y-61165000D02*
X54075000Y-60905000D01*
X54075000Y-66095000D02*
X54075000Y-66355000D01*
X54075000Y-66355000D02*
X56800000Y-66355000D01*
X59525000Y-60905000D02*
X56800000Y-60905000D01*
X59525000Y-61165000D02*
X59525000Y-60905000D01*
X59525000Y-66095000D02*
X59525000Y-66355000D01*
X59525000Y-66355000D02*
X56800000Y-66355000D01*
X60307500Y-61165000D02*
X60067500Y-60835000D01*
X60547500Y-60835000D01*
X60307500Y-61165000D01*
G36*
X60307500Y-61165000D02*
G01*
X60067500Y-60835000D01*
X60547500Y-60835000D01*
X60307500Y-61165000D01*
G37*
X50453641Y-75445000D02*
X50146359Y-75445000D01*
X50453641Y-76205000D02*
X50146359Y-76205000D01*
X30881359Y-21020000D02*
X31188641Y-21020000D01*
X30881359Y-21780000D02*
X31188641Y-21780000D01*
X37640000Y-120965000D02*
X37640000Y-123465000D01*
X38690000Y-120965000D02*
X37640000Y-120965000D01*
X38810000Y-125435000D02*
X41690000Y-125435000D01*
X41810000Y-119975000D02*
X41810000Y-120965000D01*
X41810000Y-120965000D02*
X42860000Y-120965000D01*
X42860000Y-120965000D02*
X42860000Y-123465000D01*
X30640000Y-120965000D02*
X30640000Y-123465000D01*
X31690000Y-120965000D02*
X30640000Y-120965000D01*
X31810000Y-125435000D02*
X34690000Y-125435000D01*
X34810000Y-119975000D02*
X34810000Y-120965000D01*
X34810000Y-120965000D02*
X35860000Y-120965000D01*
X35860000Y-120965000D02*
X35860000Y-123465000D01*
X49107836Y-59440000D02*
X48892164Y-59440000D01*
X49107836Y-60160000D02*
X48892164Y-60160000D01*
X50096359Y-74145000D02*
X50403641Y-74145000D01*
X50096359Y-74905000D02*
X50403641Y-74905000D01*
X37053641Y-113570000D02*
X36746359Y-113570000D01*
X37053641Y-114330000D02*
X36746359Y-114330000D01*
X54196359Y-112395000D02*
X54503641Y-112395000D01*
X54196359Y-113155000D02*
X54503641Y-113155000D01*
X60543641Y-59670000D02*
X60236359Y-59670000D01*
X60543641Y-60430000D02*
X60236359Y-60430000D01*
X30943641Y-112495000D02*
X30636359Y-112495000D01*
X30943641Y-113255000D02*
X30636359Y-113255000D01*
X38040000Y-53492164D02*
X38040000Y-53707836D01*
X38760000Y-53492164D02*
X38760000Y-53707836D01*
X57537500Y-99890000D02*
X58187500Y-99890000D01*
X57537500Y-103010000D02*
X58187500Y-103010000D01*
X58837500Y-99890000D02*
X58187500Y-99890000D01*
X58837500Y-103010000D02*
X58187500Y-103010000D01*
X59350000Y-99940000D02*
X59110000Y-99610000D01*
X59590000Y-99610000D01*
X59350000Y-99940000D01*
G36*
X59350000Y-99940000D02*
G01*
X59110000Y-99610000D01*
X59590000Y-99610000D01*
X59350000Y-99940000D01*
G37*
X42965000Y-52662164D02*
X42965000Y-52877836D01*
X43685000Y-52662164D02*
X43685000Y-52877836D01*
X54503641Y-98920000D02*
X54196359Y-98920000D01*
X54503641Y-99680000D02*
X54196359Y-99680000D01*
X50956359Y-58820000D02*
X51263641Y-58820000D01*
X50956359Y-59580000D02*
X51263641Y-59580000D01*
X41840000Y-52647164D02*
X41840000Y-52862836D01*
X42560000Y-52647164D02*
X42560000Y-52862836D01*
X44640000Y-90736252D02*
X44640000Y-90213748D01*
X46110000Y-90736252D02*
X46110000Y-90213748D01*
X54171359Y-97470000D02*
X54478641Y-97470000D01*
X54171359Y-98230000D02*
X54478641Y-98230000D01*
X28882836Y-42740000D02*
X28667164Y-42740000D01*
X28882836Y-43460000D02*
X28667164Y-43460000D01*
X37346500Y-55050000D02*
X37346500Y-56000000D01*
X37346500Y-65350000D02*
X37346500Y-64400000D01*
X38296500Y-55050000D02*
X37346500Y-55050000D01*
X38296500Y-65350000D02*
X37346500Y-65350000D01*
X46696500Y-55050000D02*
X47646500Y-55050000D01*
X47646500Y-55050000D02*
X47646500Y-56000000D01*
X47646500Y-65590000D02*
X47646500Y-64400000D01*
X40746359Y-74470000D02*
X41053641Y-74470000D01*
X40746359Y-75230000D02*
X41053641Y-75230000D01*
X35078641Y-74445000D02*
X34771359Y-74445000D01*
X35078641Y-75205000D02*
X34771359Y-75205000D01*
X49912836Y-63665000D02*
X49697164Y-63665000D01*
X49912836Y-64385000D02*
X49697164Y-64385000D01*
X48972164Y-54640000D02*
X49187836Y-54640000D01*
X48972164Y-55360000D02*
X49187836Y-55360000D01*
X51396359Y-95870000D02*
X51703641Y-95870000D01*
X51396359Y-96630000D02*
X51703641Y-96630000D01*
X53827836Y-59865000D02*
X53612164Y-59865000D01*
X53827836Y-60585000D02*
X53612164Y-60585000D01*
X41078641Y-75645000D02*
X40771359Y-75645000D01*
X41078641Y-76405000D02*
X40771359Y-76405000D01*
X48240000Y-57092164D02*
X48240000Y-57307836D01*
X48960000Y-57092164D02*
X48960000Y-57307836D01*
X36968641Y-98770000D02*
X36661359Y-98770000D01*
X36968641Y-99530000D02*
X36661359Y-99530000D01*
X30100000Y-43450000D02*
X30100000Y-42850000D01*
X30800000Y-42150000D02*
X32200000Y-42150000D01*
X32200000Y-44150000D02*
X30800000Y-44150000D01*
X32900000Y-42850000D02*
X32900000Y-43450000D01*
X30100000Y-42850000D02*
G75*
G02*
X30800000Y-42150000I700000J0D01*
G01*
X30800000Y-44150000D02*
G75*
G02*
X30100000Y-43450000I0J700000D01*
G01*
X32200000Y-42150000D02*
G75*
G02*
X32900000Y-42850000I1J-699999D01*
G01*
X32900000Y-43450000D02*
G75*
G02*
X32200000Y-44150000I-699999J-1D01*
G01*
X35612164Y-63040000D02*
X35827836Y-63040000D01*
X35612164Y-63760000D02*
X35827836Y-63760000D01*
X51095000Y-63888641D02*
X51095000Y-63581359D01*
X51855000Y-63888641D02*
X51855000Y-63581359D01*
X40115000Y-67777836D02*
X40115000Y-67562164D01*
X40835000Y-67777836D02*
X40835000Y-67562164D01*
X58370000Y-73478641D02*
X58370000Y-73171359D01*
X59130000Y-73478641D02*
X59130000Y-73171359D01*
X27642164Y-61890000D02*
X27857836Y-61890000D01*
X27642164Y-62610000D02*
X27857836Y-62610000D01*
X31668641Y-96095000D02*
X31361359Y-96095000D01*
X31668641Y-96855000D02*
X31361359Y-96855000D01*
X27642164Y-62890000D02*
X27857836Y-62890000D01*
X27642164Y-63610000D02*
X27857836Y-63610000D01*
X33096359Y-60370000D02*
X33403641Y-60370000D01*
X33096359Y-61130000D02*
X33403641Y-61130000D01*
X26025000Y-35050000D02*
X26025000Y-34450000D01*
X26725000Y-33750000D02*
X28125000Y-33750000D01*
X28125000Y-35750000D02*
X26725000Y-35750000D01*
X28825000Y-34450000D02*
X28825000Y-35050000D01*
X26025000Y-34450000D02*
G75*
G02*
X26725000Y-33750000I700000J0D01*
G01*
X26725000Y-35750000D02*
G75*
G02*
X26025000Y-35050000I0J700000D01*
G01*
X28125000Y-33750000D02*
G75*
G02*
X28825000Y-34450000I1J-699999D01*
G01*
X28825000Y-35050000D02*
G75*
G02*
X28125000Y-35750000I-699999J-1D01*
G01*
X40165000Y-81615000D02*
X43925000Y-81615000D01*
X40165000Y-82875000D02*
X40165000Y-81615000D01*
X40165000Y-87175000D02*
X40165000Y-88435000D01*
X40165000Y-88435000D02*
X43925000Y-88435000D01*
X45205000Y-81715000D02*
X44965000Y-81385000D01*
X45445000Y-81385000D01*
X45205000Y-81715000D01*
G36*
X45205000Y-81715000D02*
G01*
X44965000Y-81385000D01*
X45445000Y-81385000D01*
X45205000Y-81715000D01*
G37*
X35392164Y-61315000D02*
X35607836Y-61315000D01*
X35392164Y-62035000D02*
X35607836Y-62035000D01*
X36671359Y-97770000D02*
X36978641Y-97770000D01*
X36671359Y-98530000D02*
X36978641Y-98530000D01*
X46440000Y-53492164D02*
X46440000Y-53707836D01*
X47160000Y-53492164D02*
X47160000Y-53707836D01*
X49240000Y-57092164D02*
X49240000Y-57307836D01*
X49960000Y-57092164D02*
X49960000Y-57307836D01*
X50956359Y-57820000D02*
X51263641Y-57820000D01*
X50956359Y-58580000D02*
X51263641Y-58580000D01*
X58420000Y-77578641D02*
X58420000Y-77271359D01*
X59180000Y-77578641D02*
X59180000Y-77271359D01*
X34892164Y-59440000D02*
X35107836Y-59440000D01*
X34892164Y-60160000D02*
X35107836Y-60160000D01*
X50846359Y-54620000D02*
X51153641Y-54620000D01*
X50846359Y-55380000D02*
X51153641Y-55380000D01*
X49395000Y-111368641D02*
X49395000Y-111061359D01*
X50155000Y-111368641D02*
X50155000Y-111061359D01*
X29715000Y-35900000D02*
X29715000Y-30700000D01*
X30285000Y-30700000D02*
X29715000Y-30700000D01*
X30285000Y-30700000D02*
X30285000Y-29260000D01*
X30285000Y-35900000D02*
X29715000Y-35900000D01*
X32825000Y-30700000D02*
X31805000Y-30700000D01*
X32825000Y-35900000D02*
X31805000Y-35900000D01*
X35365000Y-30700000D02*
X34345000Y-30700000D01*
X35365000Y-35900000D02*
X34345000Y-35900000D01*
X37905000Y-30700000D02*
X36885000Y-30700000D01*
X37905000Y-35900000D02*
X36885000Y-35900000D01*
X40445000Y-30700000D02*
X39425000Y-30700000D01*
X40445000Y-35900000D02*
X39425000Y-35900000D01*
X42985000Y-30700000D02*
X41965000Y-30700000D01*
X42985000Y-35900000D02*
X41965000Y-35900000D01*
X45525000Y-30700000D02*
X44505000Y-30700000D01*
X45525000Y-35900000D02*
X44505000Y-35900000D01*
X48065000Y-30700000D02*
X47045000Y-30700000D01*
X48065000Y-35900000D02*
X47045000Y-35900000D01*
X50605000Y-30700000D02*
X49585000Y-30700000D01*
X50605000Y-35900000D02*
X49585000Y-35900000D01*
X53145000Y-30700000D02*
X52125000Y-30700000D01*
X53145000Y-35900000D02*
X52125000Y-35900000D01*
X55235000Y-30700000D02*
X54665000Y-30700000D01*
X55235000Y-35900000D02*
X54665000Y-35900000D01*
X55235000Y-35900000D02*
X55235000Y-30700000D01*
X54378641Y-74420000D02*
X54071359Y-74420000D01*
X54378641Y-75180000D02*
X54071359Y-75180000D01*
X26025000Y-29975000D02*
X26025000Y-29375000D01*
X26725000Y-28675000D02*
X28125000Y-28675000D01*
X28125000Y-30675000D02*
X26725000Y-30675000D01*
X28825000Y-29375000D02*
X28825000Y-29975000D01*
X26025000Y-29375000D02*
G75*
G02*
X26725000Y-28675000I700000J0D01*
G01*
X26725000Y-30675000D02*
G75*
G02*
X26025000Y-29975000I0J700000D01*
G01*
X28125000Y-28675000D02*
G75*
G02*
X28825000Y-29375000I1J-699999D01*
G01*
X28825000Y-29975000D02*
G75*
G02*
X28125000Y-30675000I-699999J-1D01*
G01*
X57093641Y-59770000D02*
X56786359Y-59770000D01*
X57093641Y-60530000D02*
X56786359Y-60530000D01*
X46275000Y-122550000D02*
X46275000Y-124100000D01*
X46275000Y-124100000D02*
X46575000Y-124100000D01*
X46575000Y-124100000D02*
X46575000Y-126900000D01*
X51325000Y-120850000D02*
X52125000Y-120850000D01*
X51725000Y-121300000D02*
X51325000Y-120850000D01*
X52125000Y-120850000D02*
X51725000Y-121300000D01*
X54275000Y-124100000D02*
X54275000Y-126900000D01*
X54275000Y-124100000D02*
X54575000Y-124100000D01*
X54575000Y-122550000D02*
X54575000Y-124100000D01*
X36013748Y-103715000D02*
X36536252Y-103715000D01*
X36013748Y-105185000D02*
X36536252Y-105185000D01*
X54528641Y-113495000D02*
X54221359Y-113495000D01*
X54528641Y-114255000D02*
X54221359Y-114255000D01*
X24545000Y-75131359D02*
X24545000Y-75438641D01*
X25305000Y-75131359D02*
X25305000Y-75438641D01*
X45865000Y-68332836D02*
X45865000Y-68117164D01*
X46585000Y-68332836D02*
X46585000Y-68117164D01*
D11*
X58325000Y-99200000D02*
G75*
G02*
X58225000Y-99200000I-50000J0D01*
G01*
X58225000Y-99200000D02*
G75*
G02*
X58325000Y-99200000I50000J0D01*
G01*
D12*
X44228641Y-74420000D02*
X43921359Y-74420000D01*
X44228641Y-75180000D02*
X43921359Y-75180000D01*
X30853641Y-75570000D02*
X30546359Y-75570000D01*
X30853641Y-76330000D02*
X30546359Y-76330000D01*
X30496359Y-74395000D02*
X30803641Y-74395000D01*
X30496359Y-75155000D02*
X30803641Y-75155000D01*
X28750000Y-59600000D02*
X28750000Y-63600000D01*
X28750000Y-63600000D02*
X32050000Y-63600000D01*
X36696359Y-112345000D02*
X37003641Y-112345000D01*
X36696359Y-113105000D02*
X37003641Y-113105000D01*
X42265000Y-67187836D02*
X42265000Y-66972164D01*
X42985000Y-67187836D02*
X42985000Y-66972164D01*
%LPC*%
D13*
X36575000Y-84875000D03*
X36575000Y-82975000D03*
D14*
X60400000Y-61725000D03*
X60400000Y-62995000D03*
X60400000Y-64265000D03*
X60400000Y-65535000D03*
X53200000Y-65535000D03*
X53200000Y-64265000D03*
X53200000Y-62995000D03*
X53200000Y-61725000D03*
D15*
X49790000Y-75825000D03*
X50810000Y-75825000D03*
D16*
X31545000Y-21400000D03*
X30525000Y-21400000D03*
D17*
X41250000Y-120750000D03*
X40250000Y-120750000D03*
X39250000Y-120750000D03*
D18*
X42550000Y-124625000D03*
X37950000Y-124625000D03*
D17*
X34250000Y-120750000D03*
X33250000Y-120750000D03*
X32250000Y-120750000D03*
D18*
X35550000Y-124625000D03*
X30950000Y-124625000D03*
D19*
X48520000Y-59800000D03*
X49480000Y-59800000D03*
D16*
X50760000Y-74525000D03*
X49740000Y-74525000D03*
D15*
X36390000Y-113950000D03*
X37410000Y-113950000D03*
D16*
X54860000Y-112775000D03*
X53840000Y-112775000D03*
D15*
X59880000Y-60050000D03*
X60900000Y-60050000D03*
X30280000Y-112875000D03*
X31300000Y-112875000D03*
D20*
X52750000Y-113887500D03*
X49750000Y-113887500D03*
X52750000Y-112787500D03*
X49750000Y-112787500D03*
D21*
X38400000Y-54080000D03*
X38400000Y-53120000D03*
D22*
X59125000Y-100500000D03*
X59125000Y-102400000D03*
X57250000Y-101450000D03*
D21*
X43325000Y-53250000D03*
X43325000Y-52290000D03*
D15*
X53840000Y-99300000D03*
X54860000Y-99300000D03*
D16*
X51620000Y-59200000D03*
X50600000Y-59200000D03*
D21*
X42200000Y-53235000D03*
X42200000Y-52275000D03*
D23*
X45375000Y-89525000D03*
X45375000Y-91425000D03*
D24*
X26178713Y-107300000D03*
D25*
X27178713Y-114300000D03*
D16*
X54835000Y-97850000D03*
X53815000Y-97850000D03*
D19*
X28295000Y-43100000D03*
X29255000Y-43100000D03*
D26*
X46296500Y-65096500D03*
X45896500Y-65096500D03*
X45496500Y-65096500D03*
X45096500Y-65096500D03*
X44696500Y-65096500D03*
X44296500Y-65096500D03*
X43896500Y-65096500D03*
X43496500Y-65096500D03*
X43096500Y-65096500D03*
X42696500Y-65096500D03*
X42296500Y-65096500D03*
X41896500Y-65096500D03*
X41496500Y-65096500D03*
X41096500Y-65096500D03*
X40696500Y-65096500D03*
X40296500Y-65096500D03*
X39896500Y-65096500D03*
X39496500Y-65096500D03*
X39096500Y-65096500D03*
X38696500Y-65096500D03*
D27*
X37600000Y-64000000D03*
X37600000Y-63600000D03*
X37600000Y-63200000D03*
X37600000Y-62800000D03*
X37600000Y-62400000D03*
X37600000Y-62000000D03*
X37600000Y-61600000D03*
X37600000Y-61200000D03*
X37600000Y-60800000D03*
X37600000Y-60400000D03*
X37600000Y-60000000D03*
X37600000Y-59600000D03*
X37600000Y-59200000D03*
X37600000Y-58800000D03*
X37600000Y-58400000D03*
X37600000Y-58000000D03*
X37600000Y-57600000D03*
X37600000Y-57200000D03*
X37600000Y-56800000D03*
X37600000Y-56400000D03*
D26*
X38696500Y-55303500D03*
X39096500Y-55303500D03*
X39496500Y-55303500D03*
X39896500Y-55303500D03*
X40296500Y-55303500D03*
X40696500Y-55303500D03*
X41096500Y-55303500D03*
X41496500Y-55303500D03*
X41896500Y-55303500D03*
X42296500Y-55303500D03*
X42696500Y-55303500D03*
X43096500Y-55303500D03*
X43496500Y-55303500D03*
X43896500Y-55303500D03*
X44296500Y-55303500D03*
X44696500Y-55303500D03*
X45096500Y-55303500D03*
X45496500Y-55303500D03*
X45896500Y-55303500D03*
X46296500Y-55303500D03*
D27*
X47393000Y-56400000D03*
X47393000Y-56800000D03*
X47393000Y-57200000D03*
X47393000Y-57600000D03*
X47393000Y-58000000D03*
X47393000Y-58400000D03*
X47393000Y-58800000D03*
X47393000Y-59200000D03*
X47393000Y-59600000D03*
X47393000Y-60000000D03*
X47393000Y-60400000D03*
X47393000Y-60800000D03*
X47393000Y-61200000D03*
X47393000Y-61600000D03*
X47393000Y-62000000D03*
X47393000Y-62400000D03*
X47393000Y-62800000D03*
X47393000Y-63200000D03*
X47393000Y-63600000D03*
X47393000Y-64000000D03*
D28*
X41363167Y-61333333D03*
D29*
X41363167Y-61333333D03*
D28*
X42496500Y-61333333D03*
D29*
X42496500Y-61333333D03*
D28*
X43629833Y-61333333D03*
D29*
X43629833Y-61333333D03*
D28*
X41363167Y-60200000D03*
D29*
X41363167Y-60200000D03*
D28*
X42496500Y-60200000D03*
D29*
X42496500Y-60200000D03*
D28*
X43629833Y-60200000D03*
D29*
X43629833Y-60200000D03*
D28*
X41363167Y-59066667D03*
D29*
X41363167Y-59066667D03*
D28*
X42496500Y-59066667D03*
D29*
X42496500Y-59066667D03*
D28*
X43629833Y-59066667D03*
D29*
X43629833Y-59066667D03*
D20*
X35250000Y-113887500D03*
X32250000Y-113887500D03*
X35250000Y-112787500D03*
X32250000Y-112787500D03*
X48625000Y-75900000D03*
X45625000Y-75900000D03*
X48625000Y-74800000D03*
X45625000Y-74800000D03*
X52750000Y-99050000D03*
X49750000Y-99050000D03*
X52750000Y-97950000D03*
X49750000Y-97950000D03*
X35250000Y-99050000D03*
X32250000Y-99050000D03*
X35250000Y-97950000D03*
X32250000Y-97950000D03*
D30*
X43538102Y-42600000D03*
D31*
X40788102Y-42600000D03*
X37288102Y-42600000D03*
D30*
X34538102Y-42600000D03*
D16*
X41410000Y-74850000D03*
X40390000Y-74850000D03*
D15*
X34415000Y-74825000D03*
X35435000Y-74825000D03*
D19*
X49325000Y-64025000D03*
X50285000Y-64025000D03*
D20*
X39400000Y-75900000D03*
X36400000Y-75900000D03*
X39400000Y-74800000D03*
X36400000Y-74800000D03*
D32*
X49560000Y-55000000D03*
X48600000Y-55000000D03*
D16*
X52060000Y-96250000D03*
X51040000Y-96250000D03*
D19*
X53240000Y-60225000D03*
X54200000Y-60225000D03*
D15*
X40415000Y-76025000D03*
X41435000Y-76025000D03*
D21*
X48600000Y-57680000D03*
X48600000Y-56720000D03*
D15*
X36305000Y-99150000D03*
X37325000Y-99150000D03*
D33*
X32150000Y-43150000D03*
D34*
X30850000Y-43150000D03*
D32*
X36200000Y-63400000D03*
X35240000Y-63400000D03*
D35*
X51475000Y-63225000D03*
X51475000Y-64245000D03*
D36*
X40475000Y-67190000D03*
X40475000Y-68150000D03*
D35*
X58750000Y-72815000D03*
X58750000Y-73835000D03*
D37*
X38928500Y-21200000D03*
D38*
X34546500Y-21200000D03*
D37*
X38928500Y-22700000D03*
D38*
X34550000Y-22700000D03*
D32*
X28230000Y-62250000D03*
X27270000Y-62250000D03*
D15*
X31005000Y-96475000D03*
X32025000Y-96475000D03*
D32*
X28230000Y-63250000D03*
X27270000Y-63250000D03*
D16*
X33760000Y-60750000D03*
X32740000Y-60750000D03*
D33*
X28075000Y-34750000D03*
D34*
X26775000Y-34750000D03*
D39*
X45225000Y-82725000D03*
X45225000Y-85025000D03*
D40*
X38925000Y-85025000D03*
D39*
X45225000Y-87325000D03*
D32*
X35980000Y-61675000D03*
X35020000Y-61675000D03*
D16*
X37335000Y-98150000D03*
X36315000Y-98150000D03*
D41*
X46300000Y-103200000D03*
X43700000Y-103200000D03*
X41100000Y-103200000D03*
D42*
X46338000Y-113243000D03*
D43*
X43719000Y-113243000D03*
D44*
X41119000Y-113243000D03*
D21*
X46800000Y-54080000D03*
X46800000Y-53120000D03*
D20*
X58775000Y-75900000D03*
X55775000Y-75900000D03*
X58775000Y-74800000D03*
X55775000Y-74800000D03*
D21*
X49600000Y-57680000D03*
X49600000Y-56720000D03*
D16*
X51620000Y-58200000D03*
X50600000Y-58200000D03*
D35*
X58800000Y-76915000D03*
X58800000Y-77935000D03*
D32*
X35480000Y-59800000D03*
X34520000Y-59800000D03*
D16*
X51510000Y-55000000D03*
X50490000Y-55000000D03*
D35*
X49775000Y-110705000D03*
X49775000Y-111725000D03*
D45*
X31045000Y-30775000D03*
X31045000Y-35825000D03*
X33585000Y-30775000D03*
X33585000Y-35825000D03*
X36125000Y-30775000D03*
X36125000Y-35825000D03*
X38665000Y-30775000D03*
X38665000Y-35825000D03*
X41205000Y-30775000D03*
X41205000Y-35825000D03*
X43745000Y-30775000D03*
X43745000Y-35825000D03*
X46285000Y-30775000D03*
X46285000Y-35825000D03*
X48825000Y-30775000D03*
X48825000Y-35825000D03*
X51365000Y-30775000D03*
X51365000Y-35825000D03*
X53905000Y-30775000D03*
X53905000Y-35825000D03*
D46*
X54100000Y-106400000D03*
X57100000Y-106400000D03*
D15*
X53715000Y-74800000D03*
X54735000Y-74800000D03*
D33*
X28075000Y-29675000D03*
D34*
X26775000Y-29675000D03*
D15*
X56430000Y-60150000D03*
X57450000Y-60150000D03*
D47*
X51725000Y-122400000D03*
X51075000Y-122400000D03*
X50425000Y-122400000D03*
X49775000Y-122400000D03*
X49125000Y-122400000D03*
D48*
X53375000Y-123600000D03*
D49*
X53275000Y-122300000D03*
D50*
X53155000Y-125280000D03*
D51*
X53155000Y-124350000D03*
D52*
X52845000Y-122280000D03*
D53*
X51385000Y-125550000D03*
X49465000Y-125550000D03*
D52*
X48005000Y-122280000D03*
D50*
X47695000Y-125280000D03*
D51*
X47675000Y-124350000D03*
D49*
X47525000Y-122280000D03*
D48*
X47425000Y-123600000D03*
D54*
X37225000Y-104450000D03*
X35325000Y-104450000D03*
D15*
X53865000Y-113875000D03*
X54885000Y-113875000D03*
D55*
X24925000Y-75795000D03*
X24925000Y-74775000D03*
D36*
X46225000Y-67745000D03*
X46225000Y-68705000D03*
D56*
X57670000Y-99200000D03*
X56700000Y-99200000D03*
D15*
X43565000Y-74800000D03*
X44585000Y-74800000D03*
X30190000Y-75950000D03*
X31210000Y-75950000D03*
D16*
X31160000Y-74775000D03*
X30140000Y-74775000D03*
D20*
X29250000Y-75900000D03*
X26250000Y-75900000D03*
X29250000Y-74800000D03*
X26250000Y-74800000D03*
D57*
X29550000Y-62700000D03*
X29550000Y-60500000D03*
X31250000Y-60500000D03*
X31250000Y-62700000D03*
D16*
X37360000Y-112725000D03*
X36340000Y-112725000D03*
D36*
X42625000Y-66600000D03*
X42625000Y-67560000D03*
%LPD*%
M02*
