M48
; DRILL file {KiCad 8.0.4} date 2024-10-07T04:48:44+1100
; FORMAT={-:-/ absolute / metric / decimal}
; #@! TF.CreationDate,2024-10-07T04:48:44+11:00
; #@! TF.GenerationSoftware,Kicad,Pcbnew,8.0.4
; #@! TF.FileFunction,Plated,1,4,PTH
FMAT,2
METRIC
; #@! TA.AperFunction,Plated,PTH,ViaDrill
T1C0.300
; #@! TA.AperFunction,Plated,PTH,ComponentDrill
T2C0.300
; #@! TA.AperFunction,Plated,PTH,ComponentDrill
T3C0.650
; #@! TA.AperFunction,Plated,PTH,ComponentDrill
T4C0.700
%
G90
G05
T1
X23.068Y-62.885
X25.125Y-78.15
X25.225Y-64.975
X25.6Y-59.4
X25.75Y-107.75
X26.325Y-73.95
X26.825Y-29.75
X26.825Y-34.825
X28.275Y-60.15
X28.52Y-92.975
X29.52Y-108.927
X29.6Y-64.0
X29.77Y-101.225
X30.02Y-116.975
X30.125Y-97.225
X30.225Y-112.925
X30.55Y-81.7
X31.0Y-93.0
X31.0Y-126.2
X31.075Y-30.825
X31.325Y-73.175
X32.0Y-109.0
X32.25Y-97.125
X32.25Y-101.25
X32.25Y-111.975
X32.25Y-120.75
X32.5Y-117.0
X32.575Y-62.725
X32.95Y-70.0
X32.95Y-75.825
X33.0Y-81.75
X33.4Y-122.2
X33.575Y-30.675
X33.6Y-59.8
X33.982Y-62.01
X34.175Y-104.3
X34.25Y-120.75
X34.275Y-63.325
X34.375Y-77.15
X34.55Y-42.65
X34.925Y-58.245
X35.0Y-65.75
X35.002Y-66.532
X35.003Y-68.887
X35.003Y-67.317
X35.004Y-68.101
X35.6Y-126.0
X35.775Y-55.825
X35.975Y-62.5
X36.05Y-54.8
X36.1Y-57.375
X36.125Y-30.725
X36.15Y-35.925
X36.425Y-73.975
X36.65Y-81.85
X36.75Y-86.05
X37.2Y-42.675
X37.325Y-97.225
X37.475Y-111.35
X37.5Y-54.275
X38.0Y-126.0
X38.25Y-120.375
X38.3Y-104.5
X38.313Y-52.777
X38.5Y-39.0
X38.5Y-52.0
X38.7Y-30.8
X38.875Y-114.075
X39.05Y-99.15
X39.125Y-62.125
X39.55Y-67.3
X39.55Y-68.225
X39.7Y-53.65
X39.75Y-40.75
X39.75Y-73.15
X39.85Y-56.95
X39.925Y-63.6
X40.312Y-122.112
X40.75Y-39.0
X41.125Y-64.025
X41.139Y-122.45
X41.275Y-30.95
X41.275Y-35.875
X41.411Y-69.807
X41.741Y-69.027
X41.943Y-107.281
X41.945Y-106.5
X42.0Y-40.75
X42.125Y-54.15
X42.25Y-48.25
X42.25Y-49.25
X42.25Y-50.25
X42.25Y-51.25
X42.277Y-68.46
X42.4Y-102.625
X42.52Y-77.75
X42.52Y-94.725
X42.52Y-110.975
X42.52Y-118.975
X42.6Y-126.0
X43.0Y-39.0
X43.0Y-69.0
X43.2Y-69.8
X43.385Y-106.55
X43.4Y-68.2
X43.675Y-51.175
X43.75Y-30.725
X44.25Y-40.75
X44.461Y-49.823
X44.625Y-69.6
X44.675Y-74.025
X45.0Y-77.75
X45.0Y-94.75
X45.0Y-102.75
X45.0Y-111.0
X45.0Y-119.0
X45.15Y-56.525
X45.25Y-39.0
X45.25Y-57.975
X45.45Y-67.175
X45.675Y-60.125
X45.675Y-73.975
X45.925Y-54.2
X46.1Y-61.2
X46.2Y-62.07
X46.2Y-57.325
X46.2Y-63.8
X46.225Y-62.85
X46.3Y-30.725
X46.325Y-35.9
X46.35Y-100.8
X46.375Y-59.675
X46.45Y-115.225
X46.5Y-40.75
X46.7Y-92.5
X46.8Y-52.2
X47.0Y-85.5
X47.175Y-80.825
X47.224Y-66.536
X47.375Y-68.69
X47.8Y-67.342
X48.125Y-90.325
X48.375Y-69.245
X48.385Y-64.19
X48.4Y-55.0
X48.4Y-68.157
X48.52Y-60.45
X48.589Y-63.181
X48.6Y-56.2
X48.85Y-30.775
X48.85Y-35.875
X49.028Y-117.572
X49.325Y-62.1
X49.45Y-63.15
X49.5Y-85.5
X49.6Y-56.2
X49.625Y-57.7
X49.75Y-97.15
X49.825Y-110.975
X49.945Y-65.75
X50.2Y-60.525
X50.375Y-63.175
X50.4Y-116.975
X50.775Y-73.425
X51.075Y-101.125
X51.3Y-35.925
X51.4Y-30.7
X51.45Y-63.2
X51.725Y-103.8
X52.325Y-55.025
X52.375Y-60.2
X52.5Y-117.0
X52.525Y-104.925
X52.75Y-101.25
X53.0Y-109.0
X53.175Y-65.575
X53.45Y-63.0
X53.75Y-80.25
X53.75Y-93.0
X53.825Y-74.925
X53.875Y-30.7
X53.925Y-35.875
X54.7Y-64.1
X54.875Y-96.55
X55.02Y-116.975
X55.025Y-60.225
X55.27Y-101.225
X55.52Y-108.975
X55.725Y-87.125
X55.825Y-74.025
X56.075Y-112.95
X56.27Y-80.275
X56.27Y-92.975
X57.075Y-113.675
X57.25Y-72.575
X57.775Y-98.25
X58.5Y-64.225
X58.65Y-62.9
X58.95Y-60.05
X59.15Y-98.875
X59.2Y-103.625
X60.4Y-65.6
T2
X41.363Y-59.067
X41.363Y-60.2
X41.363Y-61.333
X42.496Y-59.067
X42.496Y-60.2
X42.496Y-61.333
X43.63Y-59.067
X43.63Y-60.2
X43.63Y-61.333
T3
X48.005Y-122.48G85X48.005Y-122.08
G05
X52.845Y-122.48G85X52.845Y-122.08
G05
T4
X47.695Y-125.53G85X47.695Y-125.03
G05
X53.155Y-125.53G85X53.155Y-125.03
G05
M30
