G04 #@! TF.GenerationSoftware,KiCad,Pcbnew,8.0.4*
G04 #@! TF.CreationDate,2024-10-07T04:48:17+11:00*
G04 #@! TF.ProjectId,nokia,6e6f6b69-612e-46b6-9963-61645f706362,rev?*
G04 #@! TF.SameCoordinates,Original*
G04 #@! TF.FileFunction,Soldermask,Bot*
G04 #@! TF.FilePolarity,Negative*
%FSLAX46Y46*%
G04 Gerber Fmt 4.6, Leading zero omitted, Abs format (unit mm)*
G04 Created by KiCad (PCBNEW 8.0.4) date 2024-10-07 04:48:17*
%MOMM*%
%LPD*%
G01*
G04 APERTURE LIST*
G04 Aperture macros list*
%AMRoundRect*
0 Rectangle with rounded corners*
0 $1 Rounding radius*
0 $2 $3 $4 $5 $6 $7 $8 $9 X,Y pos of 4 corners*
0 Add a 4 corners polygon primitive as box body*
4,1,4,$2,$3,$4,$5,$6,$7,$8,$9,$2,$3,0*
0 Add four circle primitives for the rounded corners*
1,1,$1+$1,$2,$3*
1,1,$1+$1,$4,$5*
1,1,$1+$1,$6,$7*
1,1,$1+$1,$8,$9*
0 Add four rect primitives between the rounded corners*
20,1,$1+$1,$2,$3,$4,$5,0*
20,1,$1+$1,$4,$5,$6,$7,0*
20,1,$1+$1,$6,$7,$8,$9,0*
20,1,$1+$1,$8,$9,$2,$3,0*%
%AMFreePoly0*
4,1,17,1.239561,1.918663,1.288452,1.862240,1.300426,1.807198,1.300426,-1.628440,1.279392,-1.700074,1.222969,-1.748965,1.167927,-1.760939,-1.241481,-1.760939,-1.313115,-1.739905,-1.362006,-1.683482,-1.373980,-1.628440,-1.373980,1.807198,-1.352946,1.878832,-1.296523,1.927723,-1.241481,1.939697,1.167927,1.939697,1.239561,1.918663,1.239561,1.918663,$1*%
%AMFreePoly1*
4,1,21,1.481047,1.611465,1.529938,1.555042,1.541912,1.500000,1.541912,-2.069488,1.520878,-2.141122,1.464455,-2.190013,1.409413,-2.201987,-1.000000,-2.201987,-1.071634,-2.180953,-1.120525,-2.124530,-1.132499,-2.069488,-1.132499,-0.453074,-1.143000,-0.381000,-1.143000,0.381000,-1.132499,0.453074,-1.132499,1.500000,-1.111465,1.571634,-1.055042,1.620525,-1.000000,1.632499,1.409413,1.632499,
1.481047,1.611465,1.481047,1.611465,$1*%
%AMFreePoly2*
4,1,19,0.500000,-0.750000,0.000000,-0.750000,0.000000,-0.744911,-0.071157,-0.744911,-0.207708,-0.704816,-0.327430,-0.627875,-0.420627,-0.520320,-0.479746,-0.390866,-0.500000,-0.250000,-0.500000,0.250000,-0.479746,0.390866,-0.420627,0.520320,-0.327430,0.627875,-0.207708,0.704816,-0.071157,0.744911,0.000000,0.744911,0.000000,0.750000,0.500000,0.750000,0.500000,-0.750000,0.500000,-0.750000,
$1*%
%AMFreePoly3*
4,1,19,0.000000,0.744911,0.071157,0.744911,0.207708,0.704816,0.327430,0.627875,0.420627,0.520320,0.479746,0.390866,0.500000,0.250000,0.500000,-0.250000,0.479746,-0.390866,0.420627,-0.520320,0.327430,-0.627875,0.207708,-0.704816,0.071157,-0.744911,0.000000,-0.744911,0.000000,-0.750000,-0.500000,-0.750000,-0.500000,0.750000,0.000000,0.750000,0.000000,0.744911,0.000000,0.744911,
$1*%
G04 Aperture macros list end*
%ADD10RoundRect,0.250000X0.475000X-0.250000X0.475000X0.250000X-0.475000X0.250000X-0.475000X-0.250000X0*%
%ADD11RoundRect,0.150000X0.650000X0.150000X-0.650000X0.150000X-0.650000X-0.150000X0.650000X-0.150000X0*%
%ADD12RoundRect,0.135000X-0.135000X-0.185000X0.135000X-0.185000X0.135000X0.185000X-0.135000X0.185000X0*%
%ADD13RoundRect,0.135000X0.135000X0.185000X-0.135000X0.185000X-0.135000X-0.185000X0.135000X-0.185000X0*%
%ADD14RoundRect,0.150000X0.150000X0.625000X-0.150000X0.625000X-0.150000X-0.625000X0.150000X-0.625000X0*%
%ADD15RoundRect,0.250000X0.350000X0.650000X-0.350000X0.650000X-0.350000X-0.650000X0.350000X-0.650000X0*%
%ADD16RoundRect,0.140000X-0.140000X-0.170000X0.140000X-0.170000X0.140000X0.170000X-0.140000X0.170000X0*%
%ADD17R,0.800000X0.700000*%
%ADD18RoundRect,0.140000X0.170000X-0.140000X0.170000X0.140000X-0.170000X0.140000X-0.170000X-0.140000X0*%
%ADD19RoundRect,0.150000X0.587500X0.150000X-0.587500X0.150000X-0.587500X-0.150000X0.587500X-0.150000X0*%
%ADD20RoundRect,0.250000X-0.475000X0.250000X-0.475000X-0.250000X0.475000X-0.250000X0.475000X0.250000X0*%
%ADD21FreePoly0,180.000000*%
%ADD22FreePoly1,180.000000*%
%ADD23RoundRect,0.055000X-0.055000X-0.335000X0.055000X-0.335000X0.055000X0.335000X-0.055000X0.335000X0*%
%ADD24RoundRect,0.055000X0.335000X-0.055000X0.335000X0.055000X-0.335000X0.055000X-0.335000X-0.055000X0*%
%ADD25C,0.600000*%
%ADD26R,1.133333X1.133333*%
%ADD27RoundRect,0.100000X0.900000X0.900000X-0.900000X0.900000X-0.900000X-0.900000X0.900000X-0.900000X0*%
%ADD28RoundRect,0.100000X1.150000X0.900000X-1.150000X0.900000X-1.150000X-0.900000X1.150000X-0.900000X0*%
%ADD29RoundRect,0.140000X0.140000X0.170000X-0.140000X0.170000X-0.140000X-0.170000X0.140000X-0.170000X0*%
%ADD30RoundRect,0.135000X0.185000X-0.135000X0.185000X0.135000X-0.185000X0.135000X-0.185000X-0.135000X0*%
%ADD31FreePoly2,180.000000*%
%ADD32FreePoly3,180.000000*%
%ADD33RoundRect,0.135000X-0.185000X0.135000X-0.185000X-0.135000X0.185000X-0.135000X0.185000X0.135000X0*%
%ADD34RoundRect,0.140000X-0.170000X0.140000X-0.170000X-0.140000X0.170000X-0.140000X0.170000X0.140000X0*%
%ADD35RoundRect,0.250000X0.893000X0.250000X-0.893000X0.250000X-0.893000X-0.250000X0.893000X-0.250000X0*%
%ADD36RoundRect,0.375000X0.625000X0.375000X-0.625000X0.375000X-0.625000X-0.375000X0.625000X-0.375000X0*%
%ADD37RoundRect,0.500000X0.500000X1.400000X-0.500000X1.400000X-0.500000X-1.400000X0.500000X-1.400000X0*%
%ADD38RoundRect,0.390500X0.390500X-1.281000X0.390500X1.281000X-0.390500X1.281000X-0.390500X-1.281000X0*%
%ADD39RoundRect,0.390500X0.390500X-1.181000X0.390500X1.181000X-0.390500X1.181000X-0.390500X-1.181000X0*%
%ADD40RoundRect,0.400000X0.400000X-1.171500X0.400000X1.171500X-0.400000X1.171500X-0.400000X-1.171500X0*%
%ADD41RoundRect,0.381000X0.381000X-1.190500X0.381000X1.190500X-0.381000X1.190500X-0.381000X-1.190500X0*%
%ADD42R,1.000000X3.150000*%
%ADD43RoundRect,0.500000X0.500000X1.700000X-0.500000X1.700000X-0.500000X-1.700000X0.500000X-1.700000X0*%
%ADD44R,0.400000X1.650000*%
%ADD45R,1.825000X0.700000*%
%ADD46R,2.000000X1.500000*%
%ADD47O,1.350000X1.700000*%
%ADD48R,1.350000X2.000000*%
%ADD49O,1.100000X1.500000*%
%ADD50R,1.430000X2.500000*%
%ADD51RoundRect,0.250000X0.250000X0.475000X-0.250000X0.475000X-0.250000X-0.475000X0.250000X-0.475000X0*%
%ADD52RoundRect,0.147500X0.147500X0.172500X-0.147500X0.172500X-0.147500X-0.172500X0.147500X-0.172500X0*%
%ADD53R,1.200000X1.400000*%
G04 APERTURE END LIST*
D10*
X36575000Y-84875000D03*
X36575000Y-82975000D03*
D11*
X60400000Y-61725000D03*
X60400000Y-62995000D03*
X60400000Y-64265000D03*
X60400000Y-65535000D03*
X53200000Y-65535000D03*
X53200000Y-64265000D03*
X53200000Y-62995000D03*
X53200000Y-61725000D03*
D12*
X49755000Y-74525000D03*
X50775000Y-74525000D03*
D13*
X31545000Y-21400000D03*
X30525000Y-21400000D03*
D14*
X41250000Y-120750000D03*
X40250000Y-120750000D03*
X39250000Y-120750000D03*
D15*
X42550000Y-124625000D03*
X37950000Y-124625000D03*
D14*
X34250000Y-120750000D03*
X33250000Y-120750000D03*
X32250000Y-120750000D03*
D15*
X35550000Y-124625000D03*
X30950000Y-124625000D03*
D16*
X48520000Y-59800000D03*
X49480000Y-59800000D03*
D13*
X50825000Y-75775000D03*
X49805000Y-75775000D03*
D12*
X36380000Y-112950000D03*
X37400000Y-112950000D03*
D13*
X54860000Y-114000000D03*
X53840000Y-114000000D03*
D12*
X59880000Y-60050000D03*
X60900000Y-60050000D03*
X30200000Y-114075000D03*
X31220000Y-114075000D03*
D17*
X52750000Y-112787500D03*
X49750000Y-112787500D03*
X52750000Y-113887500D03*
X49750000Y-113887500D03*
D18*
X38400000Y-54080000D03*
X38400000Y-53120000D03*
D19*
X59125000Y-100500000D03*
X59125000Y-102400000D03*
X57250000Y-101450000D03*
D18*
X43325000Y-53250000D03*
X43325000Y-52290000D03*
D12*
X53830000Y-97900000D03*
X54850000Y-97900000D03*
D13*
X51620000Y-59200000D03*
X50600000Y-59200000D03*
D18*
X42200000Y-53235000D03*
X42200000Y-52275000D03*
D20*
X45375000Y-89525000D03*
X45375000Y-91425000D03*
D21*
X26178713Y-107300000D03*
D22*
X27178713Y-114300000D03*
D13*
X54860000Y-99225000D03*
X53840000Y-99225000D03*
D16*
X28295000Y-43100000D03*
X29255000Y-43100000D03*
D23*
X46296500Y-65096500D03*
X45896500Y-65096500D03*
X45496500Y-65096500D03*
X45096500Y-65096500D03*
X44696500Y-65096500D03*
X44296500Y-65096500D03*
X43896500Y-65096500D03*
X43496500Y-65096500D03*
X43096500Y-65096500D03*
X42696500Y-65096500D03*
X42296500Y-65096500D03*
X41896500Y-65096500D03*
X41496500Y-65096500D03*
X41096500Y-65096500D03*
X40696500Y-65096500D03*
X40296500Y-65096500D03*
X39896500Y-65096500D03*
X39496500Y-65096500D03*
X39096500Y-65096500D03*
X38696500Y-65096500D03*
D24*
X37600000Y-64000000D03*
X37600000Y-63600000D03*
X37600000Y-63200000D03*
X37600000Y-62800000D03*
X37600000Y-62400000D03*
X37600000Y-62000000D03*
X37600000Y-61600000D03*
X37600000Y-61200000D03*
X37600000Y-60800000D03*
X37600000Y-60400000D03*
X37600000Y-60000000D03*
X37600000Y-59600000D03*
X37600000Y-59200000D03*
X37600000Y-58800000D03*
X37600000Y-58400000D03*
X37600000Y-58000000D03*
X37600000Y-57600000D03*
X37600000Y-57200000D03*
X37600000Y-56800000D03*
X37600000Y-56400000D03*
D23*
X38696500Y-55303500D03*
X39096500Y-55303500D03*
X39496500Y-55303500D03*
X39896500Y-55303500D03*
X40296500Y-55303500D03*
X40696500Y-55303500D03*
X41096500Y-55303500D03*
X41496500Y-55303500D03*
X41896500Y-55303500D03*
X42296500Y-55303500D03*
X42696500Y-55303500D03*
X43096500Y-55303500D03*
X43496500Y-55303500D03*
X43896500Y-55303500D03*
X44296500Y-55303500D03*
X44696500Y-55303500D03*
X45096500Y-55303500D03*
X45496500Y-55303500D03*
X45896500Y-55303500D03*
X46296500Y-55303500D03*
D24*
X47393000Y-56400000D03*
X47393000Y-56800000D03*
X47393000Y-57200000D03*
X47393000Y-57600000D03*
X47393000Y-58000000D03*
X47393000Y-58400000D03*
X47393000Y-58800000D03*
X47393000Y-59200000D03*
X47393000Y-59600000D03*
X47393000Y-60000000D03*
X47393000Y-60400000D03*
X47393000Y-60800000D03*
X47393000Y-61200000D03*
X47393000Y-61600000D03*
X47393000Y-62000000D03*
X47393000Y-62400000D03*
X47393000Y-62800000D03*
X47393000Y-63200000D03*
X47393000Y-63600000D03*
X47393000Y-64000000D03*
D25*
X41363167Y-61333333D03*
D26*
X41363167Y-61333333D03*
D25*
X42496500Y-61333333D03*
D26*
X42496500Y-61333333D03*
D25*
X43629833Y-61333333D03*
D26*
X43629833Y-61333333D03*
D25*
X41363167Y-60200000D03*
D26*
X41363167Y-60200000D03*
D25*
X42496500Y-60200000D03*
D26*
X42496500Y-60200000D03*
D25*
X43629833Y-60200000D03*
D26*
X43629833Y-60200000D03*
D25*
X41363167Y-59066667D03*
D26*
X41363167Y-59066667D03*
D25*
X42496500Y-59066667D03*
D26*
X42496500Y-59066667D03*
D25*
X43629833Y-59066667D03*
D26*
X43629833Y-59066667D03*
D17*
X35250000Y-112787500D03*
X32250000Y-112787500D03*
X35250000Y-113887500D03*
X32250000Y-113887500D03*
X48625000Y-74800000D03*
X45625000Y-74800000D03*
X48625000Y-75900000D03*
X45625000Y-75900000D03*
X52750000Y-97950000D03*
X49750000Y-97950000D03*
X52750000Y-99050000D03*
X49750000Y-99050000D03*
X35250000Y-97950000D03*
X32250000Y-97950000D03*
X35250000Y-99050000D03*
X32250000Y-99050000D03*
D27*
X43538102Y-42600000D03*
D28*
X40788102Y-42600000D03*
X37288102Y-42600000D03*
D27*
X34538102Y-42600000D03*
D13*
X41425000Y-76000000D03*
X40405000Y-76000000D03*
D12*
X34390000Y-75925000D03*
X35410000Y-75925000D03*
D16*
X49325000Y-64025000D03*
X50285000Y-64025000D03*
D17*
X39400000Y-74800000D03*
X36400000Y-74800000D03*
X39400000Y-75900000D03*
X36400000Y-75900000D03*
D29*
X49560000Y-55000000D03*
X48600000Y-55000000D03*
D30*
X49775000Y-101160000D03*
X49775000Y-100140000D03*
D16*
X53240000Y-60225000D03*
X54200000Y-60225000D03*
D12*
X40430000Y-74900000D03*
X41450000Y-74900000D03*
D18*
X48600000Y-57680000D03*
X48600000Y-56720000D03*
D12*
X36240000Y-98150000D03*
X37260000Y-98150000D03*
D31*
X32150000Y-43150000D03*
D32*
X30850000Y-43150000D03*
D29*
X36200000Y-63400000D03*
X35240000Y-63400000D03*
D33*
X51475000Y-63225000D03*
X51475000Y-64245000D03*
D34*
X40475000Y-67190000D03*
X40475000Y-68150000D03*
D30*
X58750000Y-77970000D03*
X58750000Y-76950000D03*
D35*
X39500000Y-21400000D03*
X34000000Y-21400000D03*
X39500000Y-24300000D03*
X34000000Y-24300000D03*
D29*
X28230000Y-62250000D03*
X27270000Y-62250000D03*
D12*
X30140000Y-99050000D03*
X31160000Y-99050000D03*
D29*
X28230000Y-63250000D03*
X27270000Y-63250000D03*
D13*
X33760000Y-60750000D03*
X32740000Y-60750000D03*
D31*
X28075000Y-34750000D03*
D32*
X26775000Y-34750000D03*
D36*
X45225000Y-82725000D03*
X45225000Y-85025000D03*
D37*
X38925000Y-85025000D03*
D36*
X45225000Y-87325000D03*
D29*
X35980000Y-61675000D03*
X35020000Y-61675000D03*
D13*
X37245000Y-99150000D03*
X36225000Y-99150000D03*
D38*
X46300000Y-103200000D03*
X43700000Y-103200000D03*
X41100000Y-103200000D03*
D39*
X46338000Y-113243000D03*
D40*
X43719000Y-113243000D03*
D41*
X41119000Y-113243000D03*
D18*
X46800000Y-54080000D03*
X46800000Y-53120000D03*
D17*
X58775000Y-74800000D03*
X55775000Y-74800000D03*
X58775000Y-75900000D03*
X55775000Y-75900000D03*
D18*
X49600000Y-57680000D03*
X49600000Y-56720000D03*
D13*
X51620000Y-58200000D03*
X50600000Y-58200000D03*
D30*
X58725000Y-73720000D03*
X58725000Y-72700000D03*
D29*
X35480000Y-59800000D03*
X34520000Y-59800000D03*
D13*
X51510000Y-55000000D03*
X50490000Y-55000000D03*
D30*
X49800000Y-115945000D03*
X49800000Y-114925000D03*
D42*
X31045000Y-30775000D03*
X31045000Y-35825000D03*
X33585000Y-30775000D03*
X33585000Y-35825000D03*
X36125000Y-30775000D03*
X36125000Y-35825000D03*
X38665000Y-30775000D03*
X38665000Y-35825000D03*
X41205000Y-30775000D03*
X41205000Y-35825000D03*
X43745000Y-30775000D03*
X43745000Y-35825000D03*
X46285000Y-30775000D03*
X46285000Y-35825000D03*
X48825000Y-30775000D03*
X48825000Y-35825000D03*
X51365000Y-30775000D03*
X51365000Y-35825000D03*
X53905000Y-30775000D03*
X53905000Y-35825000D03*
D43*
X54100000Y-106400000D03*
X57100000Y-106400000D03*
D12*
X53840000Y-75925000D03*
X54860000Y-75925000D03*
D31*
X28075000Y-29675000D03*
D32*
X26775000Y-29675000D03*
D12*
X56430000Y-60150000D03*
X57450000Y-60150000D03*
D44*
X51725000Y-122400000D03*
X51075000Y-122400000D03*
X50425000Y-122400000D03*
X49775000Y-122400000D03*
X49125000Y-122400000D03*
D45*
X53375000Y-123600000D03*
D46*
X53275000Y-122300000D03*
D47*
X53155000Y-125280000D03*
D48*
X53155000Y-124350000D03*
D49*
X52845000Y-122280000D03*
D50*
X51385000Y-125550000D03*
X49465000Y-125550000D03*
D49*
X48005000Y-122280000D03*
D47*
X47695000Y-125280000D03*
D48*
X47675000Y-124350000D03*
D46*
X47525000Y-122280000D03*
D45*
X47425000Y-123600000D03*
D51*
X37225000Y-104450000D03*
X35325000Y-104450000D03*
D12*
X53805000Y-112950000D03*
X54825000Y-112950000D03*
D30*
X26250000Y-77960000D03*
X26250000Y-76940000D03*
D34*
X46225000Y-67745000D03*
X46225000Y-68705000D03*
D52*
X57670000Y-99200000D03*
X56700000Y-99200000D03*
D12*
X43505000Y-76050000D03*
X44525000Y-76050000D03*
X30265000Y-74850000D03*
X31285000Y-74850000D03*
D13*
X31270000Y-75875000D03*
X30250000Y-75875000D03*
D17*
X29250000Y-74800000D03*
X26250000Y-74800000D03*
X29250000Y-75900000D03*
X26250000Y-75900000D03*
D53*
X29550000Y-62700000D03*
X29550000Y-60500000D03*
X31250000Y-60500000D03*
X31250000Y-62700000D03*
D13*
X37350000Y-114025000D03*
X36330000Y-114025000D03*
D34*
X42625000Y-66600000D03*
X42625000Y-67560000D03*
M02*
