G04 #@! TF.GenerationSoftware,KiCad,Pcbnew,8.0.4*
G04 #@! TF.CreationDate,2024-10-07T04:48:16+11:00*
G04 #@! TF.ProjectId,nokia,6e6f6b69-612e-46b6-9963-61645f706362,rev?*
G04 #@! TF.SameCoordinates,Original*
G04 #@! TF.FileFunction,Legend,Top*
G04 #@! TF.FilePolarity,Positive*
%FSLAX46Y46*%
G04 Gerber Fmt 4.6, Leading zero omitted, Abs format (unit mm)*
G04 Created by KiCad (PCBNEW 8.0.4) date 2024-10-07 04:48:16*
%MOMM*%
%LPD*%
G01*
G04 APERTURE LIST*
G04 Aperture macros list*
%AMRoundRect*
0 Rectangle with rounded corners*
0 $1 Rounding radius*
0 $2 $3 $4 $5 $6 $7 $8 $9 X,Y pos of 4 corners*
0 Add a 4 corners polygon primitive as box body*
4,1,4,$2,$3,$4,$5,$6,$7,$8,$9,$2,$3,0*
0 Add four circle primitives for the rounded corners*
1,1,$1+$1,$2,$3*
1,1,$1+$1,$4,$5*
1,1,$1+$1,$6,$7*
1,1,$1+$1,$8,$9*
0 Add four rect primitives between the rounded corners*
20,1,$1+$1,$2,$3,$4,$5,0*
20,1,$1+$1,$4,$5,$6,$7,0*
20,1,$1+$1,$6,$7,$8,$9,0*
20,1,$1+$1,$8,$9,$2,$3,0*%
%AMFreePoly0*
4,1,103,-1.902709,2.826186,-1.559033,2.750537,-1.225551,2.638174,-0.906173,2.490414,-0.604642,2.308989,-0.324495,2.096027,-0.069015,1.854023,0.158802,1.585816,0.356286,1.294550,0.521120,0.983640,0.651373,0.656730,0.745517,0.317654,0.802448,-0.029613,0.821500,-0.381000,0.802448,-0.732387,0.745517,-1.079654,0.651373,-1.418730,0.521120,-1.745640,0.356286,-2.056550,0.158802,-2.347816,
-0.069015,-2.616023,-0.324495,-2.858027,-0.604642,-3.070989,-0.906173,-3.252414,-1.225551,-3.400174,-1.559033,-3.512537,-1.902709,-3.588186,-2.252549,-3.626234,-2.604451,-3.626234,-2.954291,-3.588186,-3.297967,-3.512537,-3.631449,-3.400174,-3.950827,-3.252414,-4.252358,-3.070989,-4.532505,-2.858027,-4.787985,-2.616023,-5.015802,-2.347816,-5.213286,-2.056550,-5.378120,-1.745640,-5.508373,-1.418730,
-5.602517,-1.079654,-5.659448,-0.732387,-5.678500,-0.381000,-4.183407,-0.381000,-4.163806,-0.642555,-4.105441,-0.898268,-4.009617,-1.142426,-3.878472,-1.369574,-3.714938,-1.574640,-3.522667,-1.753042,-3.305953,-1.900794,-3.069640,-2.014597,-2.819004,-2.091908,-2.559644,-2.131000,-2.297356,-2.131000,-2.037996,-2.091908,-1.787360,-2.014597,-1.551046,-1.900794,-1.334333,-1.753042,-1.142062,-1.574640,
-0.978528,-1.369574,-0.847383,-1.142426,-0.751559,-0.898268,-0.693194,-0.642555,-0.673593,-0.381000,-0.693194,-0.119445,-0.751559,0.136268,-0.847383,0.380426,-0.978528,0.607574,-1.142062,0.812640,-1.334333,0.991042,-1.551046,1.138794,-1.787360,1.252597,-2.037996,1.329908,-2.297356,1.369000,-2.559644,1.369000,-2.819004,1.329908,-3.069640,1.252597,-3.305953,1.138794,-3.522667,0.991042,
-3.714938,0.812640,-3.878472,0.607574,-4.009617,0.380426,-4.105441,0.136268,-4.163806,-0.119445,-4.183407,-0.381000,-5.678500,-0.381000,-5.659448,-0.029613,-5.602517,0.317654,-5.508373,0.656730,-5.378120,0.983640,-5.213286,1.294550,-5.015802,1.585816,-4.787985,1.854023,-4.532505,2.096027,-4.252358,2.308989,-3.950827,2.490414,-3.631449,2.638174,-3.297967,2.750537,-2.954291,2.826186,
-2.604451,2.864234,-2.252549,2.864234,-1.902709,2.826186,-1.902709,2.826186,$1*%
%AMFreePoly1*
4,1,35,0.301029,1.058008,0.490312,0.984680,0.662898,0.877819,0.812910,0.741065,0.935239,0.579075,1.025719,0.397366,1.081270,0.202124,1.100000,0.000000,1.081270,-0.202124,1.025719,-0.397366,0.935239,-0.579075,0.812910,-0.741065,0.662898,-0.877819,0.490312,-0.984680,0.301029,-1.058008,0.101495,-1.095308,-0.101495,-1.095308,-0.301029,-1.058008,-0.490312,-0.984680,-0.662898,-0.877819,
-0.812910,-0.741065,-0.935239,-0.579075,-1.025719,-0.397366,-1.081270,-0.202124,-1.100000,0.000000,-1.081270,0.202124,-1.025719,0.397366,-0.935239,0.579075,-0.812910,0.741065,-0.662898,0.877819,-0.490312,0.984680,-0.301029,1.058008,-0.101495,1.095308,0.101495,1.095308,0.301029,1.058008,0.301029,1.058008,$1*%
%AMFreePoly2*
4,1,143,-0.313237,0.844648,0.036603,0.806600,0.047288,0.804848,0.390964,0.729199,0.401397,0.726302,0.734879,0.613939,0.744938,0.609932,1.064316,0.462172,1.073882,0.457100,1.375413,0.275675,1.400916,0.253724,1.577058,0.040762,1.599803,-0.016704,1.600000,-0.022973,1.600000,-1.793913,1.646400,-2.104211,1.647500,-2.119000,1.647500,-2.500000,1.647052,-2.509457,1.600000,-3.004741,
1.600000,-4.714443,1.695880,-4.937542,1.701542,-4.999086,1.669948,-5.052204,1.664522,-5.056636,1.384375,-5.269598,1.375413,-5.275675,1.073882,-5.457100,1.064316,-5.462172,0.744938,-5.609932,0.734879,-5.613939,0.401397,-5.726302,0.390964,-5.729199,0.047288,-5.804848,0.036603,-5.806600,-0.313237,-5.844648,-0.324049,-5.845234,-0.675951,-5.845234,-0.686763,-5.844648,-1.036603,-5.806600,
-1.047288,-5.804848,-1.390964,-5.729199,-1.401397,-5.726302,-1.734879,-5.613939,-1.744938,-5.609932,-2.064316,-5.462172,-2.073882,-5.457100,-2.375413,-5.275675,-2.384375,-5.269598,-2.664522,-5.056636,-2.672775,-5.049626,-2.928255,-4.807622,-2.935701,-4.799762,-3.163518,-4.531555,-3.170071,-4.522935,-3.367555,-4.231669,-3.373137,-4.222391,-3.537971,-3.911481,-3.542518,-3.901654,-3.672771,-3.574744,
-3.676228,-3.564483,-3.770372,-3.225407,-3.772700,-3.214832,-3.829631,-2.867565,-3.830801,-2.856801,-3.849853,-2.505414,-3.848903,-2.501846,-3.849145,-2.500000,-2.154626,-2.500000,-2.136146,-2.746605,-2.081114,-2.987713,-1.990767,-3.217916,-1.867118,-3.432082,-1.712926,-3.625433,-1.531645,-3.793637,-1.327314,-3.932947,-1.104500,-4.040249,-0.868189,-4.113141,-0.623651,-4.150000,-0.376349,-4.150000,
-0.131810,-4.113141,0.104503,-4.040248,0.327312,-3.932949,0.531645,-3.793637,0.712926,-3.625433,0.867118,-3.432082,0.990767,-3.217916,1.081114,-2.987713,1.136146,-2.746605,1.154626,-2.500000,1.136146,-2.253394,1.081114,-2.012286,0.990767,-1.782083,0.867118,-1.567917,0.712926,-1.374566,0.531645,-1.206362,0.327312,-1.067050,0.104503,-0.959751,-0.131810,-0.886858,-0.376349,-0.850000,
-0.623651,-0.850000,-0.868189,-0.886858,-1.104500,-0.959750,-1.327314,-1.067052,-1.531645,-1.206362,-1.712926,-1.374566,-1.867118,-1.567917,-1.990767,-1.782083,-2.081114,-2.012286,-2.136146,-2.253394,-2.154626,-2.500000,-3.849145,-2.500000,-3.849853,-2.494586,-3.830801,-2.143199,-3.829631,-2.132435,-3.772700,-1.785168,-3.770372,-1.774593,-3.676228,-1.435517,-3.672771,-1.425256,-3.542518,-1.098346,
-3.537971,-1.088519,-3.373137,-0.777609,-3.367555,-0.768331,-3.170071,-0.477065,-3.163518,-0.468445,-2.935701,-0.200238,-2.928255,-0.192378,-2.672775,0.049626,-2.664522,0.056636,-2.384375,0.269598,-2.375413,0.275675,-2.073882,0.457100,-2.064316,0.462172,-1.744938,0.609932,-1.734879,0.613939,-1.401397,0.726302,-1.390964,0.729199,-1.047288,0.804848,-1.036603,0.806600,-0.686763,0.844648,
-0.675951,0.845234,-0.324049,0.845234,-0.313237,0.844648,-0.313237,0.844648,$1*%
G04 Aperture macros list end*
%ADD10C,0.100000*%
%ADD11FreePoly0,0.000000*%
%ADD12FreePoly1,0.000000*%
%ADD13RoundRect,0.057250X-0.515250X-1.742750X0.515250X-1.742750X0.515250X1.742750X-0.515250X1.742750X0*%
%ADD14RoundRect,0.025000X-0.225000X-1.775000X0.225000X-1.775000X0.225000X1.775000X-0.225000X1.775000X0*%
%ADD15RoundRect,0.052250X-0.470250X-1.747750X0.470250X-1.747750X0.470250X1.747750X-0.470250X1.747750X0*%
%ADD16FreePoly2,0.000000*%
%ADD17C,0.600000*%
%ADD18O,1.350000X1.700000*%
%ADD19O,1.100000X1.500000*%
G04 APERTURE END LIST*
D10*
X62825000Y-73775000D02*
X57000000Y-73775000D01*
X22175000Y-73775000D02*
X25500000Y-73775000D01*
X62775000Y-37975000D02*
X48000000Y-37975000D01*
X22150000Y-38000000D02*
X37000000Y-38000000D01*
%LPC*%
D11*
X58698500Y-79894000D03*
D12*
X56270000Y-80275000D03*
D11*
X51928500Y-85119000D03*
D12*
X49500000Y-85500000D03*
D11*
X31948500Y-108546384D03*
D12*
X29520000Y-108927384D03*
D11*
X44948500Y-110594000D03*
D12*
X42520000Y-110975000D03*
D11*
X32978500Y-81319000D03*
D12*
X30550000Y-81700000D03*
D11*
X32448500Y-116594000D03*
D12*
X30020000Y-116975000D03*
D11*
X44948500Y-77369000D03*
D12*
X42520000Y-77750000D03*
D11*
X58698500Y-92594000D03*
D12*
X56270000Y-92975000D03*
D11*
X44948500Y-102344000D03*
D12*
X42520000Y-102725000D03*
D13*
X46722500Y-39200000D03*
D14*
X45270000Y-39200000D03*
X44140000Y-39200000D03*
X43010000Y-39200000D03*
X41880000Y-39200000D03*
X40750000Y-39200000D03*
X39620000Y-39200000D03*
D15*
X38217500Y-39200000D03*
D11*
X44948500Y-94344000D03*
D12*
X42520000Y-94725000D03*
D11*
X57698500Y-100844000D03*
D12*
X55270000Y-101225000D03*
D16*
X56020000Y-106475000D03*
D12*
X55520000Y-108975000D03*
D11*
X30948500Y-92594000D03*
D12*
X28520000Y-92975000D03*
D11*
X44948500Y-118594000D03*
D12*
X42520000Y-118975000D03*
D11*
X32198500Y-100844000D03*
D12*
X29770000Y-101225000D03*
D11*
X57448500Y-116594000D03*
D12*
X55020000Y-116975000D03*
D17*
X41363167Y-61333333D03*
X42496500Y-61333333D03*
X43629833Y-61333333D03*
X41363167Y-60200000D03*
X42496500Y-60200000D03*
X43629833Y-60200000D03*
X41363167Y-59066667D03*
X42496500Y-59066667D03*
X43629833Y-59066667D03*
D18*
X53155000Y-125280000D03*
D19*
X52845000Y-122280000D03*
X48005000Y-122280000D03*
D18*
X47695000Y-125280000D03*
%LPD*%
M02*
