%TF.GenerationSoftware,KiCad,Pcbnew,8.0.4*%
%TF.CreationDate,2024-10-09T19:51:08+11:00*%
%TF.ProjectId,nokia,6e6f6b69-612e-46b6-9963-61645f706362,rev?*%
%TF.SameCoordinates,Original*%
%TF.FileFunction,Drillmap*%
%TF.FilePolarity,Positive*%
%FSLAX45Y45*%
G04 Gerber Fmt 4.5, Leading zero omitted, Abs format (unit mm)*
G04 Created by KiCad (PCBNEW 8.0.4) date 2024-10-09 19:51:08*
%MOMM*%
%LPD*%
G01*
G04 APERTURE LIST*
%ADD10C,0.050000*%
%ADD11C,0.399999*%
%ADD12C,0.200000*%
%ADD13C,0.100000*%
G04 APERTURE END LIST*
D10*
X3290000Y-11240000D02*
X3460000Y-11240000D01*
X3460000Y-11430000D01*
X3290000Y-11430000D01*
X3290000Y-11240000D01*
X4597304Y-12387500D02*
G75*
G02*
X4374316Y-12387500I-111494J0D01*
G01*
X4374316Y-12387500D02*
G75*
G02*
X4597304Y-12387500I111494J0D01*
G01*
X3290000Y-9755000D02*
X3460000Y-9755000D01*
X3460000Y-9945000D01*
X3290000Y-9945000D01*
X3290000Y-9755000D01*
X4627500Y-7440000D02*
X4797500Y-7440000D01*
X4797500Y-7630000D01*
X4627500Y-7630000D01*
X4627500Y-7440000D01*
X5040000Y-9755000D02*
X5210000Y-9755000D01*
X5210000Y-9945000D01*
X5040000Y-9945000D01*
X5040000Y-9755000D01*
X5040000Y-11240000D02*
X5210000Y-11240000D01*
X5210000Y-11430000D01*
X5040000Y-11430000D01*
X5040000Y-11240000D01*
D11*
X3271000Y-2036141D02*
X3871000Y-2036141D01*
X3871000Y-1936141D01*
X5400000Y-1936141D01*
X5400000Y-2200000D01*
X5590000Y-2200000D01*
X5804360Y-2200000D01*
X5874359Y-2270000D01*
X5874356Y-2450000D01*
X5880000Y-2475000D01*
X5890000Y-2495000D01*
X5905000Y-2515000D01*
X5920000Y-2530000D01*
X5940000Y-2540000D01*
X5960000Y-2545000D01*
X5975000Y-2545000D01*
X5995000Y-2545000D01*
X6066340Y-2545000D01*
X6066340Y-2942276D01*
X6277353Y-3281646D01*
X6303610Y-3323876D01*
X6303610Y-6330000D01*
X6353610Y-6330000D01*
X6353610Y-7030000D01*
X6303610Y-7030000D01*
X6303610Y-10280077D01*
X6123633Y-10879577D01*
X6110000Y-10909577D01*
X5894104Y-10909577D01*
X5890000Y-11060000D01*
X6090000Y-11060000D01*
X6068636Y-11189738D01*
X6009206Y-11498709D01*
X5895912Y-12266175D01*
X5635947Y-12236176D01*
X5631515Y-12236372D01*
X5627030Y-12236951D01*
X5622505Y-12237895D01*
X5617953Y-12239190D01*
X5613387Y-12240818D01*
X5608819Y-12242763D01*
X5604261Y-12245009D01*
X5599727Y-12247539D01*
X5595229Y-12250337D01*
X5590780Y-12253387D01*
X5582079Y-12260178D01*
X5573725Y-12267779D01*
X5565821Y-12276062D01*
X5558466Y-12284895D01*
X5551763Y-12294147D01*
X5545813Y-12303689D01*
X5540718Y-12313389D01*
X5536579Y-12323117D01*
X5534899Y-12327951D01*
X5533497Y-12332743D01*
X5532384Y-12337476D01*
X5531573Y-12342135D01*
X5531078Y-12346703D01*
X5530910Y-12351164D01*
X5531080Y-12355537D01*
X5531578Y-12359852D01*
X5532391Y-12364104D01*
X5533506Y-12368289D01*
X5534910Y-12372399D01*
X5536591Y-12376431D01*
X5538536Y-12380379D01*
X5540733Y-12384238D01*
X5543168Y-12388001D01*
X5545830Y-12391665D01*
X5548705Y-12395222D01*
X5551781Y-12398669D01*
X5558484Y-12405210D01*
X5565839Y-12411242D01*
X5573743Y-12416725D01*
X5582095Y-12421615D01*
X5590795Y-12425870D01*
X5599739Y-12429447D01*
X5608828Y-12432303D01*
X5617960Y-12434396D01*
X5627033Y-12435682D01*
X5631516Y-12436010D01*
X5635947Y-12436120D01*
X5635947Y-12736153D01*
X4565934Y-12736153D01*
X4365947Y-12736153D01*
X2865935Y-12736153D01*
X2865935Y-12436120D01*
X2870365Y-12436010D01*
X2874848Y-12435682D01*
X2879370Y-12435143D01*
X2883919Y-12434396D01*
X2888482Y-12433448D01*
X2893048Y-12432303D01*
X2897602Y-12430968D01*
X2902133Y-12429447D01*
X2906627Y-12427746D01*
X2911073Y-12425871D01*
X2915457Y-12423825D01*
X2919767Y-12421616D01*
X2923990Y-12419247D01*
X2928114Y-12416726D01*
X2932125Y-12414056D01*
X2936012Y-12411243D01*
X2939762Y-12408292D01*
X2943361Y-12405210D01*
X2946798Y-12402000D01*
X2950059Y-12398670D01*
X2953132Y-12395223D01*
X2956005Y-12391665D01*
X2958664Y-12388001D01*
X2961097Y-12384238D01*
X2963292Y-12380379D01*
X2965235Y-12376432D01*
X2966914Y-12372400D01*
X2968317Y-12368289D01*
X2969431Y-12364104D01*
X2970243Y-12359852D01*
X2970740Y-12355537D01*
X2970910Y-12351164D01*
X2970743Y-12346703D01*
X2970248Y-12342135D01*
X2969438Y-12337476D01*
X2968326Y-12332743D01*
X2966925Y-12327951D01*
X2965247Y-12323117D01*
X2963305Y-12318258D01*
X2961112Y-12313389D01*
X2958680Y-12308527D01*
X2956021Y-12303689D01*
X2950077Y-12294147D01*
X2943379Y-12284895D01*
X2936030Y-12276062D01*
X2928131Y-12267779D01*
X2919783Y-12260178D01*
X2915473Y-12256673D01*
X2911088Y-12253387D01*
X2906641Y-12250337D01*
X2902145Y-12247539D01*
X2897613Y-12245009D01*
X2893057Y-12242763D01*
X2888491Y-12240818D01*
X2883926Y-12239190D01*
X2879375Y-12237895D01*
X2874851Y-12236951D01*
X2870367Y-12236372D01*
X2865935Y-12236176D01*
X2605810Y-12266175D01*
X2492676Y-11498709D01*
X2193810Y-10280027D01*
X2193810Y-7030000D01*
X2143810Y-7030000D01*
X2143810Y-6330000D01*
X2193810Y-6330000D01*
X2193810Y-3323885D01*
X2594632Y-2702990D01*
X2594632Y-2550076D01*
X2860000Y-2550076D01*
X2890000Y-2545000D01*
X2925000Y-2530000D01*
X2945000Y-2505000D01*
X2955000Y-2480000D01*
X2962010Y-2440000D01*
X2962010Y-1936141D01*
X3271000Y-1936141D01*
X3271000Y-2036141D01*
D10*
X2690000Y-7440000D02*
X2860000Y-7440000D01*
X2860000Y-7630000D01*
X2690000Y-7630000D01*
X2690000Y-7440000D01*
X3705000Y-7440000D02*
X3875000Y-7440000D01*
X3875000Y-7630000D01*
X3705000Y-7630000D01*
X3705000Y-7440000D01*
X5642500Y-7440000D02*
X5812500Y-7440000D01*
X5812500Y-7630000D01*
X5642500Y-7630000D01*
X5642500Y-7440000D01*
D11*
X4877229Y-4065486D02*
X4882052Y-4065854D01*
X4886805Y-4066458D01*
X4891482Y-4067294D01*
X4896077Y-4068355D01*
X4900583Y-4069636D01*
X4904996Y-4071129D01*
X4909309Y-4072831D01*
X4913516Y-4074733D01*
X4917611Y-4076831D01*
X4921588Y-4079118D01*
X4925442Y-4081588D01*
X4929165Y-4084237D01*
X4932753Y-4087056D01*
X4936199Y-4090041D01*
X4939498Y-4093186D01*
X4942643Y-4096485D01*
X4945628Y-4099931D01*
X4948448Y-4103519D01*
X4951096Y-4107242D01*
X4953566Y-4111096D01*
X4955854Y-4115073D01*
X4957951Y-4119168D01*
X4959854Y-4123375D01*
X4961555Y-4127688D01*
X4963048Y-4132101D01*
X4964329Y-4136608D01*
X4965390Y-4141202D01*
X4966226Y-4145879D01*
X4966831Y-4150632D01*
X4967198Y-4155456D01*
X4967323Y-4160343D01*
X4967208Y-4165054D01*
X4966861Y-4169734D01*
X4966286Y-4174373D01*
X4965487Y-4178966D01*
X4964465Y-4183502D01*
X4963225Y-4187976D01*
X4961770Y-4192379D01*
X4960102Y-4196704D01*
X4958226Y-4200942D01*
X4956144Y-4205085D01*
X4953860Y-4209127D01*
X4951377Y-4213059D01*
X4948697Y-4216873D01*
X4945825Y-4220562D01*
X4942764Y-4224118D01*
X4939516Y-4227533D01*
X4936103Y-4230782D01*
X4932549Y-4233846D01*
X4928861Y-4236720D01*
X4925049Y-4239401D01*
X4921118Y-4241887D01*
X4917078Y-4244173D01*
X4912935Y-4246257D01*
X4908698Y-4248136D01*
X4904375Y-4249806D01*
X4899972Y-4251263D01*
X4895499Y-4252506D01*
X4890963Y-4253530D01*
X4886371Y-4254332D01*
X4881732Y-4254909D01*
X4877052Y-4255258D01*
X4872341Y-4255376D01*
X4867628Y-4255261D01*
X4862947Y-4254914D01*
X4858306Y-4254339D01*
X4853712Y-4253538D01*
X4849174Y-4252516D01*
X4844699Y-4251275D01*
X4840294Y-4249819D01*
X4835969Y-4248151D01*
X4831730Y-4246273D01*
X4827585Y-4244190D01*
X4823542Y-4241904D01*
X4819609Y-4239419D01*
X4815794Y-4236738D01*
X4812105Y-4233864D01*
X4808549Y-4230801D01*
X4805133Y-4227551D01*
X4801884Y-4224136D01*
X4798820Y-4220580D01*
X4795946Y-4216890D01*
X4793265Y-4213075D01*
X4790780Y-4209142D01*
X4788494Y-4205099D01*
X4786411Y-4200955D01*
X4784534Y-4196716D01*
X4782865Y-4192390D01*
X4781409Y-4187985D01*
X4780168Y-4183510D01*
X4779146Y-4178972D01*
X4778346Y-4174378D01*
X4777771Y-4169737D01*
X4777424Y-4165056D01*
X4777309Y-4160343D01*
X4777425Y-4155635D01*
X4777773Y-4150959D01*
X4778350Y-4146322D01*
X4779151Y-4141732D01*
X4780174Y-4137197D01*
X4781416Y-4132725D01*
X4782873Y-4128324D01*
X4784541Y-4124001D01*
X4786419Y-4119765D01*
X4788502Y-4115622D01*
X4790788Y-4111582D01*
X4793273Y-4107651D01*
X4795953Y-4103838D01*
X4798827Y-4100150D01*
X4801889Y-4096595D01*
X4805138Y-4093181D01*
X4808553Y-4089933D01*
X4812108Y-4086871D01*
X4815796Y-4083998D01*
X4819610Y-4081318D01*
X4823541Y-4078834D01*
X4827583Y-4076548D01*
X4831726Y-4074466D01*
X4835963Y-4072589D01*
X4840288Y-4070921D01*
X4844690Y-4069464D01*
X4849164Y-4068224D01*
X4853701Y-4067201D01*
X4858293Y-4066401D01*
X4862932Y-4065825D01*
X4867612Y-4065478D01*
X4872323Y-4065361D01*
X4872341Y-4065361D01*
X4877229Y-4065486D01*
D12*
D13*
X2291810Y-6273479D02*
X2321810Y-6303479D01*
X2321810Y-6273479D02*
X2291810Y-6303479D01*
X2497500Y-7800000D02*
X2527500Y-7830000D01*
X2527500Y-7800000D02*
X2497500Y-7830000D01*
X2507500Y-6482500D02*
X2537500Y-6512500D01*
X2537500Y-6482500D02*
X2507500Y-6512500D01*
X2545000Y-5925000D02*
X2575000Y-5955000D01*
X2575000Y-5925000D02*
X2545000Y-5955000D01*
X2560000Y-10760000D02*
X2590000Y-10790000D01*
X2590000Y-10760000D02*
X2560000Y-10790000D01*
X2612500Y-7582500D02*
X2642500Y-7612500D01*
X2642500Y-7582500D02*
X2612500Y-7612500D01*
X2667500Y-2960000D02*
X2697500Y-2990000D01*
X2697500Y-2960000D02*
X2667500Y-2990000D01*
X2667500Y-3467500D02*
X2697500Y-3497500D01*
X2697500Y-3467500D02*
X2667500Y-3497500D01*
X2812500Y-6000000D02*
X2842500Y-6030000D01*
X2842500Y-6000000D02*
X2812500Y-6030000D01*
X2837000Y-9282500D02*
X2867000Y-9312500D01*
X2867000Y-9282500D02*
X2837000Y-9312500D01*
X2937000Y-10877738D02*
X2967000Y-10907738D01*
X2967000Y-10877738D02*
X2937000Y-10907738D01*
X2945000Y-6385000D02*
X2975000Y-6415000D01*
X2975000Y-6385000D02*
X2945000Y-6415000D01*
X2962000Y-10107500D02*
X2992000Y-10137500D01*
X2992000Y-10107500D02*
X2962000Y-10137500D01*
X2987000Y-11682500D02*
X3017000Y-11712500D01*
X3017000Y-11682500D02*
X2987000Y-11712500D01*
X2997500Y-9707500D02*
X3027500Y-9737500D01*
X3027500Y-9707500D02*
X2997500Y-9737500D01*
X3007500Y-11277500D02*
X3037500Y-11307500D01*
X3037500Y-11277500D02*
X3007500Y-11307500D01*
X3040000Y-8155000D02*
X3070000Y-8185000D01*
X3070000Y-8155000D02*
X3040000Y-8185000D01*
X3085000Y-9285000D02*
X3115000Y-9315000D01*
X3115000Y-9285000D02*
X3085000Y-9315000D01*
X3085000Y-12605000D02*
X3115000Y-12635000D01*
X3115000Y-12605000D02*
X3085000Y-12635000D01*
X3092500Y-3067500D02*
X3122500Y-3097500D01*
X3122500Y-3067500D02*
X3092500Y-3097500D01*
X3117500Y-7302500D02*
X3147500Y-7332500D01*
X3147500Y-7302500D02*
X3117500Y-7332500D01*
X3185000Y-10885000D02*
X3215000Y-10915000D01*
X3215000Y-10885000D02*
X3185000Y-10915000D01*
X3210000Y-9895000D02*
X3240000Y-9925000D01*
X3240000Y-9895000D02*
X3210000Y-9925000D01*
X3210000Y-10110000D02*
X3240000Y-10140000D01*
X3240000Y-10110000D02*
X3210000Y-10140000D01*
X3210000Y-11373750D02*
X3240000Y-11403750D01*
X3240000Y-11373750D02*
X3210000Y-11403750D01*
X3210000Y-12060000D02*
X3240000Y-12090000D01*
X3240000Y-12060000D02*
X3210000Y-12090000D01*
X3235000Y-11685000D02*
X3265000Y-11715000D01*
X3265000Y-11685000D02*
X3235000Y-11715000D01*
X3242500Y-6257500D02*
X3272500Y-6287500D01*
X3272500Y-6257500D02*
X3242500Y-6287500D01*
X3280000Y-6985000D02*
X3310000Y-7015000D01*
X3310000Y-6985000D02*
X3280000Y-7015000D01*
X3280000Y-7567500D02*
X3310000Y-7597500D01*
X3310000Y-7567500D02*
X3280000Y-7597500D01*
X3285000Y-8160000D02*
X3315000Y-8190000D01*
X3315000Y-8160000D02*
X3285000Y-8190000D01*
X3325000Y-12205000D02*
X3355000Y-12235000D01*
X3355000Y-12205000D02*
X3325000Y-12235000D01*
X3342500Y-3052500D02*
X3372500Y-3082500D01*
X3372500Y-3052500D02*
X3342500Y-3082500D01*
X3345000Y-5965000D02*
X3375000Y-5995000D01*
X3375000Y-5965000D02*
X3345000Y-5995000D01*
X3383235Y-6186000D02*
X3413235Y-6216000D01*
X3413235Y-6186000D02*
X3383235Y-6216000D01*
X3402500Y-10415000D02*
X3432500Y-10445000D01*
X3432500Y-10415000D02*
X3402500Y-10445000D01*
X3410000Y-12060000D02*
X3440000Y-12090000D01*
X3440000Y-12060000D02*
X3410000Y-12090000D01*
X3412500Y-6317500D02*
X3442500Y-6347500D01*
X3442500Y-6317500D02*
X3412500Y-6347500D01*
X3422500Y-7700000D02*
X3452500Y-7730000D01*
X3452500Y-7700000D02*
X3422500Y-7730000D01*
X3440000Y-4250000D02*
X3470000Y-4280000D01*
X3470000Y-4250000D02*
X3440000Y-4280000D01*
X3477500Y-5809500D02*
X3507500Y-5839500D01*
X3507500Y-5809500D02*
X3477500Y-5839500D01*
X3485000Y-6560000D02*
X3515000Y-6590000D01*
X3515000Y-6560000D02*
X3485000Y-6590000D01*
X3485244Y-6638245D02*
X3515244Y-6668245D01*
X3515244Y-6638245D02*
X3485244Y-6668245D01*
X3485254Y-6873702D02*
X3515254Y-6903702D01*
X3515254Y-6873702D02*
X3485254Y-6903702D01*
X3485285Y-6716692D02*
X3515285Y-6746692D01*
X3515285Y-6716692D02*
X3485285Y-6746692D01*
X3485367Y-6795100D02*
X3515367Y-6825100D01*
X3515367Y-6795100D02*
X3485367Y-6825100D01*
X3545000Y-12585000D02*
X3575000Y-12615000D01*
X3575000Y-12585000D02*
X3545000Y-12615000D01*
X3562500Y-5567500D02*
X3592500Y-5597500D01*
X3592500Y-5567500D02*
X3562500Y-5597500D01*
X3582500Y-6235000D02*
X3612500Y-6265000D01*
X3612500Y-6235000D02*
X3582500Y-6265000D01*
X3590000Y-5465000D02*
X3620000Y-5495000D01*
X3620000Y-5465000D02*
X3590000Y-5495000D01*
X3595000Y-5722500D02*
X3625000Y-5752500D01*
X3625000Y-5722500D02*
X3595000Y-5752500D01*
X3597500Y-3057500D02*
X3627500Y-3087500D01*
X3627500Y-3057500D02*
X3597500Y-3087500D01*
X3600000Y-3577500D02*
X3630000Y-3607500D01*
X3630000Y-3577500D02*
X3600000Y-3607500D01*
X3630000Y-7585000D02*
X3660000Y-7615000D01*
X3660000Y-7585000D02*
X3630000Y-7615000D01*
X3650000Y-8170000D02*
X3680000Y-8200000D01*
X3680000Y-8170000D02*
X3650000Y-8200000D01*
X3660000Y-8590000D02*
X3690000Y-8620000D01*
X3690000Y-8590000D02*
X3660000Y-8620000D01*
X3705000Y-4252500D02*
X3735000Y-4282500D01*
X3735000Y-4252500D02*
X3705000Y-4282500D01*
X3717500Y-9707500D02*
X3747500Y-9737500D01*
X3747500Y-9707500D02*
X3717500Y-9737500D01*
X3725293Y-11121972D02*
X3755293Y-11151972D01*
X3755293Y-11121972D02*
X3725293Y-11151972D01*
X3735000Y-5412500D02*
X3765000Y-5442500D01*
X3765000Y-5412500D02*
X3735000Y-5442500D01*
X3785000Y-12585000D02*
X3815000Y-12615000D01*
X3815000Y-12585000D02*
X3785000Y-12615000D01*
X3810000Y-12022500D02*
X3840000Y-12052500D01*
X3840000Y-12022500D02*
X3810000Y-12052500D01*
X3815000Y-10435000D02*
X3845000Y-10465000D01*
X3845000Y-10435000D02*
X3815000Y-10465000D01*
X3816286Y-5262714D02*
X3846286Y-5292714D01*
X3846286Y-5262714D02*
X3816286Y-5292714D01*
X3835000Y-3885000D02*
X3865000Y-3915000D01*
X3865000Y-3885000D02*
X3835000Y-3915000D01*
X3835000Y-5185000D02*
X3865000Y-5215000D01*
X3865000Y-5185000D02*
X3835000Y-5215000D01*
X3855000Y-3065000D02*
X3885000Y-3095000D01*
X3885000Y-3065000D02*
X3855000Y-3095000D01*
X3890000Y-9900000D02*
X3920000Y-9930000D01*
X3920000Y-9900000D02*
X3890000Y-9930000D01*
X3892500Y-11387500D02*
X3922500Y-11417500D01*
X3922500Y-11387500D02*
X3892500Y-11417500D01*
X3897500Y-6197500D02*
X3927500Y-6227500D01*
X3927500Y-6197500D02*
X3897500Y-6227500D01*
X3940000Y-6715000D02*
X3970000Y-6745000D01*
X3970000Y-6715000D02*
X3940000Y-6745000D01*
X3940000Y-6807500D02*
X3970000Y-6837500D01*
X3970000Y-6807500D02*
X3940000Y-6837500D01*
X3955000Y-5350000D02*
X3985000Y-5380000D01*
X3985000Y-5350000D02*
X3955000Y-5380000D01*
X3960000Y-4060000D02*
X3990000Y-4090000D01*
X3990000Y-4060000D02*
X3960000Y-4090000D01*
X3960000Y-7300000D02*
X3990000Y-7330000D01*
X3990000Y-7300000D02*
X3960000Y-7330000D01*
X3970000Y-5680000D02*
X4000000Y-5710000D01*
X4000000Y-5680000D02*
X3970000Y-5710000D01*
X3977500Y-6345000D02*
X4007500Y-6375000D01*
X4007500Y-6345000D02*
X3977500Y-6375000D01*
X4016250Y-12196250D02*
X4046250Y-12226250D01*
X4046250Y-12196250D02*
X4016250Y-12226250D01*
X4060000Y-3885000D02*
X4090000Y-3915000D01*
X4090000Y-3885000D02*
X4060000Y-3915000D01*
X4097500Y-6387500D02*
X4127500Y-6417500D01*
X4127500Y-6387500D02*
X4097500Y-6417500D01*
X4098874Y-12230033D02*
X4128874Y-12260033D01*
X4128874Y-12230033D02*
X4098874Y-12260033D01*
X4112500Y-3080000D02*
X4142500Y-3110000D01*
X4142500Y-3080000D02*
X4112500Y-3110000D01*
X4112500Y-3572500D02*
X4142500Y-3602500D01*
X4142500Y-3572500D02*
X4112500Y-3602500D01*
X4126150Y-6965653D02*
X4156150Y-6995653D01*
X4156150Y-6965653D02*
X4126150Y-6995653D01*
X4159150Y-6887665D02*
X4189150Y-6917665D01*
X4189150Y-6887665D02*
X4159150Y-6917665D01*
X4179301Y-10713073D02*
X4209301Y-10743073D01*
X4209301Y-10713073D02*
X4179301Y-10743073D01*
X4179500Y-10635000D02*
X4209500Y-10665000D01*
X4209500Y-10635000D02*
X4179500Y-10665000D01*
X4185000Y-4060000D02*
X4215000Y-4090000D01*
X4215000Y-4060000D02*
X4185000Y-4090000D01*
X4197500Y-5400000D02*
X4227500Y-5430000D01*
X4227500Y-5400000D02*
X4197500Y-5430000D01*
X4210000Y-4810000D02*
X4240000Y-4840000D01*
X4240000Y-4810000D02*
X4210000Y-4840000D01*
X4210000Y-4910000D02*
X4240000Y-4940000D01*
X4240000Y-4910000D02*
X4210000Y-4940000D01*
X4210000Y-5010000D02*
X4240000Y-5040000D01*
X4240000Y-5010000D02*
X4210000Y-5040000D01*
X4210000Y-5110000D02*
X4240000Y-5140000D01*
X4240000Y-5110000D02*
X4210000Y-5140000D01*
X4212707Y-6830958D02*
X4242707Y-6860958D01*
X4242707Y-6830958D02*
X4212707Y-6860958D01*
X4225000Y-10247500D02*
X4255000Y-10277500D01*
X4255000Y-10247500D02*
X4225000Y-10277500D01*
X4237000Y-7760000D02*
X4267000Y-7790000D01*
X4267000Y-7760000D02*
X4237000Y-7790000D01*
X4237000Y-9457500D02*
X4267000Y-9487500D01*
X4267000Y-9457500D02*
X4237000Y-9487500D01*
X4237000Y-11082500D02*
X4267000Y-11112500D01*
X4267000Y-11082500D02*
X4237000Y-11112500D01*
X4237000Y-11882500D02*
X4267000Y-11912500D01*
X4267000Y-11882500D02*
X4237000Y-11912500D01*
X4245000Y-12585000D02*
X4275000Y-12615000D01*
X4275000Y-12585000D02*
X4245000Y-12615000D01*
X4285000Y-3885000D02*
X4315000Y-3915000D01*
X4315000Y-3885000D02*
X4285000Y-3915000D01*
X4285000Y-6885000D02*
X4315000Y-6915000D01*
X4315000Y-6885000D02*
X4285000Y-6915000D01*
X4305000Y-6965000D02*
X4335000Y-6995000D01*
X4335000Y-6965000D02*
X4305000Y-6995000D01*
X4323500Y-10640000D02*
X4353500Y-10670000D01*
X4353500Y-10640000D02*
X4323500Y-10670000D01*
X4325000Y-6805000D02*
X4355000Y-6835000D01*
X4355000Y-6805000D02*
X4325000Y-6835000D01*
X4352500Y-5102500D02*
X4382500Y-5132500D01*
X4382500Y-5102500D02*
X4352500Y-5132500D01*
X4360000Y-3057500D02*
X4390000Y-3087500D01*
X4390000Y-3057500D02*
X4360000Y-3087500D01*
X4410000Y-4060000D02*
X4440000Y-4090000D01*
X4440000Y-4060000D02*
X4410000Y-4090000D01*
X4431139Y-4967350D02*
X4461139Y-4997350D01*
X4461139Y-4967350D02*
X4431139Y-4997350D01*
X4447476Y-6945000D02*
X4477476Y-6975000D01*
X4477476Y-6945000D02*
X4447476Y-6975000D01*
X4475000Y-7112500D02*
X4505000Y-7142500D01*
X4505000Y-7112500D02*
X4475000Y-7142500D01*
X4485000Y-7760000D02*
X4515000Y-7790000D01*
X4515000Y-7760000D02*
X4485000Y-7790000D01*
X4485000Y-9460000D02*
X4515000Y-9490000D01*
X4515000Y-9460000D02*
X4485000Y-9490000D01*
X4485000Y-10260000D02*
X4515000Y-10290000D01*
X4515000Y-10260000D02*
X4485000Y-10290000D01*
X4485000Y-11085000D02*
X4515000Y-11115000D01*
X4515000Y-11085000D02*
X4485000Y-11115000D01*
X4485000Y-11885000D02*
X4515000Y-11915000D01*
X4515000Y-11885000D02*
X4485000Y-11915000D01*
X4500000Y-5637500D02*
X4530000Y-5667500D01*
X4530000Y-5637500D02*
X4500000Y-5667500D01*
X4510000Y-3885000D02*
X4540000Y-3915000D01*
X4540000Y-3885000D02*
X4510000Y-3915000D01*
X4510000Y-5782500D02*
X4540000Y-5812500D01*
X4540000Y-5782500D02*
X4510000Y-5812500D01*
X4530000Y-6702500D02*
X4560000Y-6732500D01*
X4560000Y-6702500D02*
X4530000Y-6732500D01*
X4550000Y-7552500D02*
X4580000Y-7582500D01*
X4580000Y-7552500D02*
X4550000Y-7582500D01*
X4552500Y-5997500D02*
X4582500Y-6027500D01*
X4582500Y-5997500D02*
X4552500Y-6027500D01*
X4577500Y-5405000D02*
X4607500Y-5435000D01*
X4607500Y-5405000D02*
X4577500Y-5435000D01*
X4595000Y-6105000D02*
X4625000Y-6135000D01*
X4625000Y-6105000D02*
X4595000Y-6135000D01*
X4604985Y-6192040D02*
X4634985Y-6222040D01*
X4634985Y-6192040D02*
X4604985Y-6222040D01*
X4605000Y-5717500D02*
X4635000Y-5747500D01*
X4635000Y-5717500D02*
X4605000Y-5747500D01*
X4605000Y-6365000D02*
X4635000Y-6395000D01*
X4635000Y-6365000D02*
X4605000Y-6395000D01*
X4607500Y-6270000D02*
X4637500Y-6300000D01*
X4637500Y-6270000D02*
X4607500Y-6300000D01*
X4615000Y-3057500D02*
X4645000Y-3087500D01*
X4645000Y-3057500D02*
X4615000Y-3087500D01*
X4617500Y-3575000D02*
X4647500Y-3605000D01*
X4647500Y-3575000D02*
X4617500Y-3605000D01*
X4620000Y-10065000D02*
X4650000Y-10095000D01*
X4650000Y-10065000D02*
X4620000Y-10095000D01*
X4622500Y-5952500D02*
X4652500Y-5982500D01*
X4652500Y-5952500D02*
X4622500Y-5982500D01*
X4630000Y-11507500D02*
X4660000Y-11537500D01*
X4660000Y-11507500D02*
X4630000Y-11537500D01*
X4635000Y-4060000D02*
X4665000Y-4090000D01*
X4665000Y-4060000D02*
X4635000Y-4090000D01*
X4655000Y-9235000D02*
X4685000Y-9265000D01*
X4685000Y-9235000D02*
X4655000Y-9265000D01*
X4665000Y-5205000D02*
X4695000Y-5235000D01*
X4695000Y-5205000D02*
X4665000Y-5235000D01*
X4685000Y-8535000D02*
X4715000Y-8565000D01*
X4715000Y-8535000D02*
X4685000Y-8565000D01*
X4702500Y-8067500D02*
X4732500Y-8097500D01*
X4732500Y-8067500D02*
X4702500Y-8097500D01*
X4707410Y-6638583D02*
X4737410Y-6668583D01*
X4737410Y-6638583D02*
X4707410Y-6668583D01*
X4722500Y-6854000D02*
X4752500Y-6884000D01*
X4752500Y-6854000D02*
X4722500Y-6884000D01*
X4765000Y-6719237D02*
X4795000Y-6749237D01*
X4795000Y-6719237D02*
X4765000Y-6749237D01*
X4797500Y-9017500D02*
X4827500Y-9047500D01*
X4827500Y-9017500D02*
X4797500Y-9047500D01*
X4822500Y-6909500D02*
X4852500Y-6939500D01*
X4852500Y-6909500D02*
X4822500Y-6939500D01*
X4823512Y-6403988D02*
X4853512Y-6433988D01*
X4853512Y-6403988D02*
X4823512Y-6433988D01*
X4825000Y-5485000D02*
X4855000Y-5515000D01*
X4855000Y-5485000D02*
X4825000Y-5515000D01*
X4825000Y-6800727D02*
X4855000Y-6830727D01*
X4855000Y-6800727D02*
X4825000Y-6830727D01*
X4837000Y-6030000D02*
X4867000Y-6060000D01*
X4867000Y-6030000D02*
X4837000Y-6060000D01*
X4843892Y-6303110D02*
X4873892Y-6333110D01*
X4873892Y-6303110D02*
X4843892Y-6333110D01*
X4845000Y-5605000D02*
X4875000Y-5635000D01*
X4875000Y-5605000D02*
X4845000Y-5635000D01*
X4870000Y-3062500D02*
X4900000Y-3092500D01*
X4900000Y-3062500D02*
X4870000Y-3092500D01*
X4870000Y-3572500D02*
X4900000Y-3602500D01*
X4900000Y-3572500D02*
X4870000Y-3602500D01*
X4887846Y-11742154D02*
X4917846Y-11772154D01*
X4917846Y-11742154D02*
X4887846Y-11772154D01*
X4917500Y-6195000D02*
X4947500Y-6225000D01*
X4947500Y-6195000D02*
X4917500Y-6225000D01*
X4930000Y-6300000D02*
X4960000Y-6330000D01*
X4960000Y-6300000D02*
X4930000Y-6330000D01*
X4935000Y-8535000D02*
X4965000Y-8565000D01*
X4965000Y-8535000D02*
X4935000Y-8565000D01*
X4945000Y-5605000D02*
X4975000Y-5635000D01*
X4975000Y-5605000D02*
X4945000Y-5635000D01*
X4947500Y-5755000D02*
X4977500Y-5785000D01*
X4977500Y-5755000D02*
X4947500Y-5785000D01*
X4957500Y-10057500D02*
X4987500Y-10087500D01*
X4987500Y-10057500D02*
X4957500Y-10087500D01*
X4960000Y-11350000D02*
X4990000Y-11380000D01*
X4990000Y-11350000D02*
X4960000Y-11380000D01*
X4979500Y-6560000D02*
X5009500Y-6590000D01*
X5009500Y-6560000D02*
X4979500Y-6590000D01*
X5005000Y-6037500D02*
X5035000Y-6067500D01*
X5035000Y-6037500D02*
X5005000Y-6067500D01*
X5022500Y-6302500D02*
X5052500Y-6332500D01*
X5052500Y-6302500D02*
X5022500Y-6332500D01*
X5062500Y-7327500D02*
X5092500Y-7357500D01*
X5092500Y-7327500D02*
X5062500Y-7357500D01*
X5092500Y-11002500D02*
X5122500Y-11032500D01*
X5122500Y-11002500D02*
X5092500Y-11032500D01*
X5115000Y-3577500D02*
X5145000Y-3607500D01*
X5145000Y-3577500D02*
X5115000Y-3607500D01*
X5125000Y-3055000D02*
X5155000Y-3085000D01*
X5155000Y-3055000D02*
X5125000Y-3085000D01*
X5130000Y-6305000D02*
X5160000Y-6335000D01*
X5160000Y-6305000D02*
X5130000Y-6335000D01*
X5157500Y-10365000D02*
X5187500Y-10395000D01*
X5187500Y-10365000D02*
X5157500Y-10395000D01*
X5202500Y-9612500D02*
X5232500Y-9642500D01*
X5232500Y-9612500D02*
X5202500Y-9642500D01*
X5217500Y-5487500D02*
X5247500Y-5517500D01*
X5247500Y-5487500D02*
X5217500Y-5517500D01*
X5222500Y-6005000D02*
X5252500Y-6035000D01*
X5252500Y-6005000D02*
X5222500Y-6035000D01*
X5235000Y-11685000D02*
X5265000Y-11715000D01*
X5265000Y-11685000D02*
X5235000Y-11715000D01*
X5237500Y-10477500D02*
X5267500Y-10507500D01*
X5267500Y-10477500D02*
X5237500Y-10507500D01*
X5260000Y-10110000D02*
X5290000Y-10140000D01*
X5290000Y-10110000D02*
X5260000Y-10140000D01*
X5275000Y-7385500D02*
X5305000Y-7415500D01*
X5305000Y-7385500D02*
X5275000Y-7415500D01*
X5285000Y-10885000D02*
X5315000Y-10915000D01*
X5315000Y-10885000D02*
X5285000Y-10915000D01*
X5302500Y-6542500D02*
X5332500Y-6572500D01*
X5332500Y-6542500D02*
X5302500Y-6572500D01*
X5330000Y-6285000D02*
X5360000Y-6315000D01*
X5360000Y-6285000D02*
X5330000Y-6315000D01*
X5360000Y-8010000D02*
X5390000Y-8040000D01*
X5390000Y-8010000D02*
X5360000Y-8040000D01*
X5360000Y-9285000D02*
X5390000Y-9315000D01*
X5390000Y-9285000D02*
X5360000Y-9315000D01*
X5372500Y-3055000D02*
X5402500Y-3085000D01*
X5402500Y-3055000D02*
X5372500Y-3085000D01*
X5377500Y-3572500D02*
X5407500Y-3602500D01*
X5407500Y-3572500D02*
X5377500Y-3602500D01*
X5455000Y-6395000D02*
X5485000Y-6425000D01*
X5485000Y-6395000D02*
X5455000Y-6425000D01*
X5472500Y-9640000D02*
X5502500Y-9670000D01*
X5502500Y-9640000D02*
X5472500Y-9670000D01*
X5487000Y-11682500D02*
X5517000Y-11712500D01*
X5517000Y-11682500D02*
X5487000Y-11712500D01*
X5487500Y-6007500D02*
X5517500Y-6037500D01*
X5517500Y-6007500D02*
X5487500Y-6037500D01*
X5512000Y-10107500D02*
X5542000Y-10137500D01*
X5542000Y-10107500D02*
X5512000Y-10137500D01*
X5537000Y-10882500D02*
X5567000Y-10912500D01*
X5567000Y-10882500D02*
X5537000Y-10912500D01*
X5557500Y-8697500D02*
X5587500Y-8727500D01*
X5587500Y-8697500D02*
X5557500Y-8727500D01*
X5565000Y-7577500D02*
X5595000Y-7607500D01*
X5595000Y-7577500D02*
X5565000Y-7607500D01*
X5575000Y-11270000D02*
X5605000Y-11300000D01*
X5605000Y-11270000D02*
X5575000Y-11300000D01*
X5612000Y-8012500D02*
X5642000Y-8042500D01*
X5642000Y-8012500D02*
X5612000Y-8042500D01*
X5612000Y-9282500D02*
X5642000Y-9312500D01*
X5642000Y-9282500D02*
X5612000Y-9312500D01*
X5695000Y-11240000D02*
X5725000Y-11270000D01*
X5725000Y-11240000D02*
X5695000Y-11270000D01*
X5762500Y-9810000D02*
X5792500Y-9840000D01*
X5792500Y-9810000D02*
X5762500Y-9840000D01*
X5835000Y-6407500D02*
X5865000Y-6437500D01*
X5865000Y-6407500D02*
X5835000Y-6437500D01*
X5850000Y-6275000D02*
X5880000Y-6305000D01*
X5880000Y-6275000D02*
X5850000Y-6305000D01*
X5862500Y-7267500D02*
X5892500Y-7297500D01*
X5892500Y-7267500D02*
X5862500Y-7297500D01*
X5880000Y-5990000D02*
X5910000Y-6020000D01*
X5910000Y-5990000D02*
X5880000Y-6020000D01*
X5900000Y-9872500D02*
X5930000Y-9902500D01*
X5930000Y-9872500D02*
X5900000Y-9902500D01*
X5905000Y-10347500D02*
X5935000Y-10377500D01*
X5935000Y-10347500D02*
X5905000Y-10377500D01*
X6025000Y-6545000D02*
X6055000Y-6575000D01*
X6055000Y-6545000D02*
X6025000Y-6575000D01*
X4151317Y-5906667D02*
G75*
G02*
X4121317Y-5906667I-15000J0D01*
G01*
X4121317Y-5906667D02*
G75*
G02*
X4151317Y-5906667I15000J0D01*
G01*
X4151317Y-6020000D02*
G75*
G02*
X4121317Y-6020000I-15000J0D01*
G01*
X4121317Y-6020000D02*
G75*
G02*
X4151317Y-6020000I15000J0D01*
G01*
X4151317Y-6133333D02*
G75*
G02*
X4121317Y-6133333I-15000J0D01*
G01*
X4121317Y-6133333D02*
G75*
G02*
X4151317Y-6133333I15000J0D01*
G01*
X4264650Y-5906667D02*
G75*
G02*
X4234650Y-5906667I-15000J0D01*
G01*
X4234650Y-5906667D02*
G75*
G02*
X4264650Y-5906667I15000J0D01*
G01*
X4264650Y-6020000D02*
G75*
G02*
X4234650Y-6020000I-15000J0D01*
G01*
X4234650Y-6020000D02*
G75*
G02*
X4264650Y-6020000I15000J0D01*
G01*
X4264650Y-6133333D02*
G75*
G02*
X4234650Y-6133333I-15000J0D01*
G01*
X4234650Y-6133333D02*
G75*
G02*
X4264650Y-6133333I15000J0D01*
G01*
X4377983Y-5906667D02*
G75*
G02*
X4347983Y-5906667I-15000J0D01*
G01*
X4347983Y-5906667D02*
G75*
G02*
X4377983Y-5906667I15000J0D01*
G01*
X4377983Y-6020000D02*
G75*
G02*
X4347983Y-6020000I-15000J0D01*
G01*
X4347983Y-6020000D02*
G75*
G02*
X4377983Y-6020000I15000J0D01*
G01*
X4377983Y-6133333D02*
G75*
G02*
X4347983Y-6133333I-15000J0D01*
G01*
X4347983Y-6133333D02*
G75*
G02*
X4377983Y-6133333I15000J0D01*
G01*
X4800500Y-12195500D02*
X4800500Y-12260500D01*
X4768000Y-12228000D02*
X4833000Y-12228000D01*
X4833000Y-12248000D02*
X4833000Y-12208000D01*
X4768000Y-12208000D02*
G75*
G02*
X4833000Y-12208000I32500J0D01*
G01*
X4768000Y-12208000D02*
X4768000Y-12248000D01*
X4768000Y-12248000D02*
G75*
G03*
X4833000Y-12248000I32500J0D01*
G01*
X5284500Y-12195500D02*
X5284500Y-12260500D01*
X5252000Y-12228000D02*
X5317000Y-12228000D01*
X5317000Y-12248000D02*
X5317000Y-12208000D01*
X5252000Y-12208000D02*
G75*
G02*
X5317000Y-12208000I32500J0D01*
G01*
X5252000Y-12208000D02*
X5252000Y-12248000D01*
X5252000Y-12248000D02*
G75*
G03*
X5317000Y-12248000I32500J0D01*
G01*
X4794249Y-12552749D02*
X4794249Y-12503251D01*
X4744751Y-12503251D01*
X4744751Y-12552749D01*
X4794249Y-12552749D01*
X4804500Y-12553000D02*
X4804500Y-12503000D01*
X4734500Y-12503000D02*
G75*
G02*
X4804500Y-12503000I35000J0D01*
G01*
X4734500Y-12503000D02*
X4734500Y-12553000D01*
X4734500Y-12553000D02*
G75*
G03*
X4804500Y-12553000I35000J0D01*
G01*
X5340249Y-12552749D02*
X5340249Y-12503251D01*
X5290751Y-12503251D01*
X5290751Y-12552749D01*
X5340249Y-12552749D01*
X5350500Y-12553000D02*
X5350500Y-12503000D01*
X5280500Y-12503000D02*
G75*
G02*
X5350500Y-12503000I35000J0D01*
G01*
X5280500Y-12503000D02*
X5280500Y-12553000D01*
X5280500Y-12553000D02*
G75*
G03*
X5350500Y-12553000I35000J0D01*
G01*
D12*
X2384587Y-13067637D02*
X2384587Y-12867637D01*
X2384587Y-12867637D02*
X2432206Y-12867637D01*
X2432206Y-12867637D02*
X2460778Y-12877160D01*
X2460778Y-12877160D02*
X2479825Y-12896208D01*
X2479825Y-12896208D02*
X2489349Y-12915256D01*
X2489349Y-12915256D02*
X2498873Y-12953351D01*
X2498873Y-12953351D02*
X2498873Y-12981922D01*
X2498873Y-12981922D02*
X2489349Y-13020018D01*
X2489349Y-13020018D02*
X2479825Y-13039065D01*
X2479825Y-13039065D02*
X2460778Y-13058113D01*
X2460778Y-13058113D02*
X2432206Y-13067637D01*
X2432206Y-13067637D02*
X2384587Y-13067637D01*
X2584587Y-13067637D02*
X2584587Y-12934303D01*
X2584587Y-12972399D02*
X2594111Y-12953351D01*
X2594111Y-12953351D02*
X2603635Y-12943827D01*
X2603635Y-12943827D02*
X2622682Y-12934303D01*
X2622682Y-12934303D02*
X2641730Y-12934303D01*
X2708397Y-13067637D02*
X2708397Y-12934303D01*
X2708397Y-12867637D02*
X2698873Y-12877160D01*
X2698873Y-12877160D02*
X2708397Y-12886684D01*
X2708397Y-12886684D02*
X2717920Y-12877160D01*
X2717920Y-12877160D02*
X2708397Y-12867637D01*
X2708397Y-12867637D02*
X2708397Y-12886684D01*
X2832206Y-13067637D02*
X2813158Y-13058113D01*
X2813158Y-13058113D02*
X2803635Y-13039065D01*
X2803635Y-13039065D02*
X2803635Y-12867637D01*
X2936968Y-13067637D02*
X2917920Y-13058113D01*
X2917920Y-13058113D02*
X2908397Y-13039065D01*
X2908397Y-13039065D02*
X2908397Y-12867637D01*
X3165539Y-13067637D02*
X3165539Y-12867637D01*
X3165539Y-12867637D02*
X3232206Y-13010494D01*
X3232206Y-13010494D02*
X3298873Y-12867637D01*
X3298873Y-12867637D02*
X3298873Y-13067637D01*
X3479825Y-13067637D02*
X3479825Y-12962875D01*
X3479825Y-12962875D02*
X3470301Y-12943827D01*
X3470301Y-12943827D02*
X3451254Y-12934303D01*
X3451254Y-12934303D02*
X3413158Y-12934303D01*
X3413158Y-12934303D02*
X3394111Y-12943827D01*
X3479825Y-13058113D02*
X3460778Y-13067637D01*
X3460778Y-13067637D02*
X3413158Y-13067637D01*
X3413158Y-13067637D02*
X3394111Y-13058113D01*
X3394111Y-13058113D02*
X3384587Y-13039065D01*
X3384587Y-13039065D02*
X3384587Y-13020018D01*
X3384587Y-13020018D02*
X3394111Y-13000970D01*
X3394111Y-13000970D02*
X3413158Y-12991446D01*
X3413158Y-12991446D02*
X3460778Y-12991446D01*
X3460778Y-12991446D02*
X3479825Y-12981922D01*
X3575063Y-12934303D02*
X3575063Y-13134303D01*
X3575063Y-12943827D02*
X3594111Y-12934303D01*
X3594111Y-12934303D02*
X3632206Y-12934303D01*
X3632206Y-12934303D02*
X3651254Y-12943827D01*
X3651254Y-12943827D02*
X3660778Y-12953351D01*
X3660778Y-12953351D02*
X3670301Y-12972399D01*
X3670301Y-12972399D02*
X3670301Y-13029541D01*
X3670301Y-13029541D02*
X3660778Y-13048589D01*
X3660778Y-13048589D02*
X3651254Y-13058113D01*
X3651254Y-13058113D02*
X3632206Y-13067637D01*
X3632206Y-13067637D02*
X3594111Y-13067637D01*
X3594111Y-13067637D02*
X3575063Y-13058113D01*
X3756016Y-13048589D02*
X3765539Y-13058113D01*
X3765539Y-13058113D02*
X3756016Y-13067637D01*
X3756016Y-13067637D02*
X3746492Y-13058113D01*
X3746492Y-13058113D02*
X3756016Y-13048589D01*
X3756016Y-13048589D02*
X3756016Y-13067637D01*
X3756016Y-12943827D02*
X3765539Y-12953351D01*
X3765539Y-12953351D02*
X3756016Y-12962875D01*
X3756016Y-12962875D02*
X3746492Y-12953351D01*
X3746492Y-12953351D02*
X3756016Y-12943827D01*
X3756016Y-12943827D02*
X3756016Y-12962875D01*
D13*
X2093810Y-13381153D02*
X2123810Y-13411153D01*
X2123810Y-13381153D02*
X2093810Y-13411153D01*
D12*
X2422682Y-13287637D02*
X2441730Y-13287637D01*
X2441730Y-13287637D02*
X2460778Y-13297160D01*
X2460778Y-13297160D02*
X2470301Y-13306684D01*
X2470301Y-13306684D02*
X2479825Y-13325732D01*
X2479825Y-13325732D02*
X2489349Y-13363827D01*
X2489349Y-13363827D02*
X2489349Y-13411446D01*
X2489349Y-13411446D02*
X2479825Y-13449541D01*
X2479825Y-13449541D02*
X2470301Y-13468589D01*
X2470301Y-13468589D02*
X2460778Y-13478113D01*
X2460778Y-13478113D02*
X2441730Y-13487637D01*
X2441730Y-13487637D02*
X2422682Y-13487637D01*
X2422682Y-13487637D02*
X2403635Y-13478113D01*
X2403635Y-13478113D02*
X2394111Y-13468589D01*
X2394111Y-13468589D02*
X2384587Y-13449541D01*
X2384587Y-13449541D02*
X2375063Y-13411446D01*
X2375063Y-13411446D02*
X2375063Y-13363827D01*
X2375063Y-13363827D02*
X2384587Y-13325732D01*
X2384587Y-13325732D02*
X2394111Y-13306684D01*
X2394111Y-13306684D02*
X2403635Y-13297160D01*
X2403635Y-13297160D02*
X2422682Y-13287637D01*
X2575063Y-13468589D02*
X2584587Y-13478113D01*
X2584587Y-13478113D02*
X2575063Y-13487637D01*
X2575063Y-13487637D02*
X2565540Y-13478113D01*
X2565540Y-13478113D02*
X2575063Y-13468589D01*
X2575063Y-13468589D02*
X2575063Y-13487637D01*
X2651254Y-13287637D02*
X2775063Y-13287637D01*
X2775063Y-13287637D02*
X2708397Y-13363827D01*
X2708397Y-13363827D02*
X2736968Y-13363827D01*
X2736968Y-13363827D02*
X2756016Y-13373351D01*
X2756016Y-13373351D02*
X2765540Y-13382875D01*
X2765540Y-13382875D02*
X2775063Y-13401922D01*
X2775063Y-13401922D02*
X2775063Y-13449541D01*
X2775063Y-13449541D02*
X2765540Y-13468589D01*
X2765540Y-13468589D02*
X2756016Y-13478113D01*
X2756016Y-13478113D02*
X2736968Y-13487637D01*
X2736968Y-13487637D02*
X2679825Y-13487637D01*
X2679825Y-13487637D02*
X2660778Y-13478113D01*
X2660778Y-13478113D02*
X2651254Y-13468589D01*
X2898873Y-13287637D02*
X2917920Y-13287637D01*
X2917920Y-13287637D02*
X2936968Y-13297160D01*
X2936968Y-13297160D02*
X2946492Y-13306684D01*
X2946492Y-13306684D02*
X2956016Y-13325732D01*
X2956016Y-13325732D02*
X2965539Y-13363827D01*
X2965539Y-13363827D02*
X2965539Y-13411446D01*
X2965539Y-13411446D02*
X2956016Y-13449541D01*
X2956016Y-13449541D02*
X2946492Y-13468589D01*
X2946492Y-13468589D02*
X2936968Y-13478113D01*
X2936968Y-13478113D02*
X2917920Y-13487637D01*
X2917920Y-13487637D02*
X2898873Y-13487637D01*
X2898873Y-13487637D02*
X2879825Y-13478113D01*
X2879825Y-13478113D02*
X2870301Y-13468589D01*
X2870301Y-13468589D02*
X2860778Y-13449541D01*
X2860778Y-13449541D02*
X2851254Y-13411446D01*
X2851254Y-13411446D02*
X2851254Y-13363827D01*
X2851254Y-13363827D02*
X2860778Y-13325732D01*
X2860778Y-13325732D02*
X2870301Y-13306684D01*
X2870301Y-13306684D02*
X2879825Y-13297160D01*
X2879825Y-13297160D02*
X2898873Y-13287637D01*
X3089349Y-13287637D02*
X3108397Y-13287637D01*
X3108397Y-13287637D02*
X3127444Y-13297160D01*
X3127444Y-13297160D02*
X3136968Y-13306684D01*
X3136968Y-13306684D02*
X3146492Y-13325732D01*
X3146492Y-13325732D02*
X3156016Y-13363827D01*
X3156016Y-13363827D02*
X3156016Y-13411446D01*
X3156016Y-13411446D02*
X3146492Y-13449541D01*
X3146492Y-13449541D02*
X3136968Y-13468589D01*
X3136968Y-13468589D02*
X3127444Y-13478113D01*
X3127444Y-13478113D02*
X3108397Y-13487637D01*
X3108397Y-13487637D02*
X3089349Y-13487637D01*
X3089349Y-13487637D02*
X3070301Y-13478113D01*
X3070301Y-13478113D02*
X3060778Y-13468589D01*
X3060778Y-13468589D02*
X3051254Y-13449541D01*
X3051254Y-13449541D02*
X3041730Y-13411446D01*
X3041730Y-13411446D02*
X3041730Y-13363827D01*
X3041730Y-13363827D02*
X3051254Y-13325732D01*
X3051254Y-13325732D02*
X3060778Y-13306684D01*
X3060778Y-13306684D02*
X3070301Y-13297160D01*
X3070301Y-13297160D02*
X3089349Y-13287637D01*
X3241730Y-13487637D02*
X3241730Y-13354303D01*
X3241730Y-13373351D02*
X3251254Y-13363827D01*
X3251254Y-13363827D02*
X3270301Y-13354303D01*
X3270301Y-13354303D02*
X3298873Y-13354303D01*
X3298873Y-13354303D02*
X3317920Y-13363827D01*
X3317920Y-13363827D02*
X3327444Y-13382875D01*
X3327444Y-13382875D02*
X3327444Y-13487637D01*
X3327444Y-13382875D02*
X3336968Y-13363827D01*
X3336968Y-13363827D02*
X3356016Y-13354303D01*
X3356016Y-13354303D02*
X3384587Y-13354303D01*
X3384587Y-13354303D02*
X3403635Y-13363827D01*
X3403635Y-13363827D02*
X3413159Y-13382875D01*
X3413159Y-13382875D02*
X3413159Y-13487637D01*
X3508397Y-13487637D02*
X3508397Y-13354303D01*
X3508397Y-13373351D02*
X3517920Y-13363827D01*
X3517920Y-13363827D02*
X3536968Y-13354303D01*
X3536968Y-13354303D02*
X3565540Y-13354303D01*
X3565540Y-13354303D02*
X3584587Y-13363827D01*
X3584587Y-13363827D02*
X3594111Y-13382875D01*
X3594111Y-13382875D02*
X3594111Y-13487637D01*
X3594111Y-13382875D02*
X3603635Y-13363827D01*
X3603635Y-13363827D02*
X3622682Y-13354303D01*
X3622682Y-13354303D02*
X3651254Y-13354303D01*
X3651254Y-13354303D02*
X3670301Y-13363827D01*
X3670301Y-13363827D02*
X3679825Y-13382875D01*
X3679825Y-13382875D02*
X3679825Y-13487637D01*
X4070301Y-13278113D02*
X3898873Y-13535256D01*
X4327444Y-13287637D02*
X4346492Y-13287637D01*
X4346492Y-13287637D02*
X4365540Y-13297160D01*
X4365540Y-13297160D02*
X4375064Y-13306684D01*
X4375064Y-13306684D02*
X4384587Y-13325732D01*
X4384587Y-13325732D02*
X4394111Y-13363827D01*
X4394111Y-13363827D02*
X4394111Y-13411446D01*
X4394111Y-13411446D02*
X4384587Y-13449541D01*
X4384587Y-13449541D02*
X4375064Y-13468589D01*
X4375064Y-13468589D02*
X4365540Y-13478113D01*
X4365540Y-13478113D02*
X4346492Y-13487637D01*
X4346492Y-13487637D02*
X4327444Y-13487637D01*
X4327444Y-13487637D02*
X4308397Y-13478113D01*
X4308397Y-13478113D02*
X4298873Y-13468589D01*
X4298873Y-13468589D02*
X4289349Y-13449541D01*
X4289349Y-13449541D02*
X4279825Y-13411446D01*
X4279825Y-13411446D02*
X4279825Y-13363827D01*
X4279825Y-13363827D02*
X4289349Y-13325732D01*
X4289349Y-13325732D02*
X4298873Y-13306684D01*
X4298873Y-13306684D02*
X4308397Y-13297160D01*
X4308397Y-13297160D02*
X4327444Y-13287637D01*
X4479825Y-13468589D02*
X4489349Y-13478113D01*
X4489349Y-13478113D02*
X4479825Y-13487637D01*
X4479825Y-13487637D02*
X4470302Y-13478113D01*
X4470302Y-13478113D02*
X4479825Y-13468589D01*
X4479825Y-13468589D02*
X4479825Y-13487637D01*
X4613159Y-13287637D02*
X4632206Y-13287637D01*
X4632206Y-13287637D02*
X4651254Y-13297160D01*
X4651254Y-13297160D02*
X4660778Y-13306684D01*
X4660778Y-13306684D02*
X4670302Y-13325732D01*
X4670302Y-13325732D02*
X4679825Y-13363827D01*
X4679825Y-13363827D02*
X4679825Y-13411446D01*
X4679825Y-13411446D02*
X4670302Y-13449541D01*
X4670302Y-13449541D02*
X4660778Y-13468589D01*
X4660778Y-13468589D02*
X4651254Y-13478113D01*
X4651254Y-13478113D02*
X4632206Y-13487637D01*
X4632206Y-13487637D02*
X4613159Y-13487637D01*
X4613159Y-13487637D02*
X4594111Y-13478113D01*
X4594111Y-13478113D02*
X4584587Y-13468589D01*
X4584587Y-13468589D02*
X4575064Y-13449541D01*
X4575064Y-13449541D02*
X4565540Y-13411446D01*
X4565540Y-13411446D02*
X4565540Y-13363827D01*
X4565540Y-13363827D02*
X4575064Y-13325732D01*
X4575064Y-13325732D02*
X4584587Y-13306684D01*
X4584587Y-13306684D02*
X4594111Y-13297160D01*
X4594111Y-13297160D02*
X4613159Y-13287637D01*
X4870302Y-13487637D02*
X4756016Y-13487637D01*
X4813159Y-13487637D02*
X4813159Y-13287637D01*
X4813159Y-13287637D02*
X4794111Y-13316208D01*
X4794111Y-13316208D02*
X4775064Y-13335256D01*
X4775064Y-13335256D02*
X4756016Y-13344779D01*
X5060778Y-13487637D02*
X4946492Y-13487637D01*
X5003635Y-13487637D02*
X5003635Y-13287637D01*
X5003635Y-13287637D02*
X4984587Y-13316208D01*
X4984587Y-13316208D02*
X4965540Y-13335256D01*
X4965540Y-13335256D02*
X4946492Y-13344779D01*
X5175064Y-13373351D02*
X5156016Y-13363827D01*
X5156016Y-13363827D02*
X5146492Y-13354303D01*
X5146492Y-13354303D02*
X5136968Y-13335256D01*
X5136968Y-13335256D02*
X5136968Y-13325732D01*
X5136968Y-13325732D02*
X5146492Y-13306684D01*
X5146492Y-13306684D02*
X5156016Y-13297160D01*
X5156016Y-13297160D02*
X5175064Y-13287637D01*
X5175064Y-13287637D02*
X5213159Y-13287637D01*
X5213159Y-13287637D02*
X5232206Y-13297160D01*
X5232206Y-13297160D02*
X5241730Y-13306684D01*
X5241730Y-13306684D02*
X5251254Y-13325732D01*
X5251254Y-13325732D02*
X5251254Y-13335256D01*
X5251254Y-13335256D02*
X5241730Y-13354303D01*
X5241730Y-13354303D02*
X5232206Y-13363827D01*
X5232206Y-13363827D02*
X5213159Y-13373351D01*
X5213159Y-13373351D02*
X5175064Y-13373351D01*
X5175064Y-13373351D02*
X5156016Y-13382875D01*
X5156016Y-13382875D02*
X5146492Y-13392399D01*
X5146492Y-13392399D02*
X5136968Y-13411446D01*
X5136968Y-13411446D02*
X5136968Y-13449541D01*
X5136968Y-13449541D02*
X5146492Y-13468589D01*
X5146492Y-13468589D02*
X5156016Y-13478113D01*
X5156016Y-13478113D02*
X5175064Y-13487637D01*
X5175064Y-13487637D02*
X5213159Y-13487637D01*
X5213159Y-13487637D02*
X5232206Y-13478113D01*
X5232206Y-13478113D02*
X5241730Y-13468589D01*
X5241730Y-13468589D02*
X5251254Y-13449541D01*
X5251254Y-13449541D02*
X5251254Y-13411446D01*
X5251254Y-13411446D02*
X5241730Y-13392399D01*
X5241730Y-13392399D02*
X5232206Y-13382875D01*
X5232206Y-13382875D02*
X5213159Y-13373351D01*
X5327445Y-13287637D02*
X5327445Y-13325732D01*
X5403635Y-13287637D02*
X5403635Y-13325732D01*
X5698873Y-13563827D02*
X5689349Y-13554303D01*
X5689349Y-13554303D02*
X5670302Y-13525732D01*
X5670302Y-13525732D02*
X5660778Y-13506684D01*
X5660778Y-13506684D02*
X5651254Y-13478113D01*
X5651254Y-13478113D02*
X5641730Y-13430494D01*
X5641730Y-13430494D02*
X5641730Y-13392399D01*
X5641730Y-13392399D02*
X5651254Y-13344779D01*
X5651254Y-13344779D02*
X5660778Y-13316208D01*
X5660778Y-13316208D02*
X5670302Y-13297160D01*
X5670302Y-13297160D02*
X5689349Y-13268589D01*
X5689349Y-13268589D02*
X5698873Y-13259065D01*
X5765540Y-13306684D02*
X5775064Y-13297160D01*
X5775064Y-13297160D02*
X5794111Y-13287637D01*
X5794111Y-13287637D02*
X5841730Y-13287637D01*
X5841730Y-13287637D02*
X5860778Y-13297160D01*
X5860778Y-13297160D02*
X5870302Y-13306684D01*
X5870302Y-13306684D02*
X5879825Y-13325732D01*
X5879825Y-13325732D02*
X5879825Y-13344779D01*
X5879825Y-13344779D02*
X5870302Y-13373351D01*
X5870302Y-13373351D02*
X5756016Y-13487637D01*
X5756016Y-13487637D02*
X5879825Y-13487637D01*
X6003635Y-13287637D02*
X6022683Y-13287637D01*
X6022683Y-13287637D02*
X6041730Y-13297160D01*
X6041730Y-13297160D02*
X6051254Y-13306684D01*
X6051254Y-13306684D02*
X6060778Y-13325732D01*
X6060778Y-13325732D02*
X6070302Y-13363827D01*
X6070302Y-13363827D02*
X6070302Y-13411446D01*
X6070302Y-13411446D02*
X6060778Y-13449541D01*
X6060778Y-13449541D02*
X6051254Y-13468589D01*
X6051254Y-13468589D02*
X6041730Y-13478113D01*
X6041730Y-13478113D02*
X6022683Y-13487637D01*
X6022683Y-13487637D02*
X6003635Y-13487637D01*
X6003635Y-13487637D02*
X5984587Y-13478113D01*
X5984587Y-13478113D02*
X5975064Y-13468589D01*
X5975064Y-13468589D02*
X5965540Y-13449541D01*
X5965540Y-13449541D02*
X5956016Y-13411446D01*
X5956016Y-13411446D02*
X5956016Y-13363827D01*
X5956016Y-13363827D02*
X5965540Y-13325732D01*
X5965540Y-13325732D02*
X5975064Y-13306684D01*
X5975064Y-13306684D02*
X5984587Y-13297160D01*
X5984587Y-13297160D02*
X6003635Y-13287637D01*
X6146492Y-13306684D02*
X6156016Y-13297160D01*
X6156016Y-13297160D02*
X6175064Y-13287637D01*
X6175064Y-13287637D02*
X6222683Y-13287637D01*
X6222683Y-13287637D02*
X6241730Y-13297160D01*
X6241730Y-13297160D02*
X6251254Y-13306684D01*
X6251254Y-13306684D02*
X6260778Y-13325732D01*
X6260778Y-13325732D02*
X6260778Y-13344779D01*
X6260778Y-13344779D02*
X6251254Y-13373351D01*
X6251254Y-13373351D02*
X6136968Y-13487637D01*
X6136968Y-13487637D02*
X6260778Y-13487637D01*
X6498873Y-13487637D02*
X6498873Y-13287637D01*
X6584587Y-13487637D02*
X6584587Y-13382875D01*
X6584587Y-13382875D02*
X6575064Y-13363827D01*
X6575064Y-13363827D02*
X6556016Y-13354303D01*
X6556016Y-13354303D02*
X6527445Y-13354303D01*
X6527445Y-13354303D02*
X6508397Y-13363827D01*
X6508397Y-13363827D02*
X6498873Y-13373351D01*
X6708397Y-13487637D02*
X6689349Y-13478113D01*
X6689349Y-13478113D02*
X6679826Y-13468589D01*
X6679826Y-13468589D02*
X6670302Y-13449541D01*
X6670302Y-13449541D02*
X6670302Y-13392399D01*
X6670302Y-13392399D02*
X6679826Y-13373351D01*
X6679826Y-13373351D02*
X6689349Y-13363827D01*
X6689349Y-13363827D02*
X6708397Y-13354303D01*
X6708397Y-13354303D02*
X6736968Y-13354303D01*
X6736968Y-13354303D02*
X6756016Y-13363827D01*
X6756016Y-13363827D02*
X6765540Y-13373351D01*
X6765540Y-13373351D02*
X6775064Y-13392399D01*
X6775064Y-13392399D02*
X6775064Y-13449541D01*
X6775064Y-13449541D02*
X6765540Y-13468589D01*
X6765540Y-13468589D02*
X6756016Y-13478113D01*
X6756016Y-13478113D02*
X6736968Y-13487637D01*
X6736968Y-13487637D02*
X6708397Y-13487637D01*
X6889349Y-13487637D02*
X6870302Y-13478113D01*
X6870302Y-13478113D02*
X6860778Y-13459065D01*
X6860778Y-13459065D02*
X6860778Y-13287637D01*
X7041730Y-13478113D02*
X7022683Y-13487637D01*
X7022683Y-13487637D02*
X6984587Y-13487637D01*
X6984587Y-13487637D02*
X6965540Y-13478113D01*
X6965540Y-13478113D02*
X6956016Y-13459065D01*
X6956016Y-13459065D02*
X6956016Y-13382875D01*
X6956016Y-13382875D02*
X6965540Y-13363827D01*
X6965540Y-13363827D02*
X6984587Y-13354303D01*
X6984587Y-13354303D02*
X7022683Y-13354303D01*
X7022683Y-13354303D02*
X7041730Y-13363827D01*
X7041730Y-13363827D02*
X7051254Y-13382875D01*
X7051254Y-13382875D02*
X7051254Y-13401922D01*
X7051254Y-13401922D02*
X6956016Y-13420970D01*
X7127445Y-13478113D02*
X7146492Y-13487637D01*
X7146492Y-13487637D02*
X7184587Y-13487637D01*
X7184587Y-13487637D02*
X7203635Y-13478113D01*
X7203635Y-13478113D02*
X7213159Y-13459065D01*
X7213159Y-13459065D02*
X7213159Y-13449541D01*
X7213159Y-13449541D02*
X7203635Y-13430494D01*
X7203635Y-13430494D02*
X7184587Y-13420970D01*
X7184587Y-13420970D02*
X7156016Y-13420970D01*
X7156016Y-13420970D02*
X7136968Y-13411446D01*
X7136968Y-13411446D02*
X7127445Y-13392399D01*
X7127445Y-13392399D02*
X7127445Y-13382875D01*
X7127445Y-13382875D02*
X7136968Y-13363827D01*
X7136968Y-13363827D02*
X7156016Y-13354303D01*
X7156016Y-13354303D02*
X7184587Y-13354303D01*
X7184587Y-13354303D02*
X7203635Y-13363827D01*
X7279826Y-13563827D02*
X7289349Y-13554303D01*
X7289349Y-13554303D02*
X7308397Y-13525732D01*
X7308397Y-13525732D02*
X7317921Y-13506684D01*
X7317921Y-13506684D02*
X7327445Y-13478113D01*
X7327445Y-13478113D02*
X7336968Y-13430494D01*
X7336968Y-13430494D02*
X7336968Y-13392399D01*
X7336968Y-13392399D02*
X7327445Y-13344779D01*
X7327445Y-13344779D02*
X7317921Y-13316208D01*
X7317921Y-13316208D02*
X7308397Y-13297160D01*
X7308397Y-13297160D02*
X7289349Y-13268589D01*
X7289349Y-13268589D02*
X7279826Y-13259065D01*
D13*
X2123810Y-13660153D02*
G75*
G02*
X2093810Y-13660153I-15000J0D01*
G01*
X2093810Y-13660153D02*
G75*
G02*
X2123810Y-13660153I15000J0D01*
G01*
D12*
X2422682Y-13551637D02*
X2441730Y-13551637D01*
X2441730Y-13551637D02*
X2460778Y-13561160D01*
X2460778Y-13561160D02*
X2470301Y-13570684D01*
X2470301Y-13570684D02*
X2479825Y-13589732D01*
X2479825Y-13589732D02*
X2489349Y-13627827D01*
X2489349Y-13627827D02*
X2489349Y-13675446D01*
X2489349Y-13675446D02*
X2479825Y-13713541D01*
X2479825Y-13713541D02*
X2470301Y-13732589D01*
X2470301Y-13732589D02*
X2460778Y-13742113D01*
X2460778Y-13742113D02*
X2441730Y-13751637D01*
X2441730Y-13751637D02*
X2422682Y-13751637D01*
X2422682Y-13751637D02*
X2403635Y-13742113D01*
X2403635Y-13742113D02*
X2394111Y-13732589D01*
X2394111Y-13732589D02*
X2384587Y-13713541D01*
X2384587Y-13713541D02*
X2375063Y-13675446D01*
X2375063Y-13675446D02*
X2375063Y-13627827D01*
X2375063Y-13627827D02*
X2384587Y-13589732D01*
X2384587Y-13589732D02*
X2394111Y-13570684D01*
X2394111Y-13570684D02*
X2403635Y-13561160D01*
X2403635Y-13561160D02*
X2422682Y-13551637D01*
X2575063Y-13732589D02*
X2584587Y-13742113D01*
X2584587Y-13742113D02*
X2575063Y-13751637D01*
X2575063Y-13751637D02*
X2565540Y-13742113D01*
X2565540Y-13742113D02*
X2575063Y-13732589D01*
X2575063Y-13732589D02*
X2575063Y-13751637D01*
X2651254Y-13551637D02*
X2775063Y-13551637D01*
X2775063Y-13551637D02*
X2708397Y-13627827D01*
X2708397Y-13627827D02*
X2736968Y-13627827D01*
X2736968Y-13627827D02*
X2756016Y-13637351D01*
X2756016Y-13637351D02*
X2765540Y-13646875D01*
X2765540Y-13646875D02*
X2775063Y-13665922D01*
X2775063Y-13665922D02*
X2775063Y-13713541D01*
X2775063Y-13713541D02*
X2765540Y-13732589D01*
X2765540Y-13732589D02*
X2756016Y-13742113D01*
X2756016Y-13742113D02*
X2736968Y-13751637D01*
X2736968Y-13751637D02*
X2679825Y-13751637D01*
X2679825Y-13751637D02*
X2660778Y-13742113D01*
X2660778Y-13742113D02*
X2651254Y-13732589D01*
X2898873Y-13551637D02*
X2917920Y-13551637D01*
X2917920Y-13551637D02*
X2936968Y-13561160D01*
X2936968Y-13561160D02*
X2946492Y-13570684D01*
X2946492Y-13570684D02*
X2956016Y-13589732D01*
X2956016Y-13589732D02*
X2965539Y-13627827D01*
X2965539Y-13627827D02*
X2965539Y-13675446D01*
X2965539Y-13675446D02*
X2956016Y-13713541D01*
X2956016Y-13713541D02*
X2946492Y-13732589D01*
X2946492Y-13732589D02*
X2936968Y-13742113D01*
X2936968Y-13742113D02*
X2917920Y-13751637D01*
X2917920Y-13751637D02*
X2898873Y-13751637D01*
X2898873Y-13751637D02*
X2879825Y-13742113D01*
X2879825Y-13742113D02*
X2870301Y-13732589D01*
X2870301Y-13732589D02*
X2860778Y-13713541D01*
X2860778Y-13713541D02*
X2851254Y-13675446D01*
X2851254Y-13675446D02*
X2851254Y-13627827D01*
X2851254Y-13627827D02*
X2860778Y-13589732D01*
X2860778Y-13589732D02*
X2870301Y-13570684D01*
X2870301Y-13570684D02*
X2879825Y-13561160D01*
X2879825Y-13561160D02*
X2898873Y-13551637D01*
X3089349Y-13551637D02*
X3108397Y-13551637D01*
X3108397Y-13551637D02*
X3127444Y-13561160D01*
X3127444Y-13561160D02*
X3136968Y-13570684D01*
X3136968Y-13570684D02*
X3146492Y-13589732D01*
X3146492Y-13589732D02*
X3156016Y-13627827D01*
X3156016Y-13627827D02*
X3156016Y-13675446D01*
X3156016Y-13675446D02*
X3146492Y-13713541D01*
X3146492Y-13713541D02*
X3136968Y-13732589D01*
X3136968Y-13732589D02*
X3127444Y-13742113D01*
X3127444Y-13742113D02*
X3108397Y-13751637D01*
X3108397Y-13751637D02*
X3089349Y-13751637D01*
X3089349Y-13751637D02*
X3070301Y-13742113D01*
X3070301Y-13742113D02*
X3060778Y-13732589D01*
X3060778Y-13732589D02*
X3051254Y-13713541D01*
X3051254Y-13713541D02*
X3041730Y-13675446D01*
X3041730Y-13675446D02*
X3041730Y-13627827D01*
X3041730Y-13627827D02*
X3051254Y-13589732D01*
X3051254Y-13589732D02*
X3060778Y-13570684D01*
X3060778Y-13570684D02*
X3070301Y-13561160D01*
X3070301Y-13561160D02*
X3089349Y-13551637D01*
X3241730Y-13751637D02*
X3241730Y-13618303D01*
X3241730Y-13637351D02*
X3251254Y-13627827D01*
X3251254Y-13627827D02*
X3270301Y-13618303D01*
X3270301Y-13618303D02*
X3298873Y-13618303D01*
X3298873Y-13618303D02*
X3317920Y-13627827D01*
X3317920Y-13627827D02*
X3327444Y-13646875D01*
X3327444Y-13646875D02*
X3327444Y-13751637D01*
X3327444Y-13646875D02*
X3336968Y-13627827D01*
X3336968Y-13627827D02*
X3356016Y-13618303D01*
X3356016Y-13618303D02*
X3384587Y-13618303D01*
X3384587Y-13618303D02*
X3403635Y-13627827D01*
X3403635Y-13627827D02*
X3413159Y-13646875D01*
X3413159Y-13646875D02*
X3413159Y-13751637D01*
X3508397Y-13751637D02*
X3508397Y-13618303D01*
X3508397Y-13637351D02*
X3517920Y-13627827D01*
X3517920Y-13627827D02*
X3536968Y-13618303D01*
X3536968Y-13618303D02*
X3565540Y-13618303D01*
X3565540Y-13618303D02*
X3584587Y-13627827D01*
X3584587Y-13627827D02*
X3594111Y-13646875D01*
X3594111Y-13646875D02*
X3594111Y-13751637D01*
X3594111Y-13646875D02*
X3603635Y-13627827D01*
X3603635Y-13627827D02*
X3622682Y-13618303D01*
X3622682Y-13618303D02*
X3651254Y-13618303D01*
X3651254Y-13618303D02*
X3670301Y-13627827D01*
X3670301Y-13627827D02*
X3679825Y-13646875D01*
X3679825Y-13646875D02*
X3679825Y-13751637D01*
X4070301Y-13542113D02*
X3898873Y-13799256D01*
X4327444Y-13551637D02*
X4346492Y-13551637D01*
X4346492Y-13551637D02*
X4365540Y-13561160D01*
X4365540Y-13561160D02*
X4375064Y-13570684D01*
X4375064Y-13570684D02*
X4384587Y-13589732D01*
X4384587Y-13589732D02*
X4394111Y-13627827D01*
X4394111Y-13627827D02*
X4394111Y-13675446D01*
X4394111Y-13675446D02*
X4384587Y-13713541D01*
X4384587Y-13713541D02*
X4375064Y-13732589D01*
X4375064Y-13732589D02*
X4365540Y-13742113D01*
X4365540Y-13742113D02*
X4346492Y-13751637D01*
X4346492Y-13751637D02*
X4327444Y-13751637D01*
X4327444Y-13751637D02*
X4308397Y-13742113D01*
X4308397Y-13742113D02*
X4298873Y-13732589D01*
X4298873Y-13732589D02*
X4289349Y-13713541D01*
X4289349Y-13713541D02*
X4279825Y-13675446D01*
X4279825Y-13675446D02*
X4279825Y-13627827D01*
X4279825Y-13627827D02*
X4289349Y-13589732D01*
X4289349Y-13589732D02*
X4298873Y-13570684D01*
X4298873Y-13570684D02*
X4308397Y-13561160D01*
X4308397Y-13561160D02*
X4327444Y-13551637D01*
X4479825Y-13732589D02*
X4489349Y-13742113D01*
X4489349Y-13742113D02*
X4479825Y-13751637D01*
X4479825Y-13751637D02*
X4470302Y-13742113D01*
X4470302Y-13742113D02*
X4479825Y-13732589D01*
X4479825Y-13732589D02*
X4479825Y-13751637D01*
X4613159Y-13551637D02*
X4632206Y-13551637D01*
X4632206Y-13551637D02*
X4651254Y-13561160D01*
X4651254Y-13561160D02*
X4660778Y-13570684D01*
X4660778Y-13570684D02*
X4670302Y-13589732D01*
X4670302Y-13589732D02*
X4679825Y-13627827D01*
X4679825Y-13627827D02*
X4679825Y-13675446D01*
X4679825Y-13675446D02*
X4670302Y-13713541D01*
X4670302Y-13713541D02*
X4660778Y-13732589D01*
X4660778Y-13732589D02*
X4651254Y-13742113D01*
X4651254Y-13742113D02*
X4632206Y-13751637D01*
X4632206Y-13751637D02*
X4613159Y-13751637D01*
X4613159Y-13751637D02*
X4594111Y-13742113D01*
X4594111Y-13742113D02*
X4584587Y-13732589D01*
X4584587Y-13732589D02*
X4575064Y-13713541D01*
X4575064Y-13713541D02*
X4565540Y-13675446D01*
X4565540Y-13675446D02*
X4565540Y-13627827D01*
X4565540Y-13627827D02*
X4575064Y-13589732D01*
X4575064Y-13589732D02*
X4584587Y-13570684D01*
X4584587Y-13570684D02*
X4594111Y-13561160D01*
X4594111Y-13561160D02*
X4613159Y-13551637D01*
X4870302Y-13751637D02*
X4756016Y-13751637D01*
X4813159Y-13751637D02*
X4813159Y-13551637D01*
X4813159Y-13551637D02*
X4794111Y-13580208D01*
X4794111Y-13580208D02*
X4775064Y-13599256D01*
X4775064Y-13599256D02*
X4756016Y-13608779D01*
X5060778Y-13751637D02*
X4946492Y-13751637D01*
X5003635Y-13751637D02*
X5003635Y-13551637D01*
X5003635Y-13551637D02*
X4984587Y-13580208D01*
X4984587Y-13580208D02*
X4965540Y-13599256D01*
X4965540Y-13599256D02*
X4946492Y-13608779D01*
X5175064Y-13637351D02*
X5156016Y-13627827D01*
X5156016Y-13627827D02*
X5146492Y-13618303D01*
X5146492Y-13618303D02*
X5136968Y-13599256D01*
X5136968Y-13599256D02*
X5136968Y-13589732D01*
X5136968Y-13589732D02*
X5146492Y-13570684D01*
X5146492Y-13570684D02*
X5156016Y-13561160D01*
X5156016Y-13561160D02*
X5175064Y-13551637D01*
X5175064Y-13551637D02*
X5213159Y-13551637D01*
X5213159Y-13551637D02*
X5232206Y-13561160D01*
X5232206Y-13561160D02*
X5241730Y-13570684D01*
X5241730Y-13570684D02*
X5251254Y-13589732D01*
X5251254Y-13589732D02*
X5251254Y-13599256D01*
X5251254Y-13599256D02*
X5241730Y-13618303D01*
X5241730Y-13618303D02*
X5232206Y-13627827D01*
X5232206Y-13627827D02*
X5213159Y-13637351D01*
X5213159Y-13637351D02*
X5175064Y-13637351D01*
X5175064Y-13637351D02*
X5156016Y-13646875D01*
X5156016Y-13646875D02*
X5146492Y-13656399D01*
X5146492Y-13656399D02*
X5136968Y-13675446D01*
X5136968Y-13675446D02*
X5136968Y-13713541D01*
X5136968Y-13713541D02*
X5146492Y-13732589D01*
X5146492Y-13732589D02*
X5156016Y-13742113D01*
X5156016Y-13742113D02*
X5175064Y-13751637D01*
X5175064Y-13751637D02*
X5213159Y-13751637D01*
X5213159Y-13751637D02*
X5232206Y-13742113D01*
X5232206Y-13742113D02*
X5241730Y-13732589D01*
X5241730Y-13732589D02*
X5251254Y-13713541D01*
X5251254Y-13713541D02*
X5251254Y-13675446D01*
X5251254Y-13675446D02*
X5241730Y-13656399D01*
X5241730Y-13656399D02*
X5232206Y-13646875D01*
X5232206Y-13646875D02*
X5213159Y-13637351D01*
X5327445Y-13551637D02*
X5327445Y-13589732D01*
X5403635Y-13551637D02*
X5403635Y-13589732D01*
X5698873Y-13827827D02*
X5689349Y-13818303D01*
X5689349Y-13818303D02*
X5670302Y-13789732D01*
X5670302Y-13789732D02*
X5660778Y-13770684D01*
X5660778Y-13770684D02*
X5651254Y-13742113D01*
X5651254Y-13742113D02*
X5641730Y-13694494D01*
X5641730Y-13694494D02*
X5641730Y-13656399D01*
X5641730Y-13656399D02*
X5651254Y-13608779D01*
X5651254Y-13608779D02*
X5660778Y-13580208D01*
X5660778Y-13580208D02*
X5670302Y-13561160D01*
X5670302Y-13561160D02*
X5689349Y-13532589D01*
X5689349Y-13532589D02*
X5698873Y-13523065D01*
X5784587Y-13751637D02*
X5822683Y-13751637D01*
X5822683Y-13751637D02*
X5841730Y-13742113D01*
X5841730Y-13742113D02*
X5851254Y-13732589D01*
X5851254Y-13732589D02*
X5870302Y-13704018D01*
X5870302Y-13704018D02*
X5879825Y-13665922D01*
X5879825Y-13665922D02*
X5879825Y-13589732D01*
X5879825Y-13589732D02*
X5870302Y-13570684D01*
X5870302Y-13570684D02*
X5860778Y-13561160D01*
X5860778Y-13561160D02*
X5841730Y-13551637D01*
X5841730Y-13551637D02*
X5803635Y-13551637D01*
X5803635Y-13551637D02*
X5784587Y-13561160D01*
X5784587Y-13561160D02*
X5775064Y-13570684D01*
X5775064Y-13570684D02*
X5765540Y-13589732D01*
X5765540Y-13589732D02*
X5765540Y-13637351D01*
X5765540Y-13637351D02*
X5775064Y-13656399D01*
X5775064Y-13656399D02*
X5784587Y-13665922D01*
X5784587Y-13665922D02*
X5803635Y-13675446D01*
X5803635Y-13675446D02*
X5841730Y-13675446D01*
X5841730Y-13675446D02*
X5860778Y-13665922D01*
X5860778Y-13665922D02*
X5870302Y-13656399D01*
X5870302Y-13656399D02*
X5879825Y-13637351D01*
X6117921Y-13751637D02*
X6117921Y-13551637D01*
X6203635Y-13751637D02*
X6203635Y-13646875D01*
X6203635Y-13646875D02*
X6194111Y-13627827D01*
X6194111Y-13627827D02*
X6175064Y-13618303D01*
X6175064Y-13618303D02*
X6146492Y-13618303D01*
X6146492Y-13618303D02*
X6127445Y-13627827D01*
X6127445Y-13627827D02*
X6117921Y-13637351D01*
X6327445Y-13751637D02*
X6308397Y-13742113D01*
X6308397Y-13742113D02*
X6298873Y-13732589D01*
X6298873Y-13732589D02*
X6289349Y-13713541D01*
X6289349Y-13713541D02*
X6289349Y-13656399D01*
X6289349Y-13656399D02*
X6298873Y-13637351D01*
X6298873Y-13637351D02*
X6308397Y-13627827D01*
X6308397Y-13627827D02*
X6327445Y-13618303D01*
X6327445Y-13618303D02*
X6356016Y-13618303D01*
X6356016Y-13618303D02*
X6375064Y-13627827D01*
X6375064Y-13627827D02*
X6384587Y-13637351D01*
X6384587Y-13637351D02*
X6394111Y-13656399D01*
X6394111Y-13656399D02*
X6394111Y-13713541D01*
X6394111Y-13713541D02*
X6384587Y-13732589D01*
X6384587Y-13732589D02*
X6375064Y-13742113D01*
X6375064Y-13742113D02*
X6356016Y-13751637D01*
X6356016Y-13751637D02*
X6327445Y-13751637D01*
X6508397Y-13751637D02*
X6489349Y-13742113D01*
X6489349Y-13742113D02*
X6479826Y-13723065D01*
X6479826Y-13723065D02*
X6479826Y-13551637D01*
X6660778Y-13742113D02*
X6641730Y-13751637D01*
X6641730Y-13751637D02*
X6603635Y-13751637D01*
X6603635Y-13751637D02*
X6584587Y-13742113D01*
X6584587Y-13742113D02*
X6575064Y-13723065D01*
X6575064Y-13723065D02*
X6575064Y-13646875D01*
X6575064Y-13646875D02*
X6584587Y-13627827D01*
X6584587Y-13627827D02*
X6603635Y-13618303D01*
X6603635Y-13618303D02*
X6641730Y-13618303D01*
X6641730Y-13618303D02*
X6660778Y-13627827D01*
X6660778Y-13627827D02*
X6670302Y-13646875D01*
X6670302Y-13646875D02*
X6670302Y-13665922D01*
X6670302Y-13665922D02*
X6575064Y-13684970D01*
X6746492Y-13742113D02*
X6765540Y-13751637D01*
X6765540Y-13751637D02*
X6803635Y-13751637D01*
X6803635Y-13751637D02*
X6822683Y-13742113D01*
X6822683Y-13742113D02*
X6832207Y-13723065D01*
X6832207Y-13723065D02*
X6832207Y-13713541D01*
X6832207Y-13713541D02*
X6822683Y-13694494D01*
X6822683Y-13694494D02*
X6803635Y-13684970D01*
X6803635Y-13684970D02*
X6775064Y-13684970D01*
X6775064Y-13684970D02*
X6756016Y-13675446D01*
X6756016Y-13675446D02*
X6746492Y-13656399D01*
X6746492Y-13656399D02*
X6746492Y-13646875D01*
X6746492Y-13646875D02*
X6756016Y-13627827D01*
X6756016Y-13627827D02*
X6775064Y-13618303D01*
X6775064Y-13618303D02*
X6803635Y-13618303D01*
X6803635Y-13618303D02*
X6822683Y-13627827D01*
X6898873Y-13827827D02*
X6908397Y-13818303D01*
X6908397Y-13818303D02*
X6927445Y-13789732D01*
X6927445Y-13789732D02*
X6936968Y-13770684D01*
X6936968Y-13770684D02*
X6946492Y-13742113D01*
X6946492Y-13742113D02*
X6956016Y-13694494D01*
X6956016Y-13694494D02*
X6956016Y-13656399D01*
X6956016Y-13656399D02*
X6946492Y-13608779D01*
X6946492Y-13608779D02*
X6936968Y-13580208D01*
X6936968Y-13580208D02*
X6927445Y-13561160D01*
X6927445Y-13561160D02*
X6908397Y-13532589D01*
X6908397Y-13532589D02*
X6898873Y-13523065D01*
D13*
X2091310Y-13891653D02*
X2091310Y-13956653D01*
X2058810Y-13924153D02*
X2123810Y-13924153D01*
D12*
X2422682Y-13815637D02*
X2441730Y-13815637D01*
X2441730Y-13815637D02*
X2460778Y-13825160D01*
X2460778Y-13825160D02*
X2470301Y-13834684D01*
X2470301Y-13834684D02*
X2479825Y-13853732D01*
X2479825Y-13853732D02*
X2489349Y-13891827D01*
X2489349Y-13891827D02*
X2489349Y-13939446D01*
X2489349Y-13939446D02*
X2479825Y-13977541D01*
X2479825Y-13977541D02*
X2470301Y-13996589D01*
X2470301Y-13996589D02*
X2460778Y-14006113D01*
X2460778Y-14006113D02*
X2441730Y-14015637D01*
X2441730Y-14015637D02*
X2422682Y-14015637D01*
X2422682Y-14015637D02*
X2403635Y-14006113D01*
X2403635Y-14006113D02*
X2394111Y-13996589D01*
X2394111Y-13996589D02*
X2384587Y-13977541D01*
X2384587Y-13977541D02*
X2375063Y-13939446D01*
X2375063Y-13939446D02*
X2375063Y-13891827D01*
X2375063Y-13891827D02*
X2384587Y-13853732D01*
X2384587Y-13853732D02*
X2394111Y-13834684D01*
X2394111Y-13834684D02*
X2403635Y-13825160D01*
X2403635Y-13825160D02*
X2422682Y-13815637D01*
X2575063Y-13996589D02*
X2584587Y-14006113D01*
X2584587Y-14006113D02*
X2575063Y-14015637D01*
X2575063Y-14015637D02*
X2565540Y-14006113D01*
X2565540Y-14006113D02*
X2575063Y-13996589D01*
X2575063Y-13996589D02*
X2575063Y-14015637D01*
X2756016Y-13815637D02*
X2717920Y-13815637D01*
X2717920Y-13815637D02*
X2698873Y-13825160D01*
X2698873Y-13825160D02*
X2689349Y-13834684D01*
X2689349Y-13834684D02*
X2670301Y-13863256D01*
X2670301Y-13863256D02*
X2660778Y-13901351D01*
X2660778Y-13901351D02*
X2660778Y-13977541D01*
X2660778Y-13977541D02*
X2670301Y-13996589D01*
X2670301Y-13996589D02*
X2679825Y-14006113D01*
X2679825Y-14006113D02*
X2698873Y-14015637D01*
X2698873Y-14015637D02*
X2736968Y-14015637D01*
X2736968Y-14015637D02*
X2756016Y-14006113D01*
X2756016Y-14006113D02*
X2765540Y-13996589D01*
X2765540Y-13996589D02*
X2775063Y-13977541D01*
X2775063Y-13977541D02*
X2775063Y-13929922D01*
X2775063Y-13929922D02*
X2765540Y-13910875D01*
X2765540Y-13910875D02*
X2756016Y-13901351D01*
X2756016Y-13901351D02*
X2736968Y-13891827D01*
X2736968Y-13891827D02*
X2698873Y-13891827D01*
X2698873Y-13891827D02*
X2679825Y-13901351D01*
X2679825Y-13901351D02*
X2670301Y-13910875D01*
X2670301Y-13910875D02*
X2660778Y-13929922D01*
X2956016Y-13815637D02*
X2860778Y-13815637D01*
X2860778Y-13815637D02*
X2851254Y-13910875D01*
X2851254Y-13910875D02*
X2860778Y-13901351D01*
X2860778Y-13901351D02*
X2879825Y-13891827D01*
X2879825Y-13891827D02*
X2927444Y-13891827D01*
X2927444Y-13891827D02*
X2946492Y-13901351D01*
X2946492Y-13901351D02*
X2956016Y-13910875D01*
X2956016Y-13910875D02*
X2965539Y-13929922D01*
X2965539Y-13929922D02*
X2965539Y-13977541D01*
X2965539Y-13977541D02*
X2956016Y-13996589D01*
X2956016Y-13996589D02*
X2946492Y-14006113D01*
X2946492Y-14006113D02*
X2927444Y-14015637D01*
X2927444Y-14015637D02*
X2879825Y-14015637D01*
X2879825Y-14015637D02*
X2860778Y-14006113D01*
X2860778Y-14006113D02*
X2851254Y-13996589D01*
X3089349Y-13815637D02*
X3108397Y-13815637D01*
X3108397Y-13815637D02*
X3127444Y-13825160D01*
X3127444Y-13825160D02*
X3136968Y-13834684D01*
X3136968Y-13834684D02*
X3146492Y-13853732D01*
X3146492Y-13853732D02*
X3156016Y-13891827D01*
X3156016Y-13891827D02*
X3156016Y-13939446D01*
X3156016Y-13939446D02*
X3146492Y-13977541D01*
X3146492Y-13977541D02*
X3136968Y-13996589D01*
X3136968Y-13996589D02*
X3127444Y-14006113D01*
X3127444Y-14006113D02*
X3108397Y-14015637D01*
X3108397Y-14015637D02*
X3089349Y-14015637D01*
X3089349Y-14015637D02*
X3070301Y-14006113D01*
X3070301Y-14006113D02*
X3060778Y-13996589D01*
X3060778Y-13996589D02*
X3051254Y-13977541D01*
X3051254Y-13977541D02*
X3041730Y-13939446D01*
X3041730Y-13939446D02*
X3041730Y-13891827D01*
X3041730Y-13891827D02*
X3051254Y-13853732D01*
X3051254Y-13853732D02*
X3060778Y-13834684D01*
X3060778Y-13834684D02*
X3070301Y-13825160D01*
X3070301Y-13825160D02*
X3089349Y-13815637D01*
X3241730Y-14015637D02*
X3241730Y-13882303D01*
X3241730Y-13901351D02*
X3251254Y-13891827D01*
X3251254Y-13891827D02*
X3270301Y-13882303D01*
X3270301Y-13882303D02*
X3298873Y-13882303D01*
X3298873Y-13882303D02*
X3317920Y-13891827D01*
X3317920Y-13891827D02*
X3327444Y-13910875D01*
X3327444Y-13910875D02*
X3327444Y-14015637D01*
X3327444Y-13910875D02*
X3336968Y-13891827D01*
X3336968Y-13891827D02*
X3356016Y-13882303D01*
X3356016Y-13882303D02*
X3384587Y-13882303D01*
X3384587Y-13882303D02*
X3403635Y-13891827D01*
X3403635Y-13891827D02*
X3413159Y-13910875D01*
X3413159Y-13910875D02*
X3413159Y-14015637D01*
X3508397Y-14015637D02*
X3508397Y-13882303D01*
X3508397Y-13901351D02*
X3517920Y-13891827D01*
X3517920Y-13891827D02*
X3536968Y-13882303D01*
X3536968Y-13882303D02*
X3565540Y-13882303D01*
X3565540Y-13882303D02*
X3584587Y-13891827D01*
X3584587Y-13891827D02*
X3594111Y-13910875D01*
X3594111Y-13910875D02*
X3594111Y-14015637D01*
X3594111Y-13910875D02*
X3603635Y-13891827D01*
X3603635Y-13891827D02*
X3622682Y-13882303D01*
X3622682Y-13882303D02*
X3651254Y-13882303D01*
X3651254Y-13882303D02*
X3670301Y-13891827D01*
X3670301Y-13891827D02*
X3679825Y-13910875D01*
X3679825Y-13910875D02*
X3679825Y-14015637D01*
X4070301Y-13806113D02*
X3898873Y-14063256D01*
X4327444Y-13815637D02*
X4346492Y-13815637D01*
X4346492Y-13815637D02*
X4365540Y-13825160D01*
X4365540Y-13825160D02*
X4375064Y-13834684D01*
X4375064Y-13834684D02*
X4384587Y-13853732D01*
X4384587Y-13853732D02*
X4394111Y-13891827D01*
X4394111Y-13891827D02*
X4394111Y-13939446D01*
X4394111Y-13939446D02*
X4384587Y-13977541D01*
X4384587Y-13977541D02*
X4375064Y-13996589D01*
X4375064Y-13996589D02*
X4365540Y-14006113D01*
X4365540Y-14006113D02*
X4346492Y-14015637D01*
X4346492Y-14015637D02*
X4327444Y-14015637D01*
X4327444Y-14015637D02*
X4308397Y-14006113D01*
X4308397Y-14006113D02*
X4298873Y-13996589D01*
X4298873Y-13996589D02*
X4289349Y-13977541D01*
X4289349Y-13977541D02*
X4279825Y-13939446D01*
X4279825Y-13939446D02*
X4279825Y-13891827D01*
X4279825Y-13891827D02*
X4289349Y-13853732D01*
X4289349Y-13853732D02*
X4298873Y-13834684D01*
X4298873Y-13834684D02*
X4308397Y-13825160D01*
X4308397Y-13825160D02*
X4327444Y-13815637D01*
X4479825Y-13996589D02*
X4489349Y-14006113D01*
X4489349Y-14006113D02*
X4479825Y-14015637D01*
X4479825Y-14015637D02*
X4470302Y-14006113D01*
X4470302Y-14006113D02*
X4479825Y-13996589D01*
X4479825Y-13996589D02*
X4479825Y-14015637D01*
X4613159Y-13815637D02*
X4632206Y-13815637D01*
X4632206Y-13815637D02*
X4651254Y-13825160D01*
X4651254Y-13825160D02*
X4660778Y-13834684D01*
X4660778Y-13834684D02*
X4670302Y-13853732D01*
X4670302Y-13853732D02*
X4679825Y-13891827D01*
X4679825Y-13891827D02*
X4679825Y-13939446D01*
X4679825Y-13939446D02*
X4670302Y-13977541D01*
X4670302Y-13977541D02*
X4660778Y-13996589D01*
X4660778Y-13996589D02*
X4651254Y-14006113D01*
X4651254Y-14006113D02*
X4632206Y-14015637D01*
X4632206Y-14015637D02*
X4613159Y-14015637D01*
X4613159Y-14015637D02*
X4594111Y-14006113D01*
X4594111Y-14006113D02*
X4584587Y-13996589D01*
X4584587Y-13996589D02*
X4575064Y-13977541D01*
X4575064Y-13977541D02*
X4565540Y-13939446D01*
X4565540Y-13939446D02*
X4565540Y-13891827D01*
X4565540Y-13891827D02*
X4575064Y-13853732D01*
X4575064Y-13853732D02*
X4584587Y-13834684D01*
X4584587Y-13834684D02*
X4594111Y-13825160D01*
X4594111Y-13825160D02*
X4613159Y-13815637D01*
X4756016Y-13834684D02*
X4765540Y-13825160D01*
X4765540Y-13825160D02*
X4784587Y-13815637D01*
X4784587Y-13815637D02*
X4832206Y-13815637D01*
X4832206Y-13815637D02*
X4851254Y-13825160D01*
X4851254Y-13825160D02*
X4860778Y-13834684D01*
X4860778Y-13834684D02*
X4870302Y-13853732D01*
X4870302Y-13853732D02*
X4870302Y-13872779D01*
X4870302Y-13872779D02*
X4860778Y-13901351D01*
X4860778Y-13901351D02*
X4746492Y-14015637D01*
X4746492Y-14015637D02*
X4870302Y-14015637D01*
X5051254Y-13815637D02*
X4956016Y-13815637D01*
X4956016Y-13815637D02*
X4946492Y-13910875D01*
X4946492Y-13910875D02*
X4956016Y-13901351D01*
X4956016Y-13901351D02*
X4975064Y-13891827D01*
X4975064Y-13891827D02*
X5022683Y-13891827D01*
X5022683Y-13891827D02*
X5041730Y-13901351D01*
X5041730Y-13901351D02*
X5051254Y-13910875D01*
X5051254Y-13910875D02*
X5060778Y-13929922D01*
X5060778Y-13929922D02*
X5060778Y-13977541D01*
X5060778Y-13977541D02*
X5051254Y-13996589D01*
X5051254Y-13996589D02*
X5041730Y-14006113D01*
X5041730Y-14006113D02*
X5022683Y-14015637D01*
X5022683Y-14015637D02*
X4975064Y-14015637D01*
X4975064Y-14015637D02*
X4956016Y-14006113D01*
X4956016Y-14006113D02*
X4946492Y-13996589D01*
X5232206Y-13815637D02*
X5194111Y-13815637D01*
X5194111Y-13815637D02*
X5175064Y-13825160D01*
X5175064Y-13825160D02*
X5165540Y-13834684D01*
X5165540Y-13834684D02*
X5146492Y-13863256D01*
X5146492Y-13863256D02*
X5136968Y-13901351D01*
X5136968Y-13901351D02*
X5136968Y-13977541D01*
X5136968Y-13977541D02*
X5146492Y-13996589D01*
X5146492Y-13996589D02*
X5156016Y-14006113D01*
X5156016Y-14006113D02*
X5175064Y-14015637D01*
X5175064Y-14015637D02*
X5213159Y-14015637D01*
X5213159Y-14015637D02*
X5232206Y-14006113D01*
X5232206Y-14006113D02*
X5241730Y-13996589D01*
X5241730Y-13996589D02*
X5251254Y-13977541D01*
X5251254Y-13977541D02*
X5251254Y-13929922D01*
X5251254Y-13929922D02*
X5241730Y-13910875D01*
X5241730Y-13910875D02*
X5232206Y-13901351D01*
X5232206Y-13901351D02*
X5213159Y-13891827D01*
X5213159Y-13891827D02*
X5175064Y-13891827D01*
X5175064Y-13891827D02*
X5156016Y-13901351D01*
X5156016Y-13901351D02*
X5146492Y-13910875D01*
X5146492Y-13910875D02*
X5136968Y-13929922D01*
X5327445Y-13815637D02*
X5327445Y-13853732D01*
X5403635Y-13815637D02*
X5403635Y-13853732D01*
X5698873Y-14091827D02*
X5689349Y-14082303D01*
X5689349Y-14082303D02*
X5670302Y-14053732D01*
X5670302Y-14053732D02*
X5660778Y-14034684D01*
X5660778Y-14034684D02*
X5651254Y-14006113D01*
X5651254Y-14006113D02*
X5641730Y-13958494D01*
X5641730Y-13958494D02*
X5641730Y-13920399D01*
X5641730Y-13920399D02*
X5651254Y-13872779D01*
X5651254Y-13872779D02*
X5660778Y-13844208D01*
X5660778Y-13844208D02*
X5670302Y-13825160D01*
X5670302Y-13825160D02*
X5689349Y-13796589D01*
X5689349Y-13796589D02*
X5698873Y-13787065D01*
X5813159Y-13815637D02*
X5832206Y-13815637D01*
X5832206Y-13815637D02*
X5851254Y-13825160D01*
X5851254Y-13825160D02*
X5860778Y-13834684D01*
X5860778Y-13834684D02*
X5870302Y-13853732D01*
X5870302Y-13853732D02*
X5879825Y-13891827D01*
X5879825Y-13891827D02*
X5879825Y-13939446D01*
X5879825Y-13939446D02*
X5870302Y-13977541D01*
X5870302Y-13977541D02*
X5860778Y-13996589D01*
X5860778Y-13996589D02*
X5851254Y-14006113D01*
X5851254Y-14006113D02*
X5832206Y-14015637D01*
X5832206Y-14015637D02*
X5813159Y-14015637D01*
X5813159Y-14015637D02*
X5794111Y-14006113D01*
X5794111Y-14006113D02*
X5784587Y-13996589D01*
X5784587Y-13996589D02*
X5775064Y-13977541D01*
X5775064Y-13977541D02*
X5765540Y-13939446D01*
X5765540Y-13939446D02*
X5765540Y-13891827D01*
X5765540Y-13891827D02*
X5775064Y-13853732D01*
X5775064Y-13853732D02*
X5784587Y-13834684D01*
X5784587Y-13834684D02*
X5794111Y-13825160D01*
X5794111Y-13825160D02*
X5813159Y-13815637D01*
X6117921Y-14015637D02*
X6117921Y-13815637D01*
X6203635Y-14015637D02*
X6203635Y-13910875D01*
X6203635Y-13910875D02*
X6194111Y-13891827D01*
X6194111Y-13891827D02*
X6175064Y-13882303D01*
X6175064Y-13882303D02*
X6146492Y-13882303D01*
X6146492Y-13882303D02*
X6127445Y-13891827D01*
X6127445Y-13891827D02*
X6117921Y-13901351D01*
X6327445Y-14015637D02*
X6308397Y-14006113D01*
X6308397Y-14006113D02*
X6298873Y-13996589D01*
X6298873Y-13996589D02*
X6289349Y-13977541D01*
X6289349Y-13977541D02*
X6289349Y-13920399D01*
X6289349Y-13920399D02*
X6298873Y-13901351D01*
X6298873Y-13901351D02*
X6308397Y-13891827D01*
X6308397Y-13891827D02*
X6327445Y-13882303D01*
X6327445Y-13882303D02*
X6356016Y-13882303D01*
X6356016Y-13882303D02*
X6375064Y-13891827D01*
X6375064Y-13891827D02*
X6384587Y-13901351D01*
X6384587Y-13901351D02*
X6394111Y-13920399D01*
X6394111Y-13920399D02*
X6394111Y-13977541D01*
X6394111Y-13977541D02*
X6384587Y-13996589D01*
X6384587Y-13996589D02*
X6375064Y-14006113D01*
X6375064Y-14006113D02*
X6356016Y-14015637D01*
X6356016Y-14015637D02*
X6327445Y-14015637D01*
X6508397Y-14015637D02*
X6489349Y-14006113D01*
X6489349Y-14006113D02*
X6479826Y-13987065D01*
X6479826Y-13987065D02*
X6479826Y-13815637D01*
X6660778Y-14006113D02*
X6641730Y-14015637D01*
X6641730Y-14015637D02*
X6603635Y-14015637D01*
X6603635Y-14015637D02*
X6584587Y-14006113D01*
X6584587Y-14006113D02*
X6575064Y-13987065D01*
X6575064Y-13987065D02*
X6575064Y-13910875D01*
X6575064Y-13910875D02*
X6584587Y-13891827D01*
X6584587Y-13891827D02*
X6603635Y-13882303D01*
X6603635Y-13882303D02*
X6641730Y-13882303D01*
X6641730Y-13882303D02*
X6660778Y-13891827D01*
X6660778Y-13891827D02*
X6670302Y-13910875D01*
X6670302Y-13910875D02*
X6670302Y-13929922D01*
X6670302Y-13929922D02*
X6575064Y-13948970D01*
X6746492Y-14006113D02*
X6765540Y-14015637D01*
X6765540Y-14015637D02*
X6803635Y-14015637D01*
X6803635Y-14015637D02*
X6822683Y-14006113D01*
X6822683Y-14006113D02*
X6832207Y-13987065D01*
X6832207Y-13987065D02*
X6832207Y-13977541D01*
X6832207Y-13977541D02*
X6822683Y-13958494D01*
X6822683Y-13958494D02*
X6803635Y-13948970D01*
X6803635Y-13948970D02*
X6775064Y-13948970D01*
X6775064Y-13948970D02*
X6756016Y-13939446D01*
X6756016Y-13939446D02*
X6746492Y-13920399D01*
X6746492Y-13920399D02*
X6746492Y-13910875D01*
X6746492Y-13910875D02*
X6756016Y-13891827D01*
X6756016Y-13891827D02*
X6775064Y-13882303D01*
X6775064Y-13882303D02*
X6803635Y-13882303D01*
X6803635Y-13882303D02*
X6822683Y-13891827D01*
X7070302Y-13939446D02*
X7222683Y-13939446D01*
X7146492Y-14015637D02*
X7146492Y-13863256D01*
X7460778Y-13834684D02*
X7470302Y-13825160D01*
X7470302Y-13825160D02*
X7489349Y-13815637D01*
X7489349Y-13815637D02*
X7536969Y-13815637D01*
X7536969Y-13815637D02*
X7556016Y-13825160D01*
X7556016Y-13825160D02*
X7565540Y-13834684D01*
X7565540Y-13834684D02*
X7575064Y-13853732D01*
X7575064Y-13853732D02*
X7575064Y-13872779D01*
X7575064Y-13872779D02*
X7565540Y-13901351D01*
X7565540Y-13901351D02*
X7451254Y-14015637D01*
X7451254Y-14015637D02*
X7575064Y-14015637D01*
X7803635Y-14006113D02*
X7822683Y-14015637D01*
X7822683Y-14015637D02*
X7860778Y-14015637D01*
X7860778Y-14015637D02*
X7879826Y-14006113D01*
X7879826Y-14006113D02*
X7889350Y-13987065D01*
X7889350Y-13987065D02*
X7889350Y-13977541D01*
X7889350Y-13977541D02*
X7879826Y-13958494D01*
X7879826Y-13958494D02*
X7860778Y-13948970D01*
X7860778Y-13948970D02*
X7832207Y-13948970D01*
X7832207Y-13948970D02*
X7813159Y-13939446D01*
X7813159Y-13939446D02*
X7803635Y-13920399D01*
X7803635Y-13920399D02*
X7803635Y-13910875D01*
X7803635Y-13910875D02*
X7813159Y-13891827D01*
X7813159Y-13891827D02*
X7832207Y-13882303D01*
X7832207Y-13882303D02*
X7860778Y-13882303D01*
X7860778Y-13882303D02*
X7879826Y-13891827D01*
X8003635Y-14015637D02*
X7984588Y-14006113D01*
X7984588Y-14006113D02*
X7975064Y-13987065D01*
X7975064Y-13987065D02*
X7975064Y-13815637D01*
X8108397Y-14015637D02*
X8089350Y-14006113D01*
X8089350Y-14006113D02*
X8079826Y-13996589D01*
X8079826Y-13996589D02*
X8070302Y-13977541D01*
X8070302Y-13977541D02*
X8070302Y-13920399D01*
X8070302Y-13920399D02*
X8079826Y-13901351D01*
X8079826Y-13901351D02*
X8089350Y-13891827D01*
X8089350Y-13891827D02*
X8108397Y-13882303D01*
X8108397Y-13882303D02*
X8136969Y-13882303D01*
X8136969Y-13882303D02*
X8156016Y-13891827D01*
X8156016Y-13891827D02*
X8165540Y-13901351D01*
X8165540Y-13901351D02*
X8175064Y-13920399D01*
X8175064Y-13920399D02*
X8175064Y-13977541D01*
X8175064Y-13977541D02*
X8165540Y-13996589D01*
X8165540Y-13996589D02*
X8156016Y-14006113D01*
X8156016Y-14006113D02*
X8136969Y-14015637D01*
X8136969Y-14015637D02*
X8108397Y-14015637D01*
X8232207Y-13882303D02*
X8308397Y-13882303D01*
X8260778Y-13815637D02*
X8260778Y-13987065D01*
X8260778Y-13987065D02*
X8270302Y-14006113D01*
X8270302Y-14006113D02*
X8289350Y-14015637D01*
X8289350Y-14015637D02*
X8308397Y-14015637D01*
X8365540Y-14006113D02*
X8384588Y-14015637D01*
X8384588Y-14015637D02*
X8422683Y-14015637D01*
X8422683Y-14015637D02*
X8441731Y-14006113D01*
X8441731Y-14006113D02*
X8451254Y-13987065D01*
X8451254Y-13987065D02*
X8451254Y-13977541D01*
X8451254Y-13977541D02*
X8441731Y-13958494D01*
X8441731Y-13958494D02*
X8422683Y-13948970D01*
X8422683Y-13948970D02*
X8394112Y-13948970D01*
X8394112Y-13948970D02*
X8375064Y-13939446D01*
X8375064Y-13939446D02*
X8365540Y-13920399D01*
X8365540Y-13920399D02*
X8365540Y-13910875D01*
X8365540Y-13910875D02*
X8375064Y-13891827D01*
X8375064Y-13891827D02*
X8394112Y-13882303D01*
X8394112Y-13882303D02*
X8422683Y-13882303D01*
X8422683Y-13882303D02*
X8441731Y-13891827D01*
X8517921Y-14091827D02*
X8527445Y-14082303D01*
X8527445Y-14082303D02*
X8546493Y-14053732D01*
X8546493Y-14053732D02*
X8556016Y-14034684D01*
X8556016Y-14034684D02*
X8565540Y-14006113D01*
X8565540Y-14006113D02*
X8575064Y-13958494D01*
X8575064Y-13958494D02*
X8575064Y-13920399D01*
X8575064Y-13920399D02*
X8565540Y-13872779D01*
X8565540Y-13872779D02*
X8556016Y-13844208D01*
X8556016Y-13844208D02*
X8546493Y-13825160D01*
X8546493Y-13825160D02*
X8527445Y-13796589D01*
X8527445Y-13796589D02*
X8517921Y-13787065D01*
D13*
X2113559Y-14212902D02*
X2113559Y-14163404D01*
X2064061Y-14163404D01*
X2064061Y-14212902D01*
X2113559Y-14212902D01*
D12*
X2422682Y-14079637D02*
X2441730Y-14079637D01*
X2441730Y-14079637D02*
X2460778Y-14089160D01*
X2460778Y-14089160D02*
X2470301Y-14098684D01*
X2470301Y-14098684D02*
X2479825Y-14117732D01*
X2479825Y-14117732D02*
X2489349Y-14155827D01*
X2489349Y-14155827D02*
X2489349Y-14203446D01*
X2489349Y-14203446D02*
X2479825Y-14241541D01*
X2479825Y-14241541D02*
X2470301Y-14260589D01*
X2470301Y-14260589D02*
X2460778Y-14270113D01*
X2460778Y-14270113D02*
X2441730Y-14279637D01*
X2441730Y-14279637D02*
X2422682Y-14279637D01*
X2422682Y-14279637D02*
X2403635Y-14270113D01*
X2403635Y-14270113D02*
X2394111Y-14260589D01*
X2394111Y-14260589D02*
X2384587Y-14241541D01*
X2384587Y-14241541D02*
X2375063Y-14203446D01*
X2375063Y-14203446D02*
X2375063Y-14155827D01*
X2375063Y-14155827D02*
X2384587Y-14117732D01*
X2384587Y-14117732D02*
X2394111Y-14098684D01*
X2394111Y-14098684D02*
X2403635Y-14089160D01*
X2403635Y-14089160D02*
X2422682Y-14079637D01*
X2575063Y-14260589D02*
X2584587Y-14270113D01*
X2584587Y-14270113D02*
X2575063Y-14279637D01*
X2575063Y-14279637D02*
X2565540Y-14270113D01*
X2565540Y-14270113D02*
X2575063Y-14260589D01*
X2575063Y-14260589D02*
X2575063Y-14279637D01*
X2651254Y-14079637D02*
X2784587Y-14079637D01*
X2784587Y-14079637D02*
X2698873Y-14279637D01*
X2898873Y-14079637D02*
X2917920Y-14079637D01*
X2917920Y-14079637D02*
X2936968Y-14089160D01*
X2936968Y-14089160D02*
X2946492Y-14098684D01*
X2946492Y-14098684D02*
X2956016Y-14117732D01*
X2956016Y-14117732D02*
X2965539Y-14155827D01*
X2965539Y-14155827D02*
X2965539Y-14203446D01*
X2965539Y-14203446D02*
X2956016Y-14241541D01*
X2956016Y-14241541D02*
X2946492Y-14260589D01*
X2946492Y-14260589D02*
X2936968Y-14270113D01*
X2936968Y-14270113D02*
X2917920Y-14279637D01*
X2917920Y-14279637D02*
X2898873Y-14279637D01*
X2898873Y-14279637D02*
X2879825Y-14270113D01*
X2879825Y-14270113D02*
X2870301Y-14260589D01*
X2870301Y-14260589D02*
X2860778Y-14241541D01*
X2860778Y-14241541D02*
X2851254Y-14203446D01*
X2851254Y-14203446D02*
X2851254Y-14155827D01*
X2851254Y-14155827D02*
X2860778Y-14117732D01*
X2860778Y-14117732D02*
X2870301Y-14098684D01*
X2870301Y-14098684D02*
X2879825Y-14089160D01*
X2879825Y-14089160D02*
X2898873Y-14079637D01*
X3089349Y-14079637D02*
X3108397Y-14079637D01*
X3108397Y-14079637D02*
X3127444Y-14089160D01*
X3127444Y-14089160D02*
X3136968Y-14098684D01*
X3136968Y-14098684D02*
X3146492Y-14117732D01*
X3146492Y-14117732D02*
X3156016Y-14155827D01*
X3156016Y-14155827D02*
X3156016Y-14203446D01*
X3156016Y-14203446D02*
X3146492Y-14241541D01*
X3146492Y-14241541D02*
X3136968Y-14260589D01*
X3136968Y-14260589D02*
X3127444Y-14270113D01*
X3127444Y-14270113D02*
X3108397Y-14279637D01*
X3108397Y-14279637D02*
X3089349Y-14279637D01*
X3089349Y-14279637D02*
X3070301Y-14270113D01*
X3070301Y-14270113D02*
X3060778Y-14260589D01*
X3060778Y-14260589D02*
X3051254Y-14241541D01*
X3051254Y-14241541D02*
X3041730Y-14203446D01*
X3041730Y-14203446D02*
X3041730Y-14155827D01*
X3041730Y-14155827D02*
X3051254Y-14117732D01*
X3051254Y-14117732D02*
X3060778Y-14098684D01*
X3060778Y-14098684D02*
X3070301Y-14089160D01*
X3070301Y-14089160D02*
X3089349Y-14079637D01*
X3241730Y-14279637D02*
X3241730Y-14146303D01*
X3241730Y-14165351D02*
X3251254Y-14155827D01*
X3251254Y-14155827D02*
X3270301Y-14146303D01*
X3270301Y-14146303D02*
X3298873Y-14146303D01*
X3298873Y-14146303D02*
X3317920Y-14155827D01*
X3317920Y-14155827D02*
X3327444Y-14174875D01*
X3327444Y-14174875D02*
X3327444Y-14279637D01*
X3327444Y-14174875D02*
X3336968Y-14155827D01*
X3336968Y-14155827D02*
X3356016Y-14146303D01*
X3356016Y-14146303D02*
X3384587Y-14146303D01*
X3384587Y-14146303D02*
X3403635Y-14155827D01*
X3403635Y-14155827D02*
X3413159Y-14174875D01*
X3413159Y-14174875D02*
X3413159Y-14279637D01*
X3508397Y-14279637D02*
X3508397Y-14146303D01*
X3508397Y-14165351D02*
X3517920Y-14155827D01*
X3517920Y-14155827D02*
X3536968Y-14146303D01*
X3536968Y-14146303D02*
X3565540Y-14146303D01*
X3565540Y-14146303D02*
X3584587Y-14155827D01*
X3584587Y-14155827D02*
X3594111Y-14174875D01*
X3594111Y-14174875D02*
X3594111Y-14279637D01*
X3594111Y-14174875D02*
X3603635Y-14155827D01*
X3603635Y-14155827D02*
X3622682Y-14146303D01*
X3622682Y-14146303D02*
X3651254Y-14146303D01*
X3651254Y-14146303D02*
X3670301Y-14155827D01*
X3670301Y-14155827D02*
X3679825Y-14174875D01*
X3679825Y-14174875D02*
X3679825Y-14279637D01*
X4070301Y-14070113D02*
X3898873Y-14327256D01*
X4327444Y-14079637D02*
X4346492Y-14079637D01*
X4346492Y-14079637D02*
X4365540Y-14089160D01*
X4365540Y-14089160D02*
X4375064Y-14098684D01*
X4375064Y-14098684D02*
X4384587Y-14117732D01*
X4384587Y-14117732D02*
X4394111Y-14155827D01*
X4394111Y-14155827D02*
X4394111Y-14203446D01*
X4394111Y-14203446D02*
X4384587Y-14241541D01*
X4384587Y-14241541D02*
X4375064Y-14260589D01*
X4375064Y-14260589D02*
X4365540Y-14270113D01*
X4365540Y-14270113D02*
X4346492Y-14279637D01*
X4346492Y-14279637D02*
X4327444Y-14279637D01*
X4327444Y-14279637D02*
X4308397Y-14270113D01*
X4308397Y-14270113D02*
X4298873Y-14260589D01*
X4298873Y-14260589D02*
X4289349Y-14241541D01*
X4289349Y-14241541D02*
X4279825Y-14203446D01*
X4279825Y-14203446D02*
X4279825Y-14155827D01*
X4279825Y-14155827D02*
X4289349Y-14117732D01*
X4289349Y-14117732D02*
X4298873Y-14098684D01*
X4298873Y-14098684D02*
X4308397Y-14089160D01*
X4308397Y-14089160D02*
X4327444Y-14079637D01*
X4479825Y-14260589D02*
X4489349Y-14270113D01*
X4489349Y-14270113D02*
X4479825Y-14279637D01*
X4479825Y-14279637D02*
X4470302Y-14270113D01*
X4470302Y-14270113D02*
X4479825Y-14260589D01*
X4479825Y-14260589D02*
X4479825Y-14279637D01*
X4613159Y-14079637D02*
X4632206Y-14079637D01*
X4632206Y-14079637D02*
X4651254Y-14089160D01*
X4651254Y-14089160D02*
X4660778Y-14098684D01*
X4660778Y-14098684D02*
X4670302Y-14117732D01*
X4670302Y-14117732D02*
X4679825Y-14155827D01*
X4679825Y-14155827D02*
X4679825Y-14203446D01*
X4679825Y-14203446D02*
X4670302Y-14241541D01*
X4670302Y-14241541D02*
X4660778Y-14260589D01*
X4660778Y-14260589D02*
X4651254Y-14270113D01*
X4651254Y-14270113D02*
X4632206Y-14279637D01*
X4632206Y-14279637D02*
X4613159Y-14279637D01*
X4613159Y-14279637D02*
X4594111Y-14270113D01*
X4594111Y-14270113D02*
X4584587Y-14260589D01*
X4584587Y-14260589D02*
X4575064Y-14241541D01*
X4575064Y-14241541D02*
X4565540Y-14203446D01*
X4565540Y-14203446D02*
X4565540Y-14155827D01*
X4565540Y-14155827D02*
X4575064Y-14117732D01*
X4575064Y-14117732D02*
X4584587Y-14098684D01*
X4584587Y-14098684D02*
X4594111Y-14089160D01*
X4594111Y-14089160D02*
X4613159Y-14079637D01*
X4756016Y-14098684D02*
X4765540Y-14089160D01*
X4765540Y-14089160D02*
X4784587Y-14079637D01*
X4784587Y-14079637D02*
X4832206Y-14079637D01*
X4832206Y-14079637D02*
X4851254Y-14089160D01*
X4851254Y-14089160D02*
X4860778Y-14098684D01*
X4860778Y-14098684D02*
X4870302Y-14117732D01*
X4870302Y-14117732D02*
X4870302Y-14136779D01*
X4870302Y-14136779D02*
X4860778Y-14165351D01*
X4860778Y-14165351D02*
X4746492Y-14279637D01*
X4746492Y-14279637D02*
X4870302Y-14279637D01*
X4936968Y-14079637D02*
X5070302Y-14079637D01*
X5070302Y-14079637D02*
X4984587Y-14279637D01*
X5232206Y-14079637D02*
X5194111Y-14079637D01*
X5194111Y-14079637D02*
X5175064Y-14089160D01*
X5175064Y-14089160D02*
X5165540Y-14098684D01*
X5165540Y-14098684D02*
X5146492Y-14127256D01*
X5146492Y-14127256D02*
X5136968Y-14165351D01*
X5136968Y-14165351D02*
X5136968Y-14241541D01*
X5136968Y-14241541D02*
X5146492Y-14260589D01*
X5146492Y-14260589D02*
X5156016Y-14270113D01*
X5156016Y-14270113D02*
X5175064Y-14279637D01*
X5175064Y-14279637D02*
X5213159Y-14279637D01*
X5213159Y-14279637D02*
X5232206Y-14270113D01*
X5232206Y-14270113D02*
X5241730Y-14260589D01*
X5241730Y-14260589D02*
X5251254Y-14241541D01*
X5251254Y-14241541D02*
X5251254Y-14193922D01*
X5251254Y-14193922D02*
X5241730Y-14174875D01*
X5241730Y-14174875D02*
X5232206Y-14165351D01*
X5232206Y-14165351D02*
X5213159Y-14155827D01*
X5213159Y-14155827D02*
X5175064Y-14155827D01*
X5175064Y-14155827D02*
X5156016Y-14165351D01*
X5156016Y-14165351D02*
X5146492Y-14174875D01*
X5146492Y-14174875D02*
X5136968Y-14193922D01*
X5327445Y-14079637D02*
X5327445Y-14117732D01*
X5403635Y-14079637D02*
X5403635Y-14117732D01*
X5698873Y-14355827D02*
X5689349Y-14346303D01*
X5689349Y-14346303D02*
X5670302Y-14317732D01*
X5670302Y-14317732D02*
X5660778Y-14298684D01*
X5660778Y-14298684D02*
X5651254Y-14270113D01*
X5651254Y-14270113D02*
X5641730Y-14222494D01*
X5641730Y-14222494D02*
X5641730Y-14184399D01*
X5641730Y-14184399D02*
X5651254Y-14136779D01*
X5651254Y-14136779D02*
X5660778Y-14108208D01*
X5660778Y-14108208D02*
X5670302Y-14089160D01*
X5670302Y-14089160D02*
X5689349Y-14060589D01*
X5689349Y-14060589D02*
X5698873Y-14051065D01*
X5813159Y-14079637D02*
X5832206Y-14079637D01*
X5832206Y-14079637D02*
X5851254Y-14089160D01*
X5851254Y-14089160D02*
X5860778Y-14098684D01*
X5860778Y-14098684D02*
X5870302Y-14117732D01*
X5870302Y-14117732D02*
X5879825Y-14155827D01*
X5879825Y-14155827D02*
X5879825Y-14203446D01*
X5879825Y-14203446D02*
X5870302Y-14241541D01*
X5870302Y-14241541D02*
X5860778Y-14260589D01*
X5860778Y-14260589D02*
X5851254Y-14270113D01*
X5851254Y-14270113D02*
X5832206Y-14279637D01*
X5832206Y-14279637D02*
X5813159Y-14279637D01*
X5813159Y-14279637D02*
X5794111Y-14270113D01*
X5794111Y-14270113D02*
X5784587Y-14260589D01*
X5784587Y-14260589D02*
X5775064Y-14241541D01*
X5775064Y-14241541D02*
X5765540Y-14203446D01*
X5765540Y-14203446D02*
X5765540Y-14155827D01*
X5765540Y-14155827D02*
X5775064Y-14117732D01*
X5775064Y-14117732D02*
X5784587Y-14098684D01*
X5784587Y-14098684D02*
X5794111Y-14089160D01*
X5794111Y-14089160D02*
X5813159Y-14079637D01*
X6117921Y-14279637D02*
X6117921Y-14079637D01*
X6203635Y-14279637D02*
X6203635Y-14174875D01*
X6203635Y-14174875D02*
X6194111Y-14155827D01*
X6194111Y-14155827D02*
X6175064Y-14146303D01*
X6175064Y-14146303D02*
X6146492Y-14146303D01*
X6146492Y-14146303D02*
X6127445Y-14155827D01*
X6127445Y-14155827D02*
X6117921Y-14165351D01*
X6327445Y-14279637D02*
X6308397Y-14270113D01*
X6308397Y-14270113D02*
X6298873Y-14260589D01*
X6298873Y-14260589D02*
X6289349Y-14241541D01*
X6289349Y-14241541D02*
X6289349Y-14184399D01*
X6289349Y-14184399D02*
X6298873Y-14165351D01*
X6298873Y-14165351D02*
X6308397Y-14155827D01*
X6308397Y-14155827D02*
X6327445Y-14146303D01*
X6327445Y-14146303D02*
X6356016Y-14146303D01*
X6356016Y-14146303D02*
X6375064Y-14155827D01*
X6375064Y-14155827D02*
X6384587Y-14165351D01*
X6384587Y-14165351D02*
X6394111Y-14184399D01*
X6394111Y-14184399D02*
X6394111Y-14241541D01*
X6394111Y-14241541D02*
X6384587Y-14260589D01*
X6384587Y-14260589D02*
X6375064Y-14270113D01*
X6375064Y-14270113D02*
X6356016Y-14279637D01*
X6356016Y-14279637D02*
X6327445Y-14279637D01*
X6508397Y-14279637D02*
X6489349Y-14270113D01*
X6489349Y-14270113D02*
X6479826Y-14251065D01*
X6479826Y-14251065D02*
X6479826Y-14079637D01*
X6660778Y-14270113D02*
X6641730Y-14279637D01*
X6641730Y-14279637D02*
X6603635Y-14279637D01*
X6603635Y-14279637D02*
X6584587Y-14270113D01*
X6584587Y-14270113D02*
X6575064Y-14251065D01*
X6575064Y-14251065D02*
X6575064Y-14174875D01*
X6575064Y-14174875D02*
X6584587Y-14155827D01*
X6584587Y-14155827D02*
X6603635Y-14146303D01*
X6603635Y-14146303D02*
X6641730Y-14146303D01*
X6641730Y-14146303D02*
X6660778Y-14155827D01*
X6660778Y-14155827D02*
X6670302Y-14174875D01*
X6670302Y-14174875D02*
X6670302Y-14193922D01*
X6670302Y-14193922D02*
X6575064Y-14212970D01*
X6746492Y-14270113D02*
X6765540Y-14279637D01*
X6765540Y-14279637D02*
X6803635Y-14279637D01*
X6803635Y-14279637D02*
X6822683Y-14270113D01*
X6822683Y-14270113D02*
X6832207Y-14251065D01*
X6832207Y-14251065D02*
X6832207Y-14241541D01*
X6832207Y-14241541D02*
X6822683Y-14222494D01*
X6822683Y-14222494D02*
X6803635Y-14212970D01*
X6803635Y-14212970D02*
X6775064Y-14212970D01*
X6775064Y-14212970D02*
X6756016Y-14203446D01*
X6756016Y-14203446D02*
X6746492Y-14184399D01*
X6746492Y-14184399D02*
X6746492Y-14174875D01*
X6746492Y-14174875D02*
X6756016Y-14155827D01*
X6756016Y-14155827D02*
X6775064Y-14146303D01*
X6775064Y-14146303D02*
X6803635Y-14146303D01*
X6803635Y-14146303D02*
X6822683Y-14155827D01*
X7070302Y-14203446D02*
X7222683Y-14203446D01*
X7146492Y-14279637D02*
X7146492Y-14127256D01*
X7460778Y-14098684D02*
X7470302Y-14089160D01*
X7470302Y-14089160D02*
X7489349Y-14079637D01*
X7489349Y-14079637D02*
X7536969Y-14079637D01*
X7536969Y-14079637D02*
X7556016Y-14089160D01*
X7556016Y-14089160D02*
X7565540Y-14098684D01*
X7565540Y-14098684D02*
X7575064Y-14117732D01*
X7575064Y-14117732D02*
X7575064Y-14136779D01*
X7575064Y-14136779D02*
X7565540Y-14165351D01*
X7565540Y-14165351D02*
X7451254Y-14279637D01*
X7451254Y-14279637D02*
X7575064Y-14279637D01*
X7803635Y-14270113D02*
X7822683Y-14279637D01*
X7822683Y-14279637D02*
X7860778Y-14279637D01*
X7860778Y-14279637D02*
X7879826Y-14270113D01*
X7879826Y-14270113D02*
X7889350Y-14251065D01*
X7889350Y-14251065D02*
X7889350Y-14241541D01*
X7889350Y-14241541D02*
X7879826Y-14222494D01*
X7879826Y-14222494D02*
X7860778Y-14212970D01*
X7860778Y-14212970D02*
X7832207Y-14212970D01*
X7832207Y-14212970D02*
X7813159Y-14203446D01*
X7813159Y-14203446D02*
X7803635Y-14184399D01*
X7803635Y-14184399D02*
X7803635Y-14174875D01*
X7803635Y-14174875D02*
X7813159Y-14155827D01*
X7813159Y-14155827D02*
X7832207Y-14146303D01*
X7832207Y-14146303D02*
X7860778Y-14146303D01*
X7860778Y-14146303D02*
X7879826Y-14155827D01*
X8003635Y-14279637D02*
X7984588Y-14270113D01*
X7984588Y-14270113D02*
X7975064Y-14251065D01*
X7975064Y-14251065D02*
X7975064Y-14079637D01*
X8108397Y-14279637D02*
X8089350Y-14270113D01*
X8089350Y-14270113D02*
X8079826Y-14260589D01*
X8079826Y-14260589D02*
X8070302Y-14241541D01*
X8070302Y-14241541D02*
X8070302Y-14184399D01*
X8070302Y-14184399D02*
X8079826Y-14165351D01*
X8079826Y-14165351D02*
X8089350Y-14155827D01*
X8089350Y-14155827D02*
X8108397Y-14146303D01*
X8108397Y-14146303D02*
X8136969Y-14146303D01*
X8136969Y-14146303D02*
X8156016Y-14155827D01*
X8156016Y-14155827D02*
X8165540Y-14165351D01*
X8165540Y-14165351D02*
X8175064Y-14184399D01*
X8175064Y-14184399D02*
X8175064Y-14241541D01*
X8175064Y-14241541D02*
X8165540Y-14260589D01*
X8165540Y-14260589D02*
X8156016Y-14270113D01*
X8156016Y-14270113D02*
X8136969Y-14279637D01*
X8136969Y-14279637D02*
X8108397Y-14279637D01*
X8232207Y-14146303D02*
X8308397Y-14146303D01*
X8260778Y-14079637D02*
X8260778Y-14251065D01*
X8260778Y-14251065D02*
X8270302Y-14270113D01*
X8270302Y-14270113D02*
X8289350Y-14279637D01*
X8289350Y-14279637D02*
X8308397Y-14279637D01*
X8365540Y-14270113D02*
X8384588Y-14279637D01*
X8384588Y-14279637D02*
X8422683Y-14279637D01*
X8422683Y-14279637D02*
X8441731Y-14270113D01*
X8441731Y-14270113D02*
X8451254Y-14251065D01*
X8451254Y-14251065D02*
X8451254Y-14241541D01*
X8451254Y-14241541D02*
X8441731Y-14222494D01*
X8441731Y-14222494D02*
X8422683Y-14212970D01*
X8422683Y-14212970D02*
X8394112Y-14212970D01*
X8394112Y-14212970D02*
X8375064Y-14203446D01*
X8375064Y-14203446D02*
X8365540Y-14184399D01*
X8365540Y-14184399D02*
X8365540Y-14174875D01*
X8365540Y-14174875D02*
X8375064Y-14155827D01*
X8375064Y-14155827D02*
X8394112Y-14146303D01*
X8394112Y-14146303D02*
X8422683Y-14146303D01*
X8422683Y-14146303D02*
X8441731Y-14155827D01*
X8517921Y-14355827D02*
X8527445Y-14346303D01*
X8527445Y-14346303D02*
X8546493Y-14317732D01*
X8546493Y-14317732D02*
X8556016Y-14298684D01*
X8556016Y-14298684D02*
X8565540Y-14270113D01*
X8565540Y-14270113D02*
X8575064Y-14222494D01*
X8575064Y-14222494D02*
X8575064Y-14184399D01*
X8575064Y-14184399D02*
X8565540Y-14136779D01*
X8565540Y-14136779D02*
X8556016Y-14108208D01*
X8556016Y-14108208D02*
X8546493Y-14089160D01*
X8546493Y-14089160D02*
X8527445Y-14060589D01*
X8527445Y-14060589D02*
X8517921Y-14051065D01*
M02*
