G04 #@! TF.GenerationSoftware,KiCad,Pcbnew,8.0.4*
G04 #@! TF.CreationDate,2024-10-07T04:48:17+11:00*
G04 #@! TF.ProjectId,nokia,6e6f6b69-612e-46b6-9963-61645f706362,rev?*
G04 #@! TF.SameCoordinates,Original*
G04 #@! TF.FileFunction,Profile,NP*
%FSLAX46Y46*%
G04 Gerber Fmt 4.6, Leading zero omitted, Abs format (unit mm)*
G04 Created by KiCad (PCBNEW 8.0.4) date 2024-10-07 04:48:17*
%MOMM*%
%LPD*%
G01*
G04 APERTURE LIST*
G04 #@! TA.AperFunction,Profile*
%ADD10C,0.050000*%
G04 #@! TD*
G04 #@! TA.AperFunction,Profile*
%ADD11C,0.399999*%
G04 #@! TD*
G04 APERTURE END LIST*
D10*
X32900000Y-112400000D02*
X34600000Y-112400000D01*
X34600000Y-114300000D01*
X32900000Y-114300000D01*
X32900000Y-112400000D01*
X45973039Y-123875000D02*
G75*
G02*
X43743157Y-123875000I-1114941J0D01*
G01*
X43743157Y-123875000D02*
G75*
G02*
X45973039Y-123875000I1114941J0D01*
G01*
X32900000Y-97550000D02*
X34600000Y-97550000D01*
X34600000Y-99450000D01*
X32900000Y-99450000D01*
X32900000Y-97550000D01*
X46275000Y-74400000D02*
X47975000Y-74400000D01*
X47975000Y-76300000D01*
X46275000Y-76300000D01*
X46275000Y-74400000D01*
X50400000Y-97550000D02*
X52100000Y-97550000D01*
X52100000Y-99450000D01*
X50400000Y-99450000D01*
X50400000Y-97550000D01*
X50400000Y-112400000D02*
X52100000Y-112400000D01*
X52100000Y-114300000D01*
X50400000Y-114300000D01*
X50400000Y-112400000D01*
D11*
X32710000Y-20361414D02*
X38710000Y-20361414D01*
X38710000Y-19361414D01*
X54000000Y-19361414D01*
X54000000Y-22000000D01*
X55900000Y-22000000D01*
X58043600Y-22000000D01*
X58743594Y-22700000D01*
X58743564Y-24500000D01*
X58800000Y-24750000D01*
X58900000Y-24950000D01*
X59050000Y-25150000D01*
X59200000Y-25300000D01*
X59400000Y-25400000D01*
X59600000Y-25450000D01*
X59750000Y-25450000D01*
X59950000Y-25450000D01*
X60663401Y-25450000D01*
X60663401Y-29422756D01*
X62773526Y-32816461D01*
X63036104Y-33238764D01*
X63036104Y-63300000D01*
X63536104Y-63300000D01*
X63536104Y-70300000D01*
X63036104Y-70300000D01*
X63036104Y-102800770D01*
X61236332Y-108795765D01*
X61100000Y-109095765D01*
X58941041Y-109095765D01*
X58900000Y-110600000D01*
X60900000Y-110600000D01*
X60686364Y-111897377D01*
X60092057Y-114987095D01*
X58959118Y-122661754D01*
X56359467Y-122361759D01*
X56315146Y-122363722D01*
X56270299Y-122369508D01*
X56225053Y-122378955D01*
X56179534Y-122391900D01*
X56133870Y-122408179D01*
X56088187Y-122427628D01*
X56042611Y-122450086D01*
X55997271Y-122475387D01*
X55952291Y-122503371D01*
X55907800Y-122533872D01*
X55820790Y-122601776D01*
X55737254Y-122677794D01*
X55658206Y-122760620D01*
X55584660Y-122848949D01*
X55517631Y-122941474D01*
X55458133Y-123036890D01*
X55407180Y-123133892D01*
X55365786Y-123231173D01*
X55348991Y-123279511D01*
X55334966Y-123327429D01*
X55323837Y-123374764D01*
X55315733Y-123421352D01*
X55310779Y-123467032D01*
X55309102Y-123511638D01*
X55310804Y-123555366D01*
X55315781Y-123598519D01*
X55323907Y-123641044D01*
X55335055Y-123682887D01*
X55349097Y-123723995D01*
X55365908Y-123764315D01*
X55385360Y-123803794D01*
X55407327Y-123842377D01*
X55431682Y-123880012D01*
X55458298Y-123916646D01*
X55487049Y-123952224D01*
X55517807Y-123986694D01*
X55584841Y-124052096D01*
X55658386Y-124112425D01*
X55737427Y-124167253D01*
X55820952Y-124216155D01*
X55907945Y-124258703D01*
X55997394Y-124294470D01*
X56088285Y-124323031D01*
X56179603Y-124343957D01*
X56270335Y-124356823D01*
X56315164Y-124360100D01*
X56359467Y-124361202D01*
X56359467Y-127361530D01*
X45659344Y-127361530D01*
X43659470Y-127361530D01*
X28659352Y-127361530D01*
X28659352Y-124361202D01*
X28703653Y-124360101D01*
X28748477Y-124356825D01*
X28793697Y-124351426D01*
X28839189Y-124343960D01*
X28884824Y-124334477D01*
X28930476Y-124323034D01*
X28976019Y-124309681D01*
X29021327Y-124294473D01*
X29066272Y-124277464D01*
X29110729Y-124258706D01*
X29154570Y-124238253D01*
X29197670Y-124216158D01*
X29239902Y-124192475D01*
X29281139Y-124167256D01*
X29321255Y-124140556D01*
X29360123Y-124112428D01*
X29397617Y-124082924D01*
X29433610Y-124052099D01*
X29467976Y-124020005D01*
X29500589Y-123986696D01*
X29531321Y-123952226D01*
X29560046Y-123916647D01*
X29586638Y-123880013D01*
X29610971Y-123842378D01*
X29632917Y-123803795D01*
X29652351Y-123764316D01*
X29669145Y-123723996D01*
X29683174Y-123682887D01*
X29694310Y-123641044D01*
X29702428Y-123598519D01*
X29707401Y-123555366D01*
X29709101Y-123511638D01*
X29707426Y-123467032D01*
X29702477Y-123421352D01*
X29694381Y-123374764D01*
X29683264Y-123327429D01*
X29669253Y-123279511D01*
X29652474Y-123231173D01*
X29633054Y-123182579D01*
X29611119Y-123133892D01*
X29586797Y-123085275D01*
X29560213Y-123036890D01*
X29500767Y-122941474D01*
X29433793Y-122848949D01*
X29360305Y-122760620D01*
X29281315Y-122677794D01*
X29197834Y-122601776D01*
X29154726Y-122566728D01*
X29110876Y-122533872D01*
X29066409Y-122503371D01*
X29021452Y-122475387D01*
X28976132Y-122450086D01*
X28930575Y-122427628D01*
X28884909Y-122408179D01*
X28839258Y-122391900D01*
X28793751Y-122378955D01*
X28748513Y-122369508D01*
X28703671Y-122363722D01*
X28659352Y-122361759D01*
X26058100Y-122661754D01*
X24926762Y-114987095D01*
X21938102Y-102800274D01*
X21938102Y-70300000D01*
X21438102Y-70300000D01*
X21438102Y-63300000D01*
X21938102Y-63300000D01*
X21938102Y-33238853D01*
X25946323Y-27029904D01*
X25946323Y-25500764D01*
X28600000Y-25500764D01*
X28900000Y-25450000D01*
X29250000Y-25300000D01*
X29450000Y-25050000D01*
X29550000Y-24800000D01*
X29620101Y-24400000D01*
X29620101Y-19361414D01*
X32710000Y-19361414D01*
X32710000Y-20361414D01*
D10*
X26900000Y-74400000D02*
X28600000Y-74400000D01*
X28600000Y-76300000D01*
X26900000Y-76300000D01*
X26900000Y-74400000D01*
X37050000Y-74400000D02*
X38750000Y-74400000D01*
X38750000Y-76300000D01*
X37050000Y-76300000D01*
X37050000Y-74400000D01*
X56425000Y-74400000D02*
X58125000Y-74400000D01*
X58125000Y-76300000D01*
X56425000Y-76300000D01*
X56425000Y-74400000D01*
D11*
X48772287Y-40654860D02*
X48820518Y-40658536D01*
X48868048Y-40664584D01*
X48914818Y-40672943D01*
X48960766Y-40683555D01*
X49005834Y-40696359D01*
X49049963Y-40711295D01*
X49093091Y-40728306D01*
X49135161Y-40747329D01*
X49176111Y-40768307D01*
X49215883Y-40791178D01*
X49254417Y-40815885D01*
X49291654Y-40842366D01*
X49327532Y-40870563D01*
X49361994Y-40900415D01*
X49394979Y-40931864D01*
X49426427Y-40964849D01*
X49456279Y-40999310D01*
X49484476Y-41035189D01*
X49510957Y-41072425D01*
X49535664Y-41110959D01*
X49558536Y-41150731D01*
X49579513Y-41191682D01*
X49598537Y-41233751D01*
X49615547Y-41276880D01*
X49630484Y-41321008D01*
X49643288Y-41366076D01*
X49653899Y-41412025D01*
X49662259Y-41458794D01*
X49668306Y-41506324D01*
X49671982Y-41554556D01*
X49673227Y-41603429D01*
X49672076Y-41650542D01*
X49668610Y-41697336D01*
X49662862Y-41743733D01*
X49654865Y-41789656D01*
X49644650Y-41835025D01*
X49632250Y-41879764D01*
X49617697Y-41923794D01*
X49601024Y-41967037D01*
X49582262Y-42009417D01*
X49561444Y-42050854D01*
X49538601Y-42091270D01*
X49513767Y-42130589D01*
X49486974Y-42168732D01*
X49458253Y-42205621D01*
X49427637Y-42241179D01*
X49395159Y-42275327D01*
X49361029Y-42307824D01*
X49325488Y-42338459D01*
X49288614Y-42367200D01*
X49250486Y-42394014D01*
X49211180Y-42418869D01*
X49170776Y-42441734D01*
X49129350Y-42462574D01*
X49086981Y-42481359D01*
X49043746Y-42498056D01*
X48999724Y-42512633D01*
X48954992Y-42525057D01*
X48909628Y-42535296D01*
X48863710Y-42543318D01*
X48817316Y-42549090D01*
X48770524Y-42552581D01*
X48723412Y-42553758D01*
X48676283Y-42552605D01*
X48629473Y-42549137D01*
X48583061Y-42543386D01*
X48537124Y-42535383D01*
X48491740Y-42525162D01*
X48446987Y-42512754D01*
X48402944Y-42498191D01*
X48359688Y-42481507D01*
X48317297Y-42462732D01*
X48275849Y-42441900D01*
X48235422Y-42419043D01*
X48196094Y-42394193D01*
X48157944Y-42367383D01*
X48121048Y-42338644D01*
X48085486Y-42308009D01*
X48051334Y-42275510D01*
X48018835Y-42241358D01*
X47988200Y-42205795D01*
X47959461Y-42168899D01*
X47932650Y-42130749D01*
X47907800Y-42091421D01*
X47884942Y-42050994D01*
X47864110Y-42009546D01*
X47845336Y-41967155D01*
X47828651Y-41923898D01*
X47814089Y-41879855D01*
X47801681Y-41835102D01*
X47791459Y-41789718D01*
X47783456Y-41743781D01*
X47777705Y-41697368D01*
X47774237Y-41650558D01*
X47773085Y-41603429D01*
X47774252Y-41556349D01*
X47777734Y-41509586D01*
X47783498Y-41463216D01*
X47791511Y-41417318D01*
X47801741Y-41371971D01*
X47814157Y-41327252D01*
X47828725Y-41283239D01*
X47845413Y-41240011D01*
X47864190Y-41197646D01*
X47885022Y-41156222D01*
X47907878Y-41115817D01*
X47932726Y-41076509D01*
X47959532Y-41038377D01*
X47988266Y-41001498D01*
X48018894Y-40965952D01*
X48051384Y-40931815D01*
X48085526Y-40899330D01*
X48121077Y-40868707D01*
X48157961Y-40839978D01*
X48196099Y-40813177D01*
X48235413Y-40788336D01*
X48275826Y-40765485D01*
X48317259Y-40744659D01*
X48359634Y-40725889D01*
X48402875Y-40709207D01*
X48446902Y-40694645D01*
X48491639Y-40682237D01*
X48537006Y-40672013D01*
X48582927Y-40664007D01*
X48629322Y-40658250D01*
X48676116Y-40654776D01*
X48723229Y-40653615D01*
X48723414Y-40653615D01*
X48772287Y-40654860D01*
M02*
